<?xml version="1.0" encoding="UTF-8" standalone="no"?>
<!-- Created with Inkscape (http://www.inkscape.org/) -->

<svg
   version="1.1"
   id="svg2"
   width="722.93915"
   height="168.98808"
   viewBox="0 0 722.93918 168.98808"
   sodipodi:docname="aicrafters.svg"
   xml:space="preserve"
   inkscape:version="1.2.2 (b0a8486541, 2022-12-01)"
   xmlns:inkscape="http://www.inkscape.org/namespaces/inkscape"
   xmlns:sodipodi="http://sodipodi.sourceforge.net/DTD/sodipodi-0.dtd"
   xmlns="http://www.w3.org/2000/svg"
   xmlns:svg="http://www.w3.org/2000/svg"><defs
     id="defs6" /><sodipodi:namedview
     id="namedview4"
     pagecolor="#ffffff"
     bordercolor="#000000"
     borderopacity="0.25"
     inkscape:showpageshadow="2"
     inkscape:pageopacity="0.0"
     inkscape:pagecheckerboard="0"
     inkscape:deskcolor="#d1d1d1"
     showgrid="false"
     inkscape:zoom="0.3391813"
     inkscape:cx="-274.18964"
     inkscape:cy="206.3793"
     inkscape:window-width="1916"
     inkscape:window-height="1157"
     inkscape:window-x="0"
     inkscape:window-y="41"
     inkscape:window-maximized="1"
     inkscape:current-layer="g8" /><g
     inkscape:groupmode="layer"
     inkscape:label="Image"
     id="g8"
     transform="translate(-278.18155,327.11217)"><path
       style="fill:#1E293B"
       d="m 635.76812,-195.54153 c 13.19917,-3.10673 23.97455,-14.11195 26.38199,-26.94473 l 0.69314,-3.69477 h -7.11129 c -5.75576,0 -7.11129,0.29539 -7.11129,1.54966 0,2.28979 -2.86022,7.5535 -5.86416,10.79192 -8.74462,9.42719 -26.13382,9.45427 -35.53276,0.0553 -9.20638,-9.20638 -10.05844,-29.56594 -1.71913,-41.07801 8.05782,-11.12351 27.6634,-11.99742 37.25189,-1.66049 3.00394,3.23846 5.86416,8.50217 5.86416,10.79196 0,1.25427 1.35553,1.54966 7.11129,1.54966 h 7.11129 l -0.70322,-3.75 c -2.89484,-15.43706 -16.49667,-26.82069 -33.43405,-27.98161 -13.05483,-0.89479 -22.44833,2.24949 -31.2132,10.44801 -18.79325,17.57888 -14.28636,55.19274 7.99368,66.7142 8.33584,4.31063 20.24101,5.5722 30.28166,3.2089 z m 254.73064,-0.19594 c 6.03881,-1.79333 12.35949,-7.02877 15.19433,-12.58551 3.12677,-6.12898 2.73486,-6.85805 -3.68655,-6.85805 -5.30152,0 -5.81659,0.22631 -9.25,4.06418 -9.24921,10.33876 -25.71695,5.26784 -28.62389,-8.81418 l -0.67089,-3.25 h 22.70862 22.70862 l -0.69712,-6.25 c -2.03201,-18.21774 -13.72294,-28.72266 -30.61999,-27.51368 -16.28967,1.16552 -26.94122,13.52601 -26.94122,31.26368 0,9.01339 2.27649,15.47898 7.49284,21.28081 8.28965,9.22009 19.97924,12.34694 32.38525,8.66275 z m -25.87809,-37.79568 c 0,-2.00004 4.10428,-7.67086 7.22478,-9.98235 7.38743,-5.47221 19.48166,-0.53651 22.2602,9.08447 l 0.6498,2.25 h -15.06739 c -11.99415,0 -15.06739,-0.27579 -15.06739,-1.35212 z m 127.74768,36.48084 c 6.27878,-3.20319 8.75235,-7.38742 8.75235,-14.80539 0,-10.06197 -3.93245,-13.61692 -21.50003,-19.43626 -10.87892,-3.60369 -13,-5.07523 -13,-9.019 0,-4.20329 3.70942,-6.24654 10.20687,-5.62221 4.20279,0.40383 5.70185,1.08757 7.98374,3.64144 1.54516,1.72934 2.80939,3.81215 2.80939,4.62848 0,1.14738 1.36168,1.48422 6,1.48422 5.7645,0 6,-0.10008 6,-2.54966 0,-5.45199 -4.984,-12.29545 -11.5,-15.79049 -3.23763,-1.73659 -5.71534,-2.14688 -13,-2.15268 -7.73982,-0.006 -9.602,0.33755 -13.29941,2.45474 -5.84671,3.34792 -8.4863,7.86807 -8.4863,14.53228 0,9.10206 4.72259,13.30245 20.78571,18.48733 10.00659,3.22995 13.23184,4.88503 13.80724,7.08538 1.32191,5.05499 -2.92807,8.9331 -9.7897,8.9331 -5.68138,0 -10.2779,-2.42962 -12.19257,-6.44472 -1.67722,-3.51718 -1.7628,-3.55528 -7.98518,-3.55528 h -6.28979 l 0.61782,3.25 c 1.70184,8.95245 7.4997,14.22701 18.83218,17.13244 4.52599,1.16037 17.18813,-0.18269 21.24768,-2.25372 z m -252.04473,0.68596 c 1.53838,-0.65192 4.42696,-2.71201 6.41907,-4.57798 l 3.62202,-3.39266 0.64247,2.55979 c 0.85574,3.40957 5.3741,5.59617 11.56383,5.59617 h 5.04966 v -4.93358 c 0,-4.63871 -0.16436,-4.95249 -2.75,-5.25 l -2.75,-0.31642 -0.5,-18 c -0.53194,-19.14997 -1.09196,-21.52769 -6.15499,-26.13303 -5.19838,-4.72845 -8.85915,-5.86722 -18.84501,-5.86217 -8.37957,0.004 -10.10382,0.32278 -14.61974,2.70084 -5.15894,2.71668 -9.92598,7.43872 -11.3451,11.23799 -2.581,6.90988 -2.83089,6.55857 4.64745,6.53366 6.63447,-0.0221 6.85876,-0.10672 8.35943,-3.15384 3.99086,-8.10353 19.60382,-9.27654 23.48834,-1.76469 3.39117,6.55779 1.15125,8.28106 -13.53038,10.40956 -18.55434,2.68996 -24.95025,6.88661 -25.78203,16.91676 -0.96552,11.64291 7.24862,18.61492 21.93132,18.61492 4.26613,0 9.01528,-0.53339 10.55366,-1.18532 z m -14.37421,-10.27244 c -5.76035,-2.50571 -6.85872,-8.87013 -2.06286,-11.95315 1.22876,-0.78992 6.19832,-2.11134 11.04344,-2.93651 4.84513,-0.82517 9.96303,-2.25623 11.3731,-3.18015 l 2.56378,-1.67985 -0.41939,6.58636 c -0.35628,5.59525 -0.8553,7.04136 -3.31625,9.61004 -4.58652,4.78729 -12.83312,6.3149 -19.18182,3.55326 z m -250.92876,1.8578 c 1.98001,-4.72998 3.60002,-9.00498 3.60002,-9.5 0,-0.49879 7.73195,-0.90004 17.34334,-0.90004 h 17.34333 l 3.83933,9.5 3.83933,9.5 h 6.92433 c 6.16918,0 6.85525,-0.19085 6.29101,-1.75 -0.34831,-0.9625 -7.47098,-18.5125 -15.82815,-39 l -15.19484,-37.25 -7.02884,0.0204 -7.02884,0.0204 -15.5,38.09208 c -8.525,20.95064 -15.65,38.49146 -15.83333,38.9796 -0.18334,0.48813 2.80916,0.88752 6.64998,0.88752 h 6.98332 z m 10.01586,-24.15004 c 3.4671,-9.63365 11.11784,-27.09082 11.61442,-26.50134 0.88792,1.05403 10.96974,26.14749 10.96974,27.30349 0,0.54269 -4.96139,0.94785 -11.60699,0.94785 -10.62754,0 -11.55384,-0.14767 -10.97717,-1.75 z m 70.58416,-6.25 v -39 h -7 -7 v 39 39 h 7 7 z m 129.18816,20.56988 c 0.28599,-16.90262 0.48626,-18.66383 2.41637,-21.25 3.06312,-4.10431 7.55626,-6.37777 13.89826,-7.03232 l 5.58515,-0.57644 -0.29397,-6.10556 -0.29397,-6.10556 -5.216,0.13505 c -6.07429,0.15727 -13.07115,3.7302 -15.23965,7.78209 -1.795,3.35398 -3.04086,3.28588 -3.058,-0.16714 -0.032,-6.43271 -0.7763,-7.25 -6.60298,-7.25 h -5.38337 v 29.5 29.5 h 6.93816 6.93816 z m 106.81184,-5.56988 v -24 h 13.92058 13.92058 l 0.32942,18.25 c 0.29123,16.13402 0.56396,18.6558 2.3523,21.75 3.04902,5.27544 9.24365,8 18.18901,8 h 7.28811 v -5.5 -5.5 h -5 c -3.66667,0 -5.53333,-0.53333 -7,-2 -1.83838,-1.83838 -2,-3.33333 -2,-18.5 v -16.5 h 7.5 7.5 v -5.5 -5.5 h -7.46502 -7.46501 l -0.28499,-10.25 -0.28498,-10.25 h -6.5 -6.5 l -0.28498,10.25 -0.28499,10.25 h -13.96501 -13.96502 v -2.5 c 0,-4.72486 3.14063,-6.5 11.5,-6.5 h 7.5 v -5.5 -5.5 h -9.68428 c -7.80205,0 -10.52957,0.4092 -14.03344,2.1054 -5.13487,2.48574 -8.28228,7.7508 -8.28228,13.85476 v 4.03984 h -5.5 -5.5 v 5.5 5.5 h 5.5 5.5 v 24 24 h 6.5 6.5 z m 137,7.21189 c 0,-15.43835 0.1809,-17.14219 2.25,-21.19206 2.64988,-5.18663 7.57615,-8.10454 14.86529,-8.80493 l 4.88471,-0.46936 v -6.37277 -6.37277 l -3.25,0.006 c -6.08733,0.0104 -11.14589,2.12715 -15.50787,6.48913 -4.61046,4.61046 -4.66955,4.58347 -5.46218,-2.49471 -0.25402,-2.26841 -0.76629,-2.528 -5.52995,-2.80226 l -5.25,-0.30228 v 29.55226 29.55226 h 6.5 6.5 z"
       id="path359"
       sodipodi:nodetypes="sscsssssssscsssssssssscccsssssssscsssssssssssssssssssscssssscsscsscsscssssssssssssscsssssscccssscccssscsssssscccccccccssscccsssscccccsccccssscccssscccccccccccccccsscccsssccccccccccccsssccccssscccccs" /><g
       id="g2206"><path
         style="color:#000000;fill:#1E293B;stroke-linejoin:round;-inkscape-stroke:none"
         d="m 439.17187,-289.78125 -22.54296,8.23633 c 3.55138,9.71936 2.88442,20.46247 -1.8418,29.66797 -4.72622,9.20549 -13.06727,16.00872 -23.03516,18.78711 l 6.44336,23.11914 c 16.40304,-4.57209 30.164,-15.79491 37.94141,-30.94336 7.77741,-15.14845 8.87927,-32.87313 3.03515,-48.86719 z"
         id="path1179" /><path
         style="color:#000000;fill:#1E293B;stroke-linejoin:round;-inkscape-stroke:none"
         d="m -44.251953,-471.08008 -22.541016,8.23633 c 3.551384,9.71936 2.884423,20.46247 -1.841797,29.66797 -4.726219,9.20549 -13.069219,16.01067 -23.037109,18.78906 l 6.445313,23.11719 c 16.40304,-4.57209 30.163995,-15.79491 37.941406,-30.94336 7.777411,-15.14845 8.877317,-32.87313 3.033203,-48.86719 z"
         id="path1907"
         transform="rotate(72)" /><path
         style="color:#000000;fill:#1E293B;stroke-linejoin:round;-inkscape-stroke:none"
         d="m -363.69141,-68.785156 -22.54296,8.238281 c 3.55138,9.719359 2.88442,20.462475 -1.8418,29.667969 -4.72622,9.205494 -13.06727,16.00872 -23.03516,18.787109 l 6.44336,23.119141 c 16.40304,-4.5720848 30.16595,-15.7968617 37.94336,-30.945313 7.77741,-15.148451 8.87732,-32.873125 3.0332,-48.867187 z"
         id="path1909"
         transform="rotate(144)" /><path
         style="color:#000000;fill:#1E293B;stroke-linejoin:round;-inkscape-stroke:none"
         d="m -81.074219,361.68164 -22.542971,8.23828 c 3.55139,9.71936 2.88443,20.46248 -1.84179,29.66797 -4.72622,9.20549 -13.06727,16.00872 -23.03516,18.78711 l 6.44336,23.11914 c 16.40304,-4.57208 30.165947,-15.79686 37.943358,-30.94531 7.777411,-15.14845 8.877318,-32.87313 3.033203,-48.86719 z"
         id="path1911"
         transform="rotate(-144)" /><path
         style="color:#000000;fill:#1E293B;stroke-linejoin:round;-inkscape-stroke:none"
         d="m 416.38086,223.06055 -22.54297,8.23632 c 3.55138,9.71936 2.88442,20.46248 -1.8418,29.66797 -4.72622,9.2055 -13.06922,16.00872 -23.03711,18.78711 l 6.44532,23.11914 c 16.40304,-4.57208 30.16399,-15.7949 37.9414,-30.94336 7.77741,-15.14845 8.87927,-32.87312 3.03516,-48.86718 z"
         id="path1913"
         transform="rotate(-72)" /></g></g></svg>
