<svg xmlns="http://www.w3.org/2000/svg" xmlns:xlink="http://www.w3.org/1999/xlink" width="1366" zoomAndPan="magnify" viewBox="0 0 1024.5 576" height="768" preserveAspectRatio="xMidYMid meet" version="1.0"><defs><filter x="0%" y="0%" width="100%" height="100%" id="58d3de0638"><feColorMatrix values="0 0 0 0 1 0 0 0 0 1 0 0 0 0 1 0 0 0 1 0" color-interpolation-filters="sRGB"/></filter><mask id="a204533244"><g filter="url(#58d3de0638)"><rect x="-102.45" width="1229.4" fill="#000000" y="-57.6" height="691.2" fill-opacity="0.21"/></g></mask><clipPath id="c00d42a169"><path d="M 9.160156 9.160156 L 564.636719 9.160156 L 564.636719 564.636719 L 9.160156 564.636719 Z M 9.160156 9.160156 " clip-rule="nonzero"/></clipPath><clipPath id="2c4bff28ed"><path d="M 287 9.160156 C 133.550781 9.160156 9.160156 133.550781 9.160156 287 C 9.160156 440.445312 133.550781 564.835938 287 564.835938 C 440.445312 564.835938 564.835938 440.445312 564.835938 287 C 564.835938 133.550781 440.445312 9.160156 287 9.160156 Z M 287 9.160156 " clip-rule="nonzero"/></clipPath><clipPath id="0b11bcd7aa"><rect x="0" width="574" y="0" height="574"/></clipPath><mask id="bbdb9e2123"><g filter="url(#58d3de0638)"><rect x="-102.45" width="1229.4" fill="#000000" y="-57.6" height="691.2" fill-opacity="0.21"/></g></mask><clipPath id="d7dfe13b24"><path d="M 6.082031 6.082031 L 355.914062 6.082031 L 355.914062 355.914062 L 6.082031 355.914062 Z M 6.082031 6.082031 " clip-rule="nonzero"/></clipPath><clipPath id="93f96ea540"><path d="M 181 6.082031 C 84.394531 6.082031 6.082031 84.394531 6.082031 180.996094 C 6.082031 277.601562 84.394531 355.914062 181 355.914062 C 277.601562 355.914062 355.914062 277.601562 355.914062 180.996094 C 355.914062 84.394531 277.601562 6.082031 181 6.082031 Z M 181 6.082031 " clip-rule="nonzero"/></clipPath><clipPath id="9ac30ce009"><rect x="0" width="362" y="0" height="362"/></clipPath><mask id="884ffed648"><g filter="url(#58d3de0638)"><rect x="-102.45" width="1229.4" fill="#000000" y="-57.6" height="691.2" fill-opacity="0.21"/></g></mask><clipPath id="ebece101ae"><path d="M 5.992188 5.992188 L 191.902344 5.992188 L 191.902344 191.902344 L 5.992188 191.902344 Z M 5.992188 5.992188 " clip-rule="nonzero"/></clipPath><clipPath id="658e420715"><path d="M 98.996094 5.992188 C 47.632812 5.992188 5.992188 47.632812 5.992188 98.996094 C 5.992188 150.359375 47.632812 191.996094 98.996094 191.996094 C 150.359375 191.996094 191.996094 150.359375 191.996094 98.996094 C 191.996094 47.632812 150.359375 5.992188 98.996094 5.992188 Z M 98.996094 5.992188 " clip-rule="nonzero"/></clipPath><clipPath id="c982ac9e49"><rect x="0" width="198" y="0" height="198"/></clipPath></defs><g mask="url(#a204533244)"><g transform="matrix(1, 0, 0, 1, 225, 1)"><g clip-path="url(#0b11bcd7aa)"><g clip-path="url(#c00d42a169)"><g clip-path="url(#2c4bff28ed)"><path stroke-linecap="butt" transform="matrix(0.749634, 0, 0, 0.749634, 9.159563, 9.159473)" fill="none" stroke-linejoin="miter" d="M 370.634729 0.000911375 C 165.935909 0.000911375 0.000791659 165.936029 0.000791659 370.634849 C 0.000791659 575.328458 165.935909 741.263575 370.634729 741.263575 C 575.328338 741.263575 741.263456 575.328458 741.263456 370.634849 C 741.263456 165.936029 575.328338 0.000911375 370.634729 0.000911375 Z M 370.634729 0.000911375 " stroke="#000000" stroke-width="2" stroke-opacity="1" stroke-miterlimit="4"/></g></g></g></g></g><g mask="url(#bbdb9e2123)"><g transform="matrix(1, 0, 0, 1, 331, 107)"><g clip-path="url(#9ac30ce009)"><g clip-path="url(#d7dfe13b24)"><g clip-path="url(#93f96ea540)"><path stroke-linecap="butt" transform="matrix(0.749634, 0, 0, 0.749634, 6.081501, 6.081416)" fill="none" stroke-linejoin="miter" d="M 233.338484 0.000821009 C 104.468332 0.000821009 0.000707373 104.468445 0.000707373 233.333387 C 0.000707373 362.203539 104.468332 466.671163 233.338484 466.671163 C 362.203425 466.671163 466.671049 362.203539 466.671049 233.333387 C 466.671049 104.468445 362.203425 0.000821009 233.338484 0.000821009 Z M 233.338484 0.000821009 " stroke="#000000" stroke-width="2" stroke-opacity="1" stroke-miterlimit="4"/></g></g></g></g></g><g mask="url(#884ffed648)"><g transform="matrix(1, 0, 0, 1, 413, 189)"><g clip-path="url(#c982ac9e49)"><g clip-path="url(#ebece101ae)"><g clip-path="url(#658e420715)"><path stroke-linecap="butt" transform="matrix(0.749634, 0, 0, 0.749634, 5.993552, 5.993445)" fill="none" stroke-linejoin="miter" d="M 124.063913 -0.00167747 C 55.546112 -0.00167747 -0.00182055 55.546255 -0.00182055 124.064056 C -0.00182055 192.581857 55.546112 248.124578 124.063913 248.124578 C 192.581714 248.124578 248.124435 192.581857 248.124435 124.064056 C 248.124435 55.546255 192.581714 -0.00167747 124.063913 -0.00167747 Z M 124.063913 -0.00167747 " stroke="#000000" stroke-width="2" stroke-opacity="1" stroke-miterlimit="4"/></g></g></g></g></g></svg>