<?xml version="1.0" standalone="no"?>
<!DOCTYPE svg PUBLIC "-//W3C//DTD SVG 20010904//EN"
 "http://www.w3.org/TR/2001/REC-SVG-20010904/DTD/svg10.dtd">
<svg version="1.0" xmlns="http://www.w3.org/2000/svg"
 width="309.000000pt" height="87.000000pt" viewBox="0 0 309.000000 87.000000"
 preserveAspectRatio="xMidYMid meet">

<g transform="translate(0.000000,87.000000) scale(0.100000,-0.100000)"
fill="#000000" stroke="none">
<path d="M477 766 c-12 -12 -36 -157 -36 -216 0 -14 -9 -90 -30 -260 -7 -51
-9 -56 -10 -25 0 23 -8 95 -16 160 -9 66 -20 158 -25 205 -17 148 -14 141 -73
138 l-51 -3 -12 -65 c-7 -36 -17 -123 -24 -195 -15 -174 -21 -229 -25 -233 -4
-5 -25 121 -25 154 0 16 -7 81 -15 144 -9 63 -18 134 -21 158 l-5 42 -55 0
c-48 0 -54 -2 -54 -20 0 -40 31 -304 37 -313 3 -6 7 -28 9 -49 6 -65 34 -282
39 -295 5 -15 122 -18 143 -5 15 10 17 21 32 172 12 111 28 176 30 120 1 -14
9 -86 18 -160 l17 -135 65 -3 c36 -1 71 2 78 6 13 9 28 102 57 347 9 77 20
167 26 201 14 90 12 131 -7 138 -26 10 -52 7 -67 -8z m-397 -209 c0 -33 -23
-13 -26 23 -3 33 -3 34 11 16 8 -11 15 -28 15 -39z m195 7 c-8 -16 -15 -23
-15 -16 0 17 20 55 26 49 2 -2 -2 -17 -11 -33z m-179 -61 c-10 -10 -19 5 -10
18 6 11 8 11 12 0 2 -7 1 -15 -2 -18z m-6 -17 c0 -3 -4 -8 -10 -11 -5 -3 -10
-1 -10 4 0 6 5 11 10 11 6 0 10 -2 10 -4z m260 -52 c0 -8 -5 -12 -10 -9 -6 4
-8 11 -5 16 9 14 15 11 15 -7z m-4 -46 c10 -16 11 -58 2 -64 -4 -3 -9 3 -10
13 -2 33 -3 38 -11 51 -5 6 -4 12 2 12 5 0 13 -5 17 -12z"/>
<path d="M720 771 c-55 -17 -88 -41 -99 -73 -7 -21 -11 -117 -11 -272 1 -309
7 -324 131 -345 100 -17 120 -14 161 19 58 48 63 75 63 345 0 222 -2 243 -20
274 -12 21 -34 39 -55 47 -39 14 -131 16 -170 5z m106 -101 l29 -10 3 -208 c3
-248 -2 -276 -44 -280 -50 -5 -81 12 -88 50 -6 32 -7 221 -2 362 3 91 28 112
102 86z m-163 -21 c-5 -19 -3 -20 18 -14 23 7 23 7 7 -12 -10 -11 -18 -29 -18
-41 0 -11 -4 -23 -9 -26 -7 -5 -9 99 -2 112 5 10 8 -2 4 -19z m12 -169 c-3 -5
-11 -10 -16 -10 -6 0 -7 5 -4 10 3 6 11 10 16 10 6 0 7 -4 4 -10z m242 -65
c-1 -20 -6 -35 -13 -35 -11 0 -11 18 2 58 7 23 12 12 11 -23z"/>
<path d="M1057 768 c-15 -12 -16 -45 -14 -348 l2 -335 48 -3 c71 -5 77 4 77
118 0 98 4 110 40 110 10 0 60 -150 60 -180 0 -42 10 -50 66 -50 38 0 56 4 60
14 7 19 -12 113 -42 200 l-23 68 21 28 c51 69 60 275 14 326 -44 48 -93 64
-196 64 -61 0 -102 -5 -113 -12z m198 -102 c16 -12 20 -29 23 -93 4 -97 -7
-129 -53 -148 -64 -27 -63 -29 -64 120 l-2 135 39 0 c21 0 47 -6 57 -14z m105
-108 c0 -5 -8 -8 -19 -8 -14 0 -17 6 -13 25 4 24 5 24 18 8 7 -10 14 -21 14
-25z m-255 -88 c3 -5 1 -10 -4 -10 -6 0 -11 5 -11 10 0 6 2 10 4 10 3 0 8 -4
11 -10z m19 -51 c-8 -13 25 -49 45 -49 11 0 12 -3 4 -11 -15 -15 -53 -2 -46
17 3 9 -2 14 -15 14 -18 0 -19 3 -9 24 7 13 15 22 19 19 5 -2 6 -9 2 -14z m13
-98 c0 -20 -1 -21 -9 -8 -5 10 -16 17 -23 17 -8 0 -15 4 -15 9 0 5 11 8 24 7
18 -1 23 -7 23 -25z m200 -163 c-3 -8 -6 -5 -6 6 -1 11 2 17 5 13 3 -3 4 -12
1 -19z"/>
<path d="M1520 758 c-25 -13 -51 -34 -57 -48 -9 -18 -12 -94 -10 -285 2 -308
4 -314 89 -340 28 -8 77 -15 108 -15 50 0 61 -4 97 -35 46 -40 71 -43 104 -16
l23 18 -43 54 c-41 52 -42 54 -34 104 11 67 5 482 -8 521 -14 44 -62 64 -152
64 -56 0 -83 -5 -117 -22z m159 -91 c13 -17 23 -334 13 -427 -8 -74 -17 -80
-92 -60 l-42 11 3 222 c2 255 6 267 68 267 21 0 44 -6 50 -13z m-149 -5 c0
-12 -28 -48 -33 -42 -8 8 11 50 23 50 5 0 10 -4 10 -8z m224 -332 c3 -14 3
-19 0 -12 -3 6 -9 10 -14 7 -4 -3 -7 6 -6 20 1 28 11 21 20 -15z m10 -56 c7
-19 -13 -49 -25 -37 -10 10 0 53 11 53 4 0 11 -7 14 -16z"/>
<path d="M1920 772 c-14 -2 -28 -7 -33 -11 -7 -7 -12 -670 -4 -677 9 -10 207
-5 252 6 86 22 115 63 115 165 0 77 -9 99 -51 120 l-29 16 25 33 c32 43 60
169 50 231 -9 64 -59 115 -111 116 -22 0 -73 1 -114 2 -41 2 -86 1 -100 -1z
m177 -114 c31 -26 43 -72 33 -131 -13 -82 -26 -97 -82 -97 l-48 0 0 118 c0 65
3 122 8 126 10 11 70 0 89 -16z m103 -50 c0 -39 -1 -40 -14 -22 -8 10 -11 23
-6 28 5 5 6 15 3 22 -3 8 0 14 6 14 6 0 11 -18 11 -42z m-14 -76 c-18 -18 -31
-10 -23 12 4 10 13 13 22 9 15 -5 15 -7 1 -21z m-232 -28 c5 -14 4 -15 -9 -4
-17 14 -19 20 -6 20 5 0 12 -7 15 -16z m9 -100 c4 -23 1 -33 -15 -43 -19 -12
-20 -11 -13 16 5 15 8 42 7 58 -1 36 12 16 21 -31z m187 36 c0 -5 -5 -10 -11
-10 -5 0 -7 5 -4 10 3 6 8 10 11 10 2 0 4 -4 4 -10z m-140 -70 c0 -5 -5 -10
-11 -10 -5 0 -7 5 -4 10 3 6 8 10 11 10 2 0 4 -4 4 -10z m67 -50 c52 -19 71
-96 31 -124 -12 -9 -41 -16 -64 -16 l-42 0 -4 75 c-3 75 -3 75 23 75 14 0 40
-5 56 -10z m103 -140 c0 -5 -4 -10 -10 -10 -5 0 -10 5 -10 10 0 6 5 10 10 10
6 0 10 -4 10 -10z"/>
<path d="M2415 771 c-41 -10 -66 -25 -90 -51 -19 -21 -20 -38 -22 -273 -3
-343 4 -357 179 -373 74 -6 75 -6 111 26 59 51 67 96 66 349 -1 235 -7 271
-53 305 -29 22 -135 32 -191 17z m109 -100 l25 -10 1 -213 c0 -117 -2 -228 -6
-245 -7 -35 -20 -39 -83 -27 -46 9 -55 54 -47 239 3 83 6 169 6 192 0 65 38
88 104 64z m-166 -18 c-2 -13 3 -17 16 -15 17 3 17 2 2 -20 -9 -12 -16 -30
-16 -40 0 -10 -4 -18 -9 -18 -6 0 -6 12 -1 30 5 18 5 30 -1 30 -10 0 -12 33
-2 43 11 11 14 8 11 -10z m22 -117 c0 -3 -4 -8 -10 -11 -5 -3 -10 -1 -10 4 0
6 5 11 10 11 6 0 10 -2 10 -4z m-10 -56 c0 -5 -7 -10 -16 -10 -8 0 -12 5 -9
10 3 6 10 10 16 10 5 0 9 -4 9 -10z m238 -65 c0 -19 -4 -38 -9 -41 -10 -6 -12
36 -3 60 9 24 12 20 12 -19z"/>
<path d="M2690 770 c-13 -8 -13 -13 3 -41 9 -17 17 -39 17 -49 0 -10 20 -71
44 -136 29 -77 42 -123 36 -133 -12 -24 -120 -313 -120 -322 0 -5 24 -9 54 -9
l55 0 25 83 c14 46 35 106 47 133 l22 49 19 -45 c11 -25 26 -73 34 -108 25
-110 28 -112 101 -112 34 0 63 4 63 9 0 11 -85 243 -113 310 -14 32 -13 39 11
100 14 36 37 100 52 141 15 41 33 87 39 103 l11 27 -58 0 -58 0 -42 -107 c-24
-60 -43 -119 -43 -133 0 -14 -19 33 -44 104 -24 71 -49 133 -57 137 -18 12
-80 11 -98 -1z m70 -40 c0 -5 -2 -10 -4 -10 -3 0 -8 5 -11 10 -3 6 -1 10 4 10
6 0 11 -4 11 -10z m91 -233 c-13 -13 -26 -3 -16 12 3 6 11 8 17 5 6 -4 6 -10
-1 -17z m59 -27 c0 -5 -2 -10 -4 -10 -3 0 -8 5 -11 10 -3 6 -1 10 4 10 6 0 11
-4 11 -10z m-45 -21 c-6 -18 -4 -20 17 -14 12 4 28 11 34 16 8 7 10 1 6 -18
-3 -16 -7 -22 -9 -15 -5 14 -33 16 -33 2 0 -5 -12 -10 -26 -10 l-25 0 18 30
c20 35 27 38 18 9z m45 -59 c0 -5 -2 -10 -4 -10 -3 0 -8 5 -11 10 -3 6 -1 10
4 10 6 0 11 -4 11 -10z m114 -241 c-4 -6 -44 -1 -44 6 0 2 3 10 6 18 5 14 8
14 24 -1 11 -8 17 -19 14 -23z"/>
</g>
</svg>
