<?xml version="1.0" encoding="UTF-8" standalone="no"?>
<!-- Created with Inkscape (http://www.inkscape.org/) -->

<svg
   version="1.1"
   id="svg2"
   width="160"
   height="47.68"
   viewBox="0 0 160 47.68"
   sodipodi:docname="allisone-vectorized-white.svg"
   inkscape:version="1.2.2 (b0a8486541, 2022-12-01)"
   xmlns:inkscape="http://www.inkscape.org/namespaces/inkscape"
   xmlns:sodipodi="http://sodipodi.sourceforge.net/DTD/sodipodi-0.dtd"
   xmlns="http://www.w3.org/2000/svg"
   xmlns:svg="http://www.w3.org/2000/svg">
  <defs
     id="defs6">
    <clipPath
       clipPathUnits="userSpaceOnUse"
       id="clipPath452">
      <rect
         style="fill:#1E293B;stroke-width:24;stroke-linejoin:round"
         id="rect454"
         width="49.405628"
         height="57.74894"
         x="-0.79485673"
         y="-6.7045717" />
    </clipPath>
  </defs>
  <sodipodi:namedview
     id="namedview4"
     pagecolor="#ffffff"
     bordercolor="#000000"
     borderopacity="0.25"
     inkscape:showpageshadow="2"
     inkscape:pageopacity="0.0"
     inkscape:pagecheckerboard="0"
     inkscape:deskcolor="#d1d1d1"
     showgrid="false"
     inkscape:zoom="3.4999413"
     inkscape:cx="-24.286122"
     inkscape:cy="58.000973"
     inkscape:window-width="1916"
     inkscape:window-height="1157"
     inkscape:window-x="0"
     inkscape:window-y="41"
     inkscape:window-maximized="1"
     inkscape:current-layer="g8" />
  <g
     inkscape:groupmode="layer"
     inkscape:label="Image"
     id="g8">
    <path
       style="fill:#1E293B;stroke-width:0.32"
       d="M 17.92,43.925376 C 12.757329,41.275085 8.0902147,38.163469 6.3955254,36.241885 4.5246122,34.120483 3.6697309,32.281168 2.5839021,28.041018 2.0676804,26.025176 1.4001713,23.901792 1.1005487,23.322385 0.37697139,21.923141 0.13496193,18.660802 0.63793802,17.086294 1.3851196,14.74733 4.9161114,9.2224067 7.2452374,6.7478893 9.9172726,3.909057 12.151754,2.4708984 15.04,1.7310188 c 1.846348,-0.4729775 2.484222,-0.4864764 5.67844,-0.1201686 2.892526,0.3317102 4.122382,0.3347136 6.269268,0.01531 5.31891,-0.79132257 8.769678,0.5685967 13.608046,5.36282 2.479584,2.4569616 3.384838,3.6161508 4.413091,5.6510198 2.654819,5.253776 2.831699,7.072153 1.10696,11.379992 -0.524087,1.309004 -1.163127,3.686368 -1.420083,5.283029 -0.773645,4.807219 -2.234816,6.954989 -7.273031,10.690598 -2.813139,2.085815 -8.314638,5.297549 -9.582691,5.594304 -0.44,0.102973 -1.952,0.233043 -3.36,0.28905 l -2.56,0.10183 z m 0.145302,-0.992275 C 12.12598,39.858403 10.889428,39.015795 8.3804493,36.333693 6.9479389,34.802333 5.9552938,33.303264 4.8128586,30.945996 3.0903885,27.391904 2.8501897,27.280032 3.8429674,30.494271 c 1.2815849,4.149291 3.9245004,7.039255 9.2549956,10.120116 3.216447,1.859005 9.019541,4.82649 9.422694,4.818413 0.197638,-0.004 -1.807271,-1.128826 -4.455355,-2.499699 z m 11.986753,0.06287 C 40.878778,37.286794 43.5,34.360426 44.326013,27.060335 44.444234,26.015519 44.959245,23.801809 45.47048,22.140979 45.981715,20.480148 46.4,18.655268 46.4,18.08569 46.4,16.068923 41.836237,8.8375117 38.828758,6.088848 34.971229,2.5632811 30.26871,1.4356148 25.270276,2.8375162 23.796256,3.2509318 21.516798,3.5670074 19.323755,3.6620765 15.161844,3.8424966 12.964231,4.5297194 10.617637,6.3845952 8.0512042,8.4132442 3.8186499,14.192379 2.0167363,18.128277 0.81412166,20.755133 1.0542061,21.854969 4.2764266,28.48 8.3087984,36.770739 9.3596688,37.80737 18.444241,42.455837 22.204079,44.379699 23.980594,45.12 24.837486,45.12 c 0.845092,0 2.345945,-0.611334 5.214569,-2.124029 z m -0.753217,1.306375 C 29.884536,43.833107 29.874326,43.826445 29.12,44.185693 28.14047,44.652192 27.958932,44.8 28.365505,44.8 28.5372,44.8 28.9572,44.576058 29.298838,44.302346 Z M 46.681222,20.8 c -0.0054,-0.264 -0.204003,0.024 -0.441222,0.64 -0.562637,1.461024 -0.554333,2.035859 0.01155,0.8 0.24177,-0.528 0.435117,-1.176 0.429667,-1.44 z M 5.0046877,11.923386 C 6.9127574,9.2458243 9.7228016,6.2464221 11.412228,5.0840662 13.957781,3.3326797 15.310102,3.0511627 22.08,2.8633223 23.754891,2.8168501 23.785839,2.80119 22.72,2.5394815 20.096287,1.8952494 16.804235,1.8271438 14.862286,2.3769219 12.312388,3.0988146 8.9070195,5.4530848 6.9117882,7.8734253 4.7421872,10.505288 1.3393685,16.199415 1.0991738,17.6 0.93891706,18.534463 1.1286467,18.322421 2.2444848,16.32 2.9800474,15 4.2221386,13.021524 5.0046877,11.923386 Z"
       id="path456"
       sodipodi:nodetypes="sssssssssssssssscsssssscscssssssssssscssssssssssssssssss" />
    <g
       aria-label="allisone"
       id="text347"
       style="font-weight:bold;font-size:29.5772px;line-height:1;font-family:'Nexa Bold';-inkscape-font-specification:'Nexa Bold,  Bold';stroke-width:44.3657;stroke-linejoin:round;fill:#1E293B;fill-opacity:1">
      <path
         d="m 65.244741,18.292628 c -0.828162,-1.449283 -2.691525,-2.366176 -4.643621,-2.366176 -4.259116,-0.02958 -7.60134,2.602794 -7.60134,7.630918 0,5.116855 3.194338,7.778803 7.512609,7.749226 1.626746,-0.02958 3.90419,-0.857739 4.732352,-2.573216 l 0.177463,2.129558 h 3.401378 V 16.281378 H 65.36305 Z m -4.318271,0.857739 c 5.678822,0 5.678822,8.843583 0,8.843583 -2.395754,0 -4.318272,-1.656324 -4.318272,-4.43658 0,-2.780257 1.922518,-4.407003 4.318272,-4.407003 z"
         id="path13"
         style="fill:#1E293B;fill-opacity:1" />
      <path
         d="m 71.870035,10.188475 v 20.674463 h 3.578841 V 10.188475 Z"
         id="path15"
         style="fill:#1E293B;fill-opacity:1" />
      <path
         d="m 78.613655,10.188475 v 20.674463 h 3.578841 V 10.188475 Z"
         id="path17"
         style="fill:#1E293B;fill-opacity:1" />
      <path
         d="M 88.965693,16.222224 V 30.862938 H 85.357275 V 16.222224 Z m -3.933767,-4.052076 c 0,2.809834 4.259116,2.809834 4.259116,0 0,-2.8098344 -4.259116,-2.8098344 -4.259116,0 z"
         id="path19"
         style="fill:#1E293B;fill-opacity:1" />
      <path
         d="m 103.75431,17.789816 c -1.6859,-1.47886 -3.40138,-1.922518 -5.678826,-1.922518 -2.661948,0 -6.152058,1.183088 -6.152058,4.554888 0,3.312647 3.283069,4.318272 6.033749,4.525312 2.070405,0.118309 2.898565,0.53239 2.898565,1.538014 0,1.06478 -1.271819,1.774632 -2.63237,1.745055 -1.626746,-0.02958 -3.992922,-0.887316 -5.028124,-2.040827 l -1.774632,2.573217 c 2.129558,2.21829 4.43658,2.602793 6.743601,2.602793 4.170385,0 6.270365,-2.21829 6.270365,-4.791506 0,-3.874613 -3.49011,-4.495734 -6.240788,-4.673198 -1.863363,-0.118308 -2.721102,-0.650698 -2.721102,-1.597168 0,-0.916894 0.94647,-1.449283 2.661948,-1.449283 1.390128,0 2.573212,0.325349 3.608422,1.301397 z"
         id="path21"
         style="fill:#1E293B;fill-opacity:1" />
      <path
         d="m 113.60349,15.985606 c -4.64362,0 -7.54219,3.430956 -7.54219,7.601341 0,4.199962 2.83941,7.60134 7.57177,7.60134 4.73235,0 7.60134,-3.401378 7.60134,-7.60134 0,-4.170385 -2.9873,-7.601341 -7.63092,-7.601341 z m 0.0296,3.28307 c 2.42533,0 3.96334,2.129558 3.96334,4.318271 0,2.21829 -1.33097,4.288694 -3.96334,4.288694 -2.63237,0 -3.96335,-2.070404 -3.96335,-4.288694 0,-2.188713 1.36055,-4.318271 3.96335,-4.318271 z"
         id="path23"
         style="fill:#1E293B;fill-opacity:1" />
      <path
         d="m 138.06382,30.862938 v -7.660495 c 0,-4.584466 -2.75068,-7.157682 -6.18164,-7.157682 -1.83379,0 -3.31265,0.73943 -4.79151,2.188713 l -0.23661,-1.981673 h -3.22392 v 14.611137 h 3.57884 v -7.453454 c 0,-2.21829 1.50844,-4.081654 3.72673,-4.081654 2.30702,0 3.51969,1.6859 3.51969,3.90419 v 7.630918 z"
         id="path25"
         style="fill:#1E293B;fill-opacity:1" />
      <path
         d="m 155.63268,24.858766 c 0.56197,-6.004171 -2.48449,-9.021046 -7.36472,-9.021046 -4.73236,0 -7.74923,3.194338 -7.74923,7.630918 0,4.673198 2.9873,7.778804 8.01542,7.778804 2.21829,0 4.73235,-0.769008 6.27037,-2.366176 l -2.30702,-2.277445 c -0.82817,0.857739 -2.57322,1.360551 -3.9042,1.360551 -2.54363,0 -4.11123,-1.301396 -4.34784,-3.105606 z m -11.32807,-2.987297 c 0.53239,-1.892941 2.12956,-2.839411 4.08165,-2.839411 2.07041,0 3.54927,0.94647 3.78589,2.839411 z"
         id="path27"
         style="fill:#1E293B;fill-opacity:1" />
    </g>
    <g
       aria-label="a"
       id="text394"
       style="font-weight:bold;font-size:29.5772px;line-height:1;font-family:'Nexa Bold';-inkscape-font-specification:'Nexa Bold,  Bold';stroke-width:44.3657;stroke-linejoin:round;fill:#1E293B;fill-opacity:1">
      <path
         d="m 28.351972,18.435488 c -0.828162,-1.449282 -2.691525,-2.366176 -4.643621,-2.366176 -4.259116,-0.02958 -7.60134,2.602794 -7.60134,7.630918 0,5.116856 3.194338,7.778804 7.512609,7.749226 1.626746,-0.02958 3.90419,-0.857738 4.732352,-2.573216 l 0.177463,2.129558 h 3.401378 V 16.424239 h -3.460532 z m -4.318271,0.857739 c 5.678822,0 5.678822,8.843583 0,8.843583 -2.395754,0 -4.318272,-1.656323 -4.318272,-4.43658 0,-2.780257 1.922518,-4.407003 4.318272,-4.407003 z"
         id="path30"
         style="fill:#1E293B;fill-opacity:1" />
    </g>
  </g>
</svg>
