<?xml version="1.0" encoding="UTF-8" standalone="no"?>
<svg
   width="223.61"
   height="44.755"
   viewBox="0 0 223.61 44.755"
   version="1.1"
   id="svg12"
   sodipodi:docname="barthener.svg"
   inkscape:version="1.2.2 (b0a8486541, 2022-12-01)"
   xmlns:inkscape="http://www.inkscape.org/namespaces/inkscape"
   xmlns:sodipodi="http://sodipodi.sourceforge.net/DTD/sodipodi-0.dtd"
   xmlns="http://www.w3.org/2000/svg"
   xmlns:svg="http://www.w3.org/2000/svg">
  <sodipodi:namedview
     id="namedview14"
     pagecolor="#ffffff"
     bordercolor="#000000"
     borderopacity="0.25"
     inkscape:showpageshadow="2"
     inkscape:pageopacity="0.0"
     inkscape:pagecheckerboard="0"
     inkscape:deskcolor="#d1d1d1"
     showgrid="false"
     inkscape:zoom="5.2731537"
     inkscape:cx="84.769006"
     inkscape:cy="22.377501"
     inkscape:window-width="1916"
     inkscape:window-height="1157"
     inkscape:window-x="0"
     inkscape:window-y="41"
     inkscape:window-maximized="1"
     inkscape:current-layer="svg12" />
  <defs
     id="defs4">
    <clipPath
       id="clip-path">
      <rect
         id="Rectangle_5"
         data-name="Rectangle 5"
         width="223.61"
         height="44.755"
         transform="translate(0 0)"
         fill="#1E293B" />
    </clipPath>
  </defs>
  <g
     id="Groupe_152"
     data-name="Groupe 152"
     transform="translate(54)"
     style="fill:#1E293B;fill-opacity:1">
    <g
       id="Groupe_1"
       data-name="Groupe 1"
       transform="translate(-54)"
       clip-path="url(#clip-path)"
       style="fill:#1E293B;fill-opacity:1">
      <path
         id="Tracé_1"
         style="fill:#1E293B;fill-opacity:1"
         d="m 146.69336,0 c -1.076,0 -10.88086,13.500851 -10.88086,20.339844 A 10.88,10.88 0 0 0 146.69336,31.21875 10.879,10.879 0 0 0 157.57227,20.339844 C 157.57227,13.330851 147.68236,0 146.69336,0 Z m -6.83594,17.207031 a 0.436,0.436 0 0 1 0.20313,0.0059 0.43,0.43 0 0 1 0.3789,0.585937 c -0.034,3.234997 0.79108,4.47144 2.58008,6.398438 a 8.283,8.283 0 0 0 4.91992,2.201172 c 0.512,-0.035 0.91488,0.722375 0.17188,0.859374 a 8.366,8.366 0 0 1 -7.63672,-2.300781 c -2.752,-2.751997 -0.96289,-7.292969 -0.96289,-7.292969 v -0.0039 a 0.436,0.436 0 0 1 0.3457,-0.453125 z" />
      <path
         id="Tracé_3"
         data-name="Tracé 3"
         d="m 5.014,28.087 a 13.626,13.626 0 0 0 3.267,-0.338 5.938,5.938 0 0 0 2.194,-0.987 3.829,3.829 0 0 0 1.235,-1.574 5.487,5.487 0 0 0 0.386,-2.125 4.609,4.609 0 0 0 -1.724,-3.774 0.65,0.65 0 0 1 -0.25,-0.312 0.409,0.409 0 0 1 0.1,-0.363 6.412,6.412 0 0 0 0.814,-1.462 4.838,4.838 0 0 0 0.311,-1.787 A 5.482,5.482 0 0 0 10.961,13.241 3.838,3.838 0 0 0 9.726,11.666 5.947,5.947 0 0 0 7.532,10.679 13.63,13.63 0 0 0 4.265,10.342 H 0.624 A 0.587,0.587 0 0 0 0.174,10.529 0.658,0.658 0 0 0 0,10.992 v 16.47 a 0.615,0.615 0 0 0 0.173,0.45 0.611,0.611 0 0 0 0.45,0.175 z M 5.008,20.414 a 10.841,10.841 0 0 1 2.545,0.238 3.967,3.967 0 0 1 1.429,0.616 1.665,1.665 0 0 1 0.627,0.854 3.413,3.413 0 0 1 0.138,0.954 3.5,3.5 0 0 1 -0.138,0.979 1.665,1.665 0 0 1 -0.627,0.854 3.823,3.823 0 0 1 -1.429,0.6 11.408,11.408 0 0 1 -2.545,0.225 H 2.85 A 0.424,0.424 0 0 1 2.488,25.546 0.759,0.759 0 0 1 2.35,25.081 V 20.966 A 0.56,0.56 0 0 1 2.499,20.577 0.492,0.492 0 0 1 2.876,20.414 Z M 4.255,12.741 a 11.273,11.273 0 0 1 2.522,0.225 3.851,3.851 0 0 1 1.431,0.6 1.74,1.74 0 0 1 0.638,0.85 3.1,3.1 0 0 1 0.154,0.949 3.385,3.385 0 0 1 -0.138,0.95 1.718,1.718 0 0 1 -0.6,0.85 3.653,3.653 0 0 1 -1.342,0.612 9.34,9.34 0 0 1 -2.358,0.237 H 2.876 A 0.51,0.51 0 0 1 2.35,17.49 v -4.124 a 0.713,0.713 0 0 1 0.138,-0.438 0.453,0.453 0 0 1 0.388,-0.187 z m 27.436,11.147 a 0.712,0.712 0 0 1 0.562,0.212 1.735,1.735 0 0 1 0.313,0.563 l 1.049,3 a 0.521,0.521 0 0 0 0.438,0.387 4.758,4.758 0 0 0 0.562,0.038 h 1.024 a 0.365,0.365 0 0 0 0.4,-0.263 0.775,0.775 0 0 0 -0.026,-0.512 L 30.19,10.713 A 0.5,0.5 0 0 0 29.953,10.45 0.745,0.745 0 0 0 29.565,10.338 h -1.424 a 0.752,0.752 0 0 0 -0.4,0.125 0.549,0.549 0 0 0 -0.25,0.275 l -5.823,16.57 a 0.672,0.672 0 0 0 0.013,0.525 0.376,0.376 0 0 0 0.362,0.25 h 1.024 a 4.758,4.758 0 0 0 0.562,-0.038 0.521,0.521 0 0 0 0.438,-0.387 l 1.125,-3.2 a 1.168,1.168 0 0 1 0.263,-0.413 0.588,0.588 0 0 1 0.437,-0.162 z m -0.451,-2.9 a 0.359,0.359 0 0 1 -0.075,0.337 0.41,0.41 0 0 1 -0.349,0.163 h -3.824 a 0.588,0.588 0 0 1 -0.413,-0.15 0.3,0.3 0 0 1 -0.087,-0.35 l 2,-5.774 a 0.4,0.4 0 0 1 0.337,-0.275 0.3,0.3 0 0 1 0.362,0.225 z m 18.6,2.124 q 0.728,0 1.429,-0.05 0.701,-0.05 1.354,-0.125 0.627,-0.075 0.778,0.2 l 2.2,4.574 a 1.064,1.064 0 0 0 0.226,0.25 0.743,0.743 0 0 0 0.476,0.125 h 1.4 q 0.426,0 0.474,-0.238 a 0.89,0.89 0 0 0 -0.075,-0.537 l -2.1,-4.324 a 1.077,1.077 0 0 1 -0.1,-0.75 1.814,1.814 0 0 1 0.5,-0.6 5.5,5.5 0 0 0 1.888,-1.95 5.864,5.864 0 0 0 0.686,-2.949 5.857,5.857 0 0 0 -0.724,-3.024 5.647,5.647 0 0 0 -1.952,-1.973 8.811,8.811 0 0 0 -2.9,-1.074 18.382,18.382 0 0 0 -3.535,-0.325 h -2.9 a 0.6,0.6 0 0 0 -0.45,0.175 0.639,0.639 0 0 0 -0.175,0.475 v 16.47 a 0.616,0.616 0 0 0 0.173,0.437 0.575,0.575 0 0 0 0.444,0.188 h 1.114 a 0.578,0.578 0 0 0 0.444,-0.188 0.621,0.621 0 0 0 0.174,-0.437 v -3.774 a 0.6,0.6 0 0 1 0.149,-0.4 0.456,0.456 0 0 1 0.351,-0.175 z m 0,-10.372 a 15.41,15.41 0 0 1 2.632,0.213 7.607,7.607 0 0 1 2.144,0.677 3.786,3.786 0 0 1 1.442,1.229 3.257,3.257 0 0 1 0.526,1.892 3.211,3.211 0 0 1 -0.526,1.868 3.884,3.884 0 0 1 -1.442,1.241 7.329,7.329 0 0 1 -2.144,0.69 15.41,15.41 0 0 1 -2.632,0.213 h -0.627 a 0.46,0.46 0 0 1 -0.388,-0.176 0.707,0.707 0 0 1 -0.138,-0.451 v -6.844 a 0.555,0.555 0 0 1 0.55,-0.551 z m 18.391,-0.65 a 0.654,0.654 0 0 0 0.174,0.463 0.589,0.589 0 0 0 0.451,0.187 h 3.974 a 0.431,0.431 0 0 1 0.349,0.2 0.693,0.693 0 0 1 0.151,0.425 v 14.1 a 0.619,0.619 0 0 0 0.172,0.437 0.582,0.582 0 0 0 0.446,0.188 H 75.06 A 0.582,0.582 0 0 0 75.5,27.9 0.625,0.625 0 0 0 75.673,27.463 V 13.291 a 0.567,0.567 0 0 1 0.149,-0.375 0.479,0.479 0 0 1 0.375,-0.175 h 3.95 a 0.6,0.6 0 0 0 0.437,-0.187 0.629,0.629 0 0 0 0.188,-0.463 v -1.1 a 0.629,0.629 0 0 0 -0.188,-0.463 0.6,0.6 0 0 0 -0.437,-0.187 h -11.3 a 0.589,0.589 0 0 0 -0.451,0.187 0.654,0.654 0 0 0 -0.174,0.463 z m 23.436,-1.749 a 0.6,0.6 0 0 0 -0.445,0.175 0.642,0.642 0 0 0 -0.172,0.475 v 16.47 a 0.619,0.619 0 0 0 0.172,0.437 0.58,0.58 0 0 0 0.445,0.188 h 1.113 a 0.582,0.582 0 0 0 0.445,-0.188 0.624,0.624 0 0 0 0.172,-0.437 v -6.1 a 0.6,0.6 0 0 1 0.627,-0.625 h 7.895 a 0.5,0.5 0 0 1 0.4,0.175 0.662,0.662 0 0 1 0.151,0.45 v 6.1 a 0.617,0.617 0 0 0 0.174,0.437 0.577,0.577 0 0 0 0.445,0.188 h 1.111 a 0.579,0.579 0 0 0 0.445,-0.188 0.625,0.625 0 0 0 0.173,-0.437 V 10.992 a 0.646,0.646 0 0 0 -0.173,-0.475 0.6,0.6 0 0 0 -0.445,-0.175 h -1.112 a 0.593,0.593 0 0 0 -0.445,0.176 0.641,0.641 0 0 0 -0.174,0.476 v 6.744 a 0.692,0.692 0 0 1 -0.162,0.464 0.5,0.5 0 0 1 -0.389,0.187 H 93.95 a 0.483,0.483 0 0 1 -0.4,-0.187 0.717,0.717 0 0 1 -0.152,-0.464 v -6.744 a 0.648,0.648 0 0 0 -0.172,-0.476 0.6,0.6 0 0 0 -0.445,-0.176 z m 25.068,0 a 0.6,0.6 0 0 0 -0.445,0.175 0.646,0.646 0 0 0 -0.172,0.475 v 16.47 a 0.624,0.624 0 0 0 0.172,0.437 0.58,0.58 0 0 0 0.445,0.188 h 10.028 a 0.629,0.629 0 0 0 0.439,-0.173 0.579,0.579 0 0 0 0.186,-0.446 v -1.111 a 0.576,0.576 0 0 0 -0.186,-0.445 0.626,0.626 0 0 0 -0.439,-0.174 h -7.771 a 0.518,0.518 0 0 1 -0.363,-0.15 0.525,0.525 0 0 1 -0.163,-0.4 v -3.896 a 0.557,0.557 0 0 1 0.151,-0.389 0.456,0.456 0 0 1 0.349,-0.163 h 7.8 a 0.629,0.629 0 0 0 0.439,-0.173 0.578,0.578 0 0 0 0.186,-0.445 v -1.113 a 0.576,0.576 0 0 0 -0.186,-0.445 0.626,0.626 0 0 0 -0.439,-0.174 h -7.8 a 0.425,0.425 0 0 1 -0.362,-0.188 0.762,0.762 0 0 1 -0.138,-0.464 v -4.368 a 0.741,0.741 0 0 1 0.138,-0.427 0.419,0.419 0 0 1 0.362,-0.2 h 7.8 a 0.6,0.6 0 0 0 0.439,-0.187 0.627,0.627 0 0 0 0.186,-0.463 v -1.1 a 0.627,0.627 0 0 0 -0.186,-0.463 0.6,0.6 0 0 0 -0.439,-0.187 z m 47.812,0 a 0.6,0.6 0 0 0 -0.447,0.175 0.646,0.646 0 0 0 -0.173,0.475 v 16.47 a 0.625,0.625 0 0 0 0.173,0.437 0.581,0.581 0 0 0 0.447,0.188 h 10.028 a 0.626,0.626 0 0 0 0.437,-0.173 0.581,0.581 0 0 0 0.188,-0.446 v -1.111 a 0.577,0.577 0 0 0 -0.188,-0.445 0.623,0.623 0 0 0 -0.437,-0.174 H 166.8 a 0.533,0.533 0 0 1 -0.525,-0.552 v -3.894 a 0.556,0.556 0 0 1 0.15,-0.389 0.46,0.46 0 0 1 0.35,-0.163 h 7.8 a 0.626,0.626 0 0 0 0.437,-0.173 0.58,0.58 0 0 0 0.188,-0.445 v -1.113 a 0.577,0.577 0 0 0 -0.188,-0.445 0.623,0.623 0 0 0 -0.437,-0.174 h -7.8 a 0.428,0.428 0 0 1 -0.363,-0.188 0.768,0.768 0 0 1 -0.137,-0.464 v -4.368 a 0.747,0.747 0 0 1 0.137,-0.427 0.422,0.422 0 0 1 0.363,-0.2 h 7.8 a 0.6,0.6 0 0 0 0.437,-0.187 0.629,0.629 0 0 0 0.188,-0.463 v -1.1 a 0.629,0.629 0 0 0 -0.188,-0.463 0.6,0.6 0 0 0 -0.437,-0.187 z m 33.414,0 a 0.6,0.6 0 0 0 -0.445,0.175 0.642,0.642 0 0 0 -0.173,0.475 v 11.072 a 1.033,1.033 0 0 1 -0.076,0.463 0.372,0.372 0 0 1 -0.162,0.175 0.2,0.2 0 0 1 -0.188,-0.025 0.647,0.647 0 0 1 -0.176,-0.163 l -7.946,-11.8 a 0.752,0.752 0 0 0 -0.593,-0.375 h -1.113 a 0.6,0.6 0 0 0 -0.445,0.175 0.642,0.642 0 0 0 -0.173,0.475 v 16.47 a 0.62,0.62 0 0 0 0.173,0.437 0.58,0.58 0 0 0 0.445,0.188 h 1.111 a 0.58,0.58 0 0 0 0.445,-0.188 0.625,0.625 0 0 0 0.173,-0.437 V 16.44 A 0.939,0.939 0 0 1 188.9,16 a 0.337,0.337 0 0 1 0.188,-0.175 0.309,0.309 0 0 1 0.212,0 0.3,0.3 0 0 1 0.151,0.112 l 7.971,11.847 a 0.737,0.737 0 0 0 0.667,0.3 h 0.989 a 0.579,0.579 0 0 0 0.445,-0.188 0.625,0.625 0 0 0 0.173,-0.437 V 10.992 a 0.646,0.646 0 0 0 -0.173,-0.475 0.6,0.6 0 0 0 -0.445,-0.175 z m 16.506,12.771 q 0.726,0 1.429,-0.05 0.703,-0.05 1.354,-0.125 0.627,-0.075 0.777,0.2 l 2.206,4.574 a 1.022,1.022 0 0 0 0.226,0.25 0.741,0.741 0 0 0 0.476,0.125 h 1.4 q 0.426,0 0.475,-0.238 a 0.9,0.9 0 0 0 -0.075,-0.537 l -2.1,-4.324 a 1.075,1.075 0 0 1 -0.1,-0.75 1.8,1.8 0 0 1 0.5,-0.6 5.5,5.5 0 0 0 1.887,-1.95 5.854,5.854 0 0 0 0.687,-2.949 5.847,5.847 0 0 0 -0.725,-3.024 5.639,5.639 0 0 0 -1.962,-1.975 8.805,8.805 0 0 0 -2.9,-1.074 18.385,18.385 0 0 0 -3.536,-0.325 h -2.9 a 0.606,0.606 0 0 0 -0.45,0.175 0.639,0.639 0 0 0 -0.175,0.475 v 16.47 a 0.62,0.62 0 0 0 0.173,0.437 0.579,0.579 0 0 0 0.445,0.188 h 1.113 a 0.58,0.58 0 0 0 0.445,-0.188 0.625,0.625 0 0 0 0.173,-0.437 v -3.772 a 0.6,0.6 0 0 1 0.15,-0.4 0.454,0.454 0 0 1 0.351,-0.175 z m 0,-10.372 a 15.422,15.422 0 0 1 2.633,0.213 7.607,7.607 0 0 1 2.144,0.677 3.782,3.782 0 0 1 1.441,1.229 3.257,3.257 0 0 1 0.527,1.892 3.212,3.212 0 0 1 -0.527,1.868 3.88,3.88 0 0 1 -1.441,1.241 7.329,7.329 0 0 1 -2.144,0.69 15.422,15.422 0 0 1 -2.633,0.213 h -0.627 a 0.463,0.463 0 0 1 -0.388,-0.176 0.707,0.707 0 0 1 -0.138,-0.451 v -6.844 a 0.557,0.557 0 0 1 0.551,-0.551 z"
         fill="#1E293B"
         style="fill:#1E293B;fill-opacity:1" />
      <path
         id="Tracé_4"
         data-name="Tracé 4"
         d="M 4.771,39.766 A 1.985,1.985 0 0 0 2.656,37.889 H 0.486 V 44.66 H 1.6 v -3.073 h 1.056 a 2.035,2.035 0 0 0 2.115,-1.821 m -1.145,0 A 0.911,0.911 0 0 1 2.656,40.61 H 1.6 v -1.755 h 1.045 a 0.963,0.963 0 0 1 0.981,0.911 m 7.1,-0.019 A 1.919,1.919 0 0 0 8.665,37.889 H 6.449 v 6.771 h 1.112 v -3.073 l 2.246,3.073 h 1.319 L 8.814,41.5 c 1,-0.124 1.909,-0.655 1.909,-1.755 m -1.091,0 A 0.907,0.907 0 0 1 8.651,40.617 H 7.572 v -1.762 h 1.079 a 0.921,0.921 0 0 1 0.981,0.892 m 10.75,1.537 a 3.718,3.718 0 0 0 -4,-3.473 3.707,3.707 0 0 0 -3.989,3.473 3.706,3.706 0 0 0 3.989,3.47 3.716,3.716 0 0 0 4,-3.47 m -4,2.5 a 2.529,2.529 0 1 1 0,-5.009 2.53,2.53 0 1 1 0,5.009 M 28.2,41.264 A 3.411,3.411 0 0 0 24.5,37.889 H 22.126 V 44.66 H 24.5 a 3.425,3.425 0 0 0 3.7,-3.4 m -4.961,2.429 V 38.855 H 24.5 a 2.424,2.424 0 1 1 0,4.838 z m 7.827,-0.967 v -4.833 h -1.112 v 5.083 c 0,1.167 1.209,1.754 2.278,1.754 1.156,0 2.235,-0.587 2.235,-1.792 v -5.045 h -1.112 v 4.837 c 0,0.721 -0.382,1.034 -1.123,1.034 -0.72,0 -1.167,-0.332 -1.167,-1.034 m 6.279,-1.433 a 2.646,2.646 0 0 1 2.878,-2.514 4.368,4.368 0 0 1 2.617,0.816 V 38.532 A 4.34,4.34 0 0 0 40.222,37.84 c -2.257,0 -3.989,1.461 -3.989,3.453 a 3.706,3.706 0 0 0 3.989,3.461 4.4,4.4 0 0 0 2.617,-0.729 v -1.11 a 4.231,4.231 0 0 1 -2.617,0.873 2.649,2.649 0 0 1 -2.878,-2.495 m 11.327,-3.4 h -4.338 v 0.966 h 1.625 v 5.801 h 1.112 v -5.805 h 1.6 z m 5.309,0.966 V 37.893 H 50.242 V 44.66 H 53.98 V 43.693 H 51.354 V 41.71 h 2.626 v -0.967 h -2.626 v -1.888 z m 2.956,3.871 v -4.841 h -1.112 v 5.083 c 0,1.167 1.209,1.754 2.278,1.754 1.156,0 2.237,-0.587 2.237,-1.792 v -5.045 h -1.114 v 4.837 c 0,0.721 -0.381,1.034 -1.123,1.034 -0.72,0 -1.166,-0.332 -1.166,-1.034 m 9.6,-2.979 a 1.919,1.919 0 0 0 -2.062,-1.858 h -2.206 v 6.771 h 1.11 v -3.073 l 2.248,3.073 h 1.318 L 64.632,41.5 c 1,-0.124 1.909,-0.655 1.909,-1.755 m -1.09,0 a 0.908,0.908 0 0 1 -0.982,0.872 h -1.08 v -1.762 h 1.08 a 0.922,0.922 0 0 1 0.982,0.892 m 14.38,1.517 a 3.41,3.41 0 0 0 -3.7,-3.375 h -2.372 v 6.771 h 2.375 a 3.425,3.425 0 0 0 3.7,-3.4 m -4.962,2.429 v -4.834 h 1.265 a 2.424,2.424 0 1 1 0,4.838 z M 81.6,37.565 v 0.768 h 0.523 v 0.436 a 0.927,0.927 0 0 1 -0.283,0.636 h 0.414 a 0.9,0.9 0 0 0 0.26,-0.636 v -1.2 z m 5.777,-1.09 -0.338,-0.294 -1.188,1.034 0.338,0.294 z M 88,38.856 V 37.889 H 84.257 V 44.66 H 88 V 43.693 H 85.368 V 41.711 H 88 v -0.968 h -2.632 v -1.887 z m 7,4.088 -4.067,-5.055 h -1.094 v 6.771 h 1.112 v -5.074 l 4.077,5.074 h 1.08 V 37.889 H 95 Z m 6.78,-4.089 v -0.966 h -3.743 v 6.771 h 3.738 V 43.693 H 99.148 V 41.71 h 2.627 v -0.967 h -2.627 v -1.888 z m 6.118,0.892 a 1.919,1.919 0 0 0 -2.062,-1.858 h -2.212 v 6.771 h 1.111 v -3.073 l 2.246,3.073 h 1.319 l -2.316,-3.16 c 1,-0.124 1.909,-0.655 1.909,-1.755 m -1.091,0 a 0.908,0.908 0 0 1 -0.982,0.872 h -1.079 v -1.762 h 1.079 a 0.922,0.922 0 0 1 0.982,0.892 m 3.76,1.537 a 2.645,2.645 0 0 1 2.878,-2.505 2.943,2.943 0 0 1 2.355,1.015 l 0.916,-0.531 a 4.081,4.081 0 0 0 -3.271,-1.452 3.708,3.708 0 0 0 -3.989,3.473 4.04,4.04 0 0 0 8,-0.01 c 0,-0.114 -0.011,-0.227 -0.011,-0.35 h -3.826 v 0.966 h 2.649 a 2.761,2.761 0 0 1 -2.824,1.9 2.645,2.645 0 0 1 -2.878,-2.5 m 9.67,-3.4 h -1.11 v 6.77 h 1.11 z m 5.713,0.966 V 37.89 h -3.738 v 6.77 h 3.738 v -0.967 h -2.628 V 41.71 h 2.628 v -0.967 h -2.628 v -1.888 z m 5.234,0.332 0.719,-0.74 a 2.981,2.981 0 0 0 -1.9,-0.6 1.907,1.907 0 0 0 -2.125,1.755 c 0,1.1 0.805,1.509 1.83,1.869 1.025,0.36 1.462,0.778 1.462,1.3 a 1.149,1.149 0 0 1 -1.265,0.977 1.889,1.889 0 0 1 -1.592,-0.74 l -0.806,0.664 a 2.955,2.955 0 0 0 2.441,1.042 c 1.287,0 2.334,-0.7 2.334,-1.943 0,-1.271 -1.2,-1.859 -2.159,-2.182 -0.807,-0.275 -1.135,-0.512 -1.135,-0.987 0,-0.417 0.338,-0.787 1.015,-0.787 a 1.768,1.768 0 0 1 1.178,0.37 m 12.429,0.56 a 1.919,1.919 0 0 0 -2.062,-1.858 h -2.212 v 6.772 h 1.111 v -3.073 l 2.247,3.073 h 1.319 L 141.7,41.5 c 1,-0.124 1.909,-0.655 1.909,-1.755 m -1.091,0 a 0.907,0.907 0 0 1 -0.981,0.872 h -1.08 v -1.762 h 1.08 a 0.922,0.922 0 0 1 0.981,0.892 m 6.671,-0.892 v -0.966 h -3.739 v 6.771 h 3.738 v -0.967 h -2.627 V 41.71 h 2.627 v -0.967 h -2.627 v -1.888 z m 7,4.089 -4.067,-5.055 h -1.089 v 6.771 h 1.111 v -5.074 l 4.078,5.074 h 1.08 v -6.771 h -1.113 z m 10.859,-1.66 a 4.035,4.035 0 0 0 -7.991,0 4.035,4.035 0 0 0 7.991,0 m -4,2.5 a 2.53,2.53 0 1 1 2.89,-2.5 2.646,2.646 0 0 1 -2.89,2.5 m 6.857,-1.062 v -4.833 h -1.111 v 5.083 c 0,1.167 1.209,1.754 2.278,1.754 1.156,0 2.236,-0.587 2.236,-1.792 v -5.045 h -1.113 v 4.837 c 0,0.721 -0.381,1.034 -1.123,1.034 -0.72,0 -1.167,-0.332 -1.167,-1.034 m 6.149,-4.837 h -1.177 l 2.911,6.771 h 0.839 l 2.922,-6.771 h -1.178 L 178.21,42.9 Z m 10.771,0.966 v -0.966 h -3.738 v 6.771 h 3.738 v -0.967 h -2.628 V 41.71 h 2.628 v -0.967 h -2.628 v -1.888 z m 2.954,4.838 v -5.8 h -1.111 v 6.767 h 3.193 v -0.967 z m 6.411,-5.8 -2.922,6.771 h 1.123 L 195,43.294 h 3.1 l 0.567,1.366 h 1.166 L 196.9,37.889 Z m 0.36,1.821 1.166,2.7 h -2.336 z m 8.766,-0.1 c 0,-1.11 -1.135,-1.716 -2.269,-1.716 h -1.637 v 6.762 h 2.49 c 1.243,0 2.409,-0.559 2.409,-1.963 a 1.973,1.973 0 0 0 -1.842,-1.8 1.268,1.268 0 0 0 0.851,-1.289 m -2.793,1.042 v -1.795 h 0.546 c 0.567,0 1.069,0.266 1.069,0.836 a 0.983,0.983 0 0 1 -1.069,0.956 z m 0,3.046 v -2.081 h 1.2 c 0.786,0 1.429,0.332 1.429,1.035 0,0.721 -0.687,1.043 -1.429,1.043 z m 6.6,0 v -5.8 h -1.111 v 6.764 h 3.186 v -0.967 z m 7.512,-4.838 v -0.966 h -3.739 v 6.768 h 3.739 V 43.693 H 214 V 41.71 h 2.628 V 40.743 H 214 v -1.888 z m 5.233,0.332 0.72,-0.74 a 2.983,2.983 0 0 0 -1.9,-0.6 1.907,1.907 0 0 0 -2.125,1.755 c 0,1.1 0.8,1.509 1.83,1.869 1.03,0.36 1.462,0.778 1.462,1.3 a 1.15,1.15 0 0 1 -1.266,0.977 1.888,1.888 0 0 1 -1.591,-0.74 l -0.806,0.664 a 2.953,2.953 0 0 0 2.441,1.042 c 1.287,0 2.334,-0.7 2.334,-1.943 0,-1.271 -1.2,-1.859 -2.16,-2.182 -0.807,-0.275 -1.134,-0.512 -1.134,-0.987 0,-0.417 0.338,-0.787 1.015,-0.787 a 1.764,1.764 0 0 1 1.177,0.37"
         fill="#1E293B"
         style="fill:#1E293B;fill-opacity:1" />
    </g>
  </g>
</svg>
