<?xml version="1.0" encoding="UTF-8" standalone="no"?>
<svg
   width="487.19568"
   zoomAndPan="magnify"
   viewBox="0 0 365.39676 98.72669"
   height="131.63559"
   preserveAspectRatio="xMidYMid"
   version="1.0"
   id="svg160"
   sodipodi:docname="callcenter_group.svg"
   inkscape:version="1.2.2 (b0a8486541, 2022-12-01)"
   xmlns:inkscape="http://www.inkscape.org/namespaces/inkscape"
   xmlns:sodipodi="http://sodipodi.sourceforge.net/DTD/sodipodi-0.dtd"
   xmlns="http://www.w3.org/2000/svg"
   xmlns:svg="http://www.w3.org/2000/svg">
  <sodipodi:namedview
     id="namedview162"
     pagecolor="#ffffff"
     bordercolor="#000000"
     borderopacity="0.25"
     inkscape:showpageshadow="2"
     inkscape:pageopacity="0.0"
     inkscape:pagecheckerboard="0"
     inkscape:deskcolor="#d1d1d1"
     showgrid="false"
     inkscape:zoom="1.3350176"
     inkscape:cx="277.89896"
     inkscape:cy="41.197959"
     inkscape:window-width="1916"
     inkscape:window-height="1157"
     inkscape:window-x="0"
     inkscape:window-y="41"
     inkscape:window-maximized="1"
     inkscape:current-layer="svg160" />
  <defs
     id="defs10">
    <g
       id="g2" />
    <clipPath
       id="177b4b9115">
      <path
         d="m 2.183594,127.47656 h 73.320312 v 73.41016 H 2.183594 Z m 0,0"
         clip-rule="nonzero"
         id="path4" />
    </clipPath>
    <clipPath
       id="0f5308963c">
      <path
         d="m 30.429688,195.41016 h 42.304687 v 25.7539 H 30.429688 Z m 0,0"
         clip-rule="nonzero"
         id="path7" />
    </clipPath>
  </defs>
  <g
     fill="#1E293B"
     fill-opacity="1"
     id="g22"
     transform="translate(-2.183594,-127.47656)"
     style="fill:#1E293B;fill-opacity:1">
    <g
       transform="translate(79.156335,200.37709)"
       id="g20"
       style="fill:#1E293B;fill-opacity:1">
      <g
         id="g18"
         style="fill:#1E293B;fill-opacity:1">
        <path
           d="m 31.09375,-10.59375 c 1.78125,0 3.507812,-0.265625 5.1875,-0.796875 1.6875,-0.539063 2.925781,-1.0625 3.71875,-1.5625 l 1.171875,-0.8125 4.984375,9.96875 c -0.167969,0.125 -0.398438,0.292969 -0.6875,0.5 -0.28125,0.210937 -0.953125,0.59375 -2.015625,1.15625 -1.0625,0.554687 -2.199219,1.039063 -3.40625,1.453125 -1.199219,0.417969 -2.777344,0.789062 -4.734375,1.125 -1.949219,0.332031 -3.960938,0.5 -6.03125,0.5 -4.78125,0 -9.3125,-1.171875 -13.59375,-3.515625 -4.273438,-2.351563 -7.714844,-5.582031 -10.328125,-9.6875 -2.617187,-4.113281 -3.921875,-8.5625 -3.921875,-13.34375 0,-3.613281 0.765625,-7.078125 2.296875,-10.390625 1.539063,-3.320312 3.585937,-6.164062 6.140625,-8.53125 2.550781,-2.375 5.53125,-4.265625 8.9375,-5.671875 3.40625,-1.414063 6.894531,-2.125 10.46875,-2.125 3.320312,0 6.382812,0.398437 9.1875,1.1875 2.800781,0.78125 4.785156,1.570313 5.953125,2.359375 l 1.734375,1.1875 -4.984375,9.96875 c -0.292969,-0.25 -0.730469,-0.550781 -1.3125,-0.90625 -0.574219,-0.351562 -1.734375,-0.816406 -3.484375,-1.390625 -1.742188,-0.582031 -3.5,-0.875 -5.28125,-0.875 -2.835938,0 -5.371094,0.460937 -7.609375,1.375 -2.242187,0.90625 -4.015625,2.109375 -5.328125,3.609375 -1.304688,1.492188 -2.296875,3.101562 -2.984375,4.828125 -0.6875,1.71875 -1.03125,3.46875 -1.03125,5.25 0,3.90625 1.460937,7.40625 4.390625,10.5 2.925781,3.09375 7.113281,4.640625 12.5625,4.640625 z m 0,0"
           id="path16"
           style="fill:#1E293B;fill-opacity:1" />
      </g>
    </g>
  </g>
  <g
     fill="#1E293B"
     fill-opacity="1"
     id="g30"
     transform="translate(-2.183594,-127.47656)"
     style="fill:#1E293B;fill-opacity:1">
    <g
       transform="translate(120.20947,200.37709)"
       id="g28"
       style="fill:#1E293B;fill-opacity:1">
      <g
         id="g26"
         style="fill:#1E293B;fill-opacity:1">
        <path
           d="M 5.921875,-3.953125 C 2.929688,-7.210938 1.4375,-11.207031 1.4375,-15.9375 c 0,-4.738281 1.492188,-8.75 4.484375,-12.03125 2.988281,-3.28125 6.785156,-4.921875 11.390625,-4.921875 4.238281,0 7.726562,1.328125 10.46875,3.984375 v -3.046875 H 38.8125 V 0 H 27.90625 v -3.609375 h -0.125 C 25.039062,-0.578125 21.550781,0.9375 17.3125,0.9375 c -4.605469,0 -8.402344,-1.628906 -11.390625,-4.890625 z m 9.359375,-17.40625 c -1.429688,1.40625 -2.140625,3.214844 -2.140625,5.421875 0,2.199219 0.679687,3.996094 2.046875,5.390625 1.375,1.386719 3.1875,2.078125 5.4375,2.078125 2.15625,0 3.925781,-0.703125 5.3125,-2.109375 1.394531,-1.414063 2.09375,-3.207031 2.09375,-5.375 0,-2.195313 -0.71875,-4 -2.15625,-5.40625 -1.429688,-1.414063 -3.179688,-2.125 -5.25,-2.125 -2.125,0 -3.90625,0.710937 -5.34375,2.125 z m 0,0"
           id="path24"
           style="fill:#1E293B;fill-opacity:1" />
      </g>
    </g>
  </g>
  <g
     fill="#1E293B"
     fill-opacity="1"
     id="g38"
     transform="translate(-2.183594,-127.47656)"
     style="fill:#1E293B;fill-opacity:1">
    <g
       transform="translate(156.90178,200.37709)"
       id="g36"
       style="fill:#1E293B;fill-opacity:1">
      <g
         id="g34"
         style="fill:#1E293B;fill-opacity:1">
        <path
           d="m 3.734375,0 v -53.578125 h 11.03125 V 0 Z m 0,0"
           id="path32"
           style="fill:#1E293B;fill-opacity:1" />
      </g>
    </g>
  </g>
  <g
     fill="#1E293B"
     fill-opacity="1"
     id="g46"
     transform="translate(-2.183594,-127.47656)"
     style="fill:#1E293B;fill-opacity:1">
    <g
       transform="translate(169.5472,200.37709)"
       id="g44"
       style="fill:#1E293B;fill-opacity:1">
      <g
         id="g42"
         style="fill:#1E293B;fill-opacity:1">
        <path
           d="m 3.734375,0 v -53.578125 h 11.03125 V 0 Z m 0,0"
           id="path40"
           style="fill:#1E293B;fill-opacity:1" />
      </g>
    </g>
  </g>
  <g
     fill="#1E293B"
     fill-opacity="1"
     id="g54"
     transform="translate(-2.183594,-127.47656)"
     style="fill:#1E293B;fill-opacity:1">
    <g
       transform="translate(182.19261,200.37709)"
       id="g52"
       style="fill:#1E293B;fill-opacity:1">
      <g
         id="g50"
         style="fill:#1E293B;fill-opacity:1">
        <path
           d="m 20.75,-23.859375 c -2.085938,0 -3.875,0.773437 -5.375,2.3125 -1.492188,1.53125 -2.234375,3.375 -2.234375,5.53125 0,2.210937 0.742187,4.085937 2.234375,5.625 1.5,1.53125 3.289062,2.296875 5.375,2.296875 0.988281,0 1.929688,-0.125 2.828125,-0.375 0.894531,-0.25 1.550781,-0.5 1.96875,-0.75 l 0.5625,-0.375 3.734375,7.65625 c -0.292969,0.210938 -0.699219,0.46875 -1.21875,0.78125 -0.523438,0.3125 -1.710938,0.742188 -3.5625,1.28125 -1.84375,0.539062 -3.824219,0.8125 -5.9375,0.8125 -4.699219,0 -8.824219,-1.648438 -12.375,-4.953125 -3.542969,-3.300781 -5.3125,-7.257813 -5.3125,-11.875 0,-4.644531 1.769531,-8.640625 5.3125,-11.984375 3.550781,-3.34375 7.675781,-5.015625 12.375,-5.015625 2.113281,0 4.0625,0.25 5.84375,0.75 1.789062,0.5 3.0625,0.996094 3.8125,1.484375 l 1.0625,0.75 -3.734375,7.546875 c -1.375,-1 -3.164063,-1.5 -5.359375,-1.5 z m 0,0"
           id="path48"
           style="fill:#1E293B;fill-opacity:1" />
      </g>
    </g>
  </g>
  <g
     fill="#1E293B"
     fill-opacity="1"
     id="g62"
     transform="translate(-2.183594,-127.47656)"
     style="fill:#1E293B;fill-opacity:1">
    <g
       transform="translate(206.92377,200.37709)"
       id="g60"
       style="fill:#1E293B;fill-opacity:1">
      <g
         id="g58"
         style="fill:#1E293B;fill-opacity:1">
        <path
           d="M 36.0625,-14.453125 H 12.890625 c 0,2.242187 0.722656,3.902344 2.171875,4.984375 1.457031,1.085938 3.039062,1.625 4.75,1.625 1.78125,0 3.191406,-0.238281 4.234375,-0.71875 1.039063,-0.476562 2.222656,-1.425781 3.546875,-2.84375 l 7.984375,4 C 32.253906,-1.84375 26.726562,0.9375 19,0.9375 14.1875,0.9375 10.054688,-0.710938 6.609375,-4.015625 3.160156,-7.316406 1.4375,-11.289062 1.4375,-15.9375 c 0,-4.65625 1.722656,-8.644531 5.171875,-11.96875 3.445313,-3.320312 7.578125,-4.984375 12.390625,-4.984375 5.0625,0 9.179688,1.464844 12.359375,4.390625 3.175781,2.929688 4.765625,7.109375 4.765625,12.546875 0,0.75 -0.02344,1.25 -0.0625,1.5 z M 13.203125,-20.5625 h 12.15625 c -0.25,-1.65625 -0.90625,-2.929688 -1.96875,-3.828125 -1.0625,-0.894531 -2.421875,-1.34375 -4.078125,-1.34375 -1.824219,0 -3.277344,0.480469 -4.359375,1.4375 -1.085937,0.960937 -1.667969,2.203125 -1.75,3.734375 z m 0,0"
           id="path56"
           style="fill:#1E293B;fill-opacity:1" />
      </g>
    </g>
  </g>
  <g
     fill="#1E293B"
     fill-opacity="1"
     id="g70"
     transform="translate(-2.183594,-127.47656)"
     style="fill:#1E293B;fill-opacity:1">
    <g
       transform="translate(238.63226,200.37709)"
       id="g68"
       style="fill:#1E293B;fill-opacity:1">
      <g
         id="g66"
         style="fill:#1E293B;fill-opacity:1">
        <path
           d="m 3.734375,0 v -31.953125 h 11.03125 v 3.359375 h 0.125 c 2.863281,-2.863281 5.914063,-4.296875 9.15625,-4.296875 1.570313,0 3.140625,0.210937 4.703125,0.625 1.5625,0.417969 3.054688,1.0625 4.484375,1.9375 1.4375,0.867187 2.597656,2.101563 3.484375,3.703125 0.894531,1.59375 1.34375,3.449219 1.34375,5.5625 V 0 H 27.03125 v -18.0625 c 0,-1.664062 -0.53125,-3.117188 -1.59375,-4.359375 -1.054688,-1.25 -2.429688,-1.875 -4.125,-1.875 -1.667969,0 -3.179688,0.648437 -4.53125,1.9375 -1.34375,1.28125 -2.015625,2.714844 -2.015625,4.296875 V 0 Z m 0,0"
           id="path64"
           style="fill:#1E293B;fill-opacity:1" />
      </g>
    </g>
  </g>
  <g
     fill="#1E293B"
     fill-opacity="1"
     id="g78"
     transform="translate(-2.183594,-127.47656)"
     style="fill:#1E293B;fill-opacity:1">
    <g
       transform="translate(273.95402,200.37709)"
       id="g76"
       style="fill:#1E293B;fill-opacity:1">
      <g
         id="g74"
         style="fill:#1E293B;fill-opacity:1">
        <path
           d="m 5.609375,-31.953125 v -11.90625 h 11.03125 v 11.90625 h 6.71875 v 8.40625 h -6.71875 v 10.15625 c 0,2.949219 0.828125,4.421875 2.484375,4.421875 0.414062,0 0.851562,-0.082031 1.3125,-0.25 0.457031,-0.164062 0.8125,-0.332031 1.0625,-0.5 l 0.359375,-0.25 2.75,8.90625 c -2.367187,1.332031 -5.0625,2 -8.09375,2 -2.085937,0 -3.875,-0.367188 -5.375,-1.09375 C 9.648438,-0.882812 8.519531,-1.859375 7.75,-3.078125 6.988281,-4.304688 6.441406,-5.59375 6.109375,-6.9375 c -0.335937,-1.351562 -0.5,-2.800781 -0.5,-4.34375 V -23.546875 H 1 v -8.40625 z m 0,0"
           id="path72"
           style="fill:#1E293B;fill-opacity:1" />
      </g>
    </g>
  </g>
  <g
     fill="#1E293B"
     fill-opacity="1"
     id="g86"
     transform="translate(-2.183594,-127.47656)"
     style="fill:#1E293B;fill-opacity:1">
    <g
       transform="translate(292.70461,200.37709)"
       id="g84"
       style="fill:#1E293B;fill-opacity:1">
      <g
         id="g82"
         style="fill:#1E293B;fill-opacity:1">
        <path
           d="M 36.0625,-14.453125 H 12.890625 c 0,2.242187 0.722656,3.902344 2.171875,4.984375 1.457031,1.085938 3.039062,1.625 4.75,1.625 1.78125,0 3.191406,-0.238281 4.234375,-0.71875 1.039063,-0.476562 2.222656,-1.425781 3.546875,-2.84375 l 7.984375,4 C 32.253906,-1.84375 26.726562,0.9375 19,0.9375 14.1875,0.9375 10.054688,-0.710938 6.609375,-4.015625 3.160156,-7.316406 1.4375,-11.289062 1.4375,-15.9375 c 0,-4.65625 1.722656,-8.644531 5.171875,-11.96875 3.445313,-3.320312 7.578125,-4.984375 12.390625,-4.984375 5.0625,0 9.179688,1.464844 12.359375,4.390625 3.175781,2.929688 4.765625,7.109375 4.765625,12.546875 0,0.75 -0.02344,1.25 -0.0625,1.5 z M 13.203125,-20.5625 h 12.15625 c -0.25,-1.65625 -0.90625,-2.929688 -1.96875,-3.828125 -1.0625,-0.894531 -2.421875,-1.34375 -4.078125,-1.34375 -1.824219,0 -3.277344,0.480469 -4.359375,1.4375 -1.085937,0.960937 -1.667969,2.203125 -1.75,3.734375 z m 0,0"
           id="path80"
           style="fill:#1E293B;fill-opacity:1" />
      </g>
    </g>
  </g>
  <g
     fill="#1E293B"
     fill-opacity="1"
     id="g94"
     transform="translate(-2.183594,-127.47656)"
     style="fill:#1E293B;fill-opacity:1">
    <g
       transform="translate(324.4131,200.37709)"
       id="g92"
       style="fill:#1E293B;fill-opacity:1">
      <g
         id="g90"
         style="fill:#1E293B;fill-opacity:1">
        <path
           d="m 3.734375,0 v -31.953125 h 11.03125 v 4.609375 h 0.125 c 0.08203,-0.164062 0.21875,-0.375 0.40625,-0.625 0.1875,-0.25 0.585937,-0.6875 1.203125,-1.3125 0.625,-0.625 1.289062,-1.179688 2,-1.671875 0.707031,-0.5 1.617188,-0.945313 2.734375,-1.34375 1.125,-0.394531 2.269531,-0.59375 3.4375,-0.59375 1.195313,0 2.378906,0.167969 3.546875,0.5 1.164062,0.335937 2.019531,0.667969 2.5625,1 l 0.859375,0.484375 -4.609375,9.34375 c -1.367188,-1.15625 -3.273438,-1.734375 -5.71875,-1.734375 -1.335938,0 -2.480469,0.292969 -3.4375,0.875 -0.949219,0.574219 -1.621094,1.277344 -2.015625,2.109375 -0.398437,0.835938 -0.679687,1.542969 -0.84375,2.125 -0.167969,0.585938 -0.25,1.042969 -0.25,1.375 V 0 Z m 0,0"
           id="path88"
           style="fill:#1E293B;fill-opacity:1" />
      </g>
    </g>
  </g>
  <g
     fill="#1E293B"
     fill-opacity="1"
     id="g102"
     transform="translate(-2.183594,-127.47656)"
     style="fill:#1E293B;fill-opacity:1">
    <g
       transform="translate(349.58035,200.37709)"
       id="g100"
       style="fill:#1E293B;fill-opacity:1">
      <g
         id="g98"
         style="fill:#1E293B;fill-opacity:1">
        <path
           d="m 10.84375,-13.328125 c 1.988281,0 3.675781,0.699219 5.0625,2.09375 1.394531,1.386719 2.09375,3.074219 2.09375,5.0625 0,1.960937 -0.699219,3.636719 -2.09375,5.03125 C 14.519531,0.242188 12.832031,0.9375 10.84375,0.9375 8.882812,0.9375 7.207031,0.242188 5.8125,-1.140625 4.425781,-2.535156 3.734375,-4.210938 3.734375,-6.171875 c 0,-1.988281 0.691406,-3.675781 2.078125,-5.0625 1.394531,-1.394531 3.070312,-2.09375 5.03125,-2.09375 z m 0,0"
           id="path96"
           style="fill:#1E293B;fill-opacity:1" />
      </g>
    </g>
  </g>
  <g
     fill="#1E293B"
     fill-opacity="1"
     id="g110"
     transform="translate(-2.183594,-127.47656)"
     style="fill:#1E293B;fill-opacity:1">
    <g
       transform="translate(238.43766,226.047)"
       id="g108"
       style="fill:#1E293B;fill-opacity:1">
      <g
         id="g106"
         style="fill:#1E293B;fill-opacity:1">
        <path
           d="m 8.875,-5.46875 c 0.195312,0 0.359375,0.074219 0.484375,0.21875 0.132813,0.136719 0.203125,0.304688 0.203125,0.5 v 3.34375 c 0,0.261719 -0.117188,0.46875 -0.34375,0.625 -0.460938,0.292969 -0.964844,0.523438 -1.515625,0.6875 -0.542969,0.1640625 -1.101563,0.25 -1.671875,0.25 -0.992188,0 -1.902344,-0.2382812 -2.734375,-0.71875 C 2.472656,-1.039062 1.820312,-1.6875 1.34375,-2.5 0.875,-3.320312 0.640625,-4.222656 0.640625,-5.203125 c 0,-0.976563 0.234375,-1.875 0.703125,-2.6875 0.476562,-0.820313 1.128906,-1.46875 1.953125,-1.9375 0.832031,-0.476563 1.742187,-0.71875 2.734375,-0.71875 0.5,0 0.976562,0.05859 1.4375,0.171875 0.457031,0.105469 0.867188,0.265625 1.234375,0.484375 0.125,0.0625 0.210937,0.148437 0.265625,0.25 0.0625,0.09375 0.09375,0.203125 0.09375,0.328125 0,0.199219 -0.070312,0.371094 -0.203125,0.515625 C 8.722656,-8.660156 8.5625,-8.59375 8.375,-8.59375 8.226562,-8.59375 8.101562,-8.625 8,-8.6875 7.351562,-8.988281 6.695312,-9.140625 6.03125,-9.140625 c -0.710938,0 -1.359375,0.179687 -1.953125,0.53125 -0.59375,0.34375 -1.0625,0.820313 -1.40625,1.421875 -0.335937,0.605469 -0.5,1.265625 -0.5,1.984375 0,0.730469 0.164063,1.398437 0.5,2 0.34375,0.59375 0.8125,1.070313 1.40625,1.421875 0.59375,0.34375 1.242187,0.515625 1.953125,0.515625 0.332031,0 0.6875,-0.035156 1.0625,-0.109375 0.375,-0.082031 0.691406,-0.1875 0.953125,-0.3125 v -2.375 H 6.25 c -0.199219,0 -0.367188,-0.0625 -0.5,-0.1875 -0.136719,-0.132812 -0.203125,-0.300781 -0.203125,-0.5 0,-0.207031 0.066406,-0.378906 0.203125,-0.515625 0.132812,-0.132813 0.300781,-0.203125 0.5,-0.203125 z m 0,0"
           id="path104"
           style="fill:#1E293B;fill-opacity:1" />
      </g>
    </g>
  </g>
  <g
     fill="#1E293B"
     fill-opacity="1"
     id="g118"
     transform="translate(-2.183594,-127.47656)"
     style="fill:#1E293B;fill-opacity:1">
    <g
       transform="translate(258.44935,226.047)"
       id="g116"
       style="fill:#1E293B;fill-opacity:1">
      <g
         id="g114"
         style="fill:#1E293B;fill-opacity:1">
        <path
           d="m 9.15625,-1.1875 c 0.09375,0.074219 0.171875,0.164062 0.234375,0.265625 0.0625,0.105469 0.09375,0.210937 0.09375,0.3125 0,0.210937 -0.070313,0.367187 -0.203125,0.46875 C 9.144531,-0.046875 8.984375,0 8.796875,0 8.609375,0 8.453125,-0.0390625 8.328125,-0.125 8.023438,-0.289062 7.78125,-0.5625 7.59375,-0.9375 7.40625,-1.3125 7.3125,-1.863281 7.3125,-2.59375 c 0,-0.5 -0.152344,-0.867188 -0.453125,-1.109375 C 6.566406,-3.941406 6.179688,-4.0625 5.703125,-4.0625 h -3 v 3.34375 c 0,0.210938 -0.0625,0.382812 -0.1875,0.515625 C 2.398438,-0.0664062 2.25,0 2.0625,0 1.832031,0 1.632812,-0.0664062 1.46875,-0.203125 1.3125,-0.347656 1.234375,-0.519531 1.234375,-0.71875 V -9.6875 c 0,-0.195312 0.066406,-0.363281 0.203125,-0.5 0.144531,-0.144531 0.316406,-0.21875 0.515625,-0.21875 H 6.125 c 0.53125,0 1.019531,0.136719 1.46875,0.40625 0.445312,0.261719 0.800781,0.621094 1.0625,1.078125 0.269531,0.460937 0.40625,0.976563 0.40625,1.546875 0,0.5625 -0.152344,1.085938 -0.453125,1.5625 -0.292969,0.480469 -0.671875,0.839844 -1.140625,1.078125 0.375,0.1875 0.664062,0.449219 0.875,0.78125 0.207031,0.335937 0.320312,0.726563 0.34375,1.171875 0.039062,0.5625 0.085938,0.949219 0.140625,1.15625 0.050781,0.199219 0.160156,0.34375 0.328125,0.4375 z m -3.0625,-4.109375 c 0.25,-0.00781 0.484375,-0.101563 0.703125,-0.28125 0.21875,-0.1875 0.394531,-0.429687 0.53125,-0.734375 0.144531,-0.300781 0.21875,-0.640625 0.21875,-1.015625 0,-0.46875 -0.148437,-0.867187 -0.4375,-1.203125 -0.292969,-0.332031 -0.648437,-0.5 -1.0625,-0.5 h -3.34375 v 3.734375 z m 0,0"
           id="path112"
           style="fill:#1E293B;fill-opacity:1" />
      </g>
    </g>
  </g>
  <g
     fill="#1E293B"
     fill-opacity="1"
     id="g126"
     transform="translate(-2.183594,-127.47656)"
     style="fill:#1E293B;fill-opacity:1">
    <g
       transform="translate(278.23826,226.047)"
       id="g124"
       style="fill:#1E293B;fill-opacity:1">
      <g
         id="g122"
         style="fill:#1E293B;fill-opacity:1">
        <path
           d="m 10.6875,-5.203125 c 0,1 -0.21875,1.90625 -0.65625,2.71875 -0.429688,0.8125 -1.023438,1.460937 -1.78125,1.9375 -0.761719,0.46875 -1.625,0.703125 -2.59375,0.703125 -0.960938,0 -1.820312,-0.234375 -2.578125,-0.703125 -0.761719,-0.476563 -1.359375,-1.125 -1.796875,-1.9375 -0.429688,-0.8125 -0.640625,-1.71875 -0.640625,-2.71875 0,-1 0.210937,-1.90625 0.640625,-2.71875 0.4375,-0.8125 1.035156,-1.453125 1.796875,-1.921875 0.757813,-0.46875 1.617187,-0.703125 2.578125,-0.703125 0.96875,0 1.832031,0.234375 2.59375,0.703125 0.757812,0.46875 1.351562,1.109375 1.78125,1.921875 0.4375,0.8125 0.65625,1.71875 0.65625,2.71875 z m -1.53125,0 c 0,-0.738281 -0.152344,-1.40625 -0.453125,-2 C 8.410156,-7.804688 8,-8.28125 7.46875,-8.625 6.9375,-8.96875 6.332031,-9.140625 5.65625,-9.140625 c -0.667969,0 -1.265625,0.171875 -1.796875,0.515625 -0.53125,0.335938 -0.949219,0.804688 -1.25,1.40625 -0.292969,0.59375 -0.4375,1.265625 -0.4375,2.015625 0,0.742187 0.144531,1.414063 0.4375,2.015625 0.300781,0.605469 0.71875,1.078125 1.25,1.421875 0.53125,0.335937 1.128906,0.5 1.796875,0.5 0.675781,0 1.28125,-0.164063 1.8125,-0.5 C 8,-2.109375 8.410156,-2.582031 8.703125,-3.1875 9.003906,-3.789062 9.15625,-4.460938 9.15625,-5.203125 Z m 0,0"
           id="path120"
           style="fill:#1E293B;fill-opacity:1" />
      </g>
    </g>
  </g>
  <g
     fill="#1E293B"
     fill-opacity="1"
     id="g134"
     transform="translate(-2.183594,-127.47656)"
     style="fill:#1E293B;fill-opacity:1">
    <g
       transform="translate(299.24502,226.047)"
       id="g132"
       style="fill:#1E293B;fill-opacity:1">
      <g
         id="g130"
         style="fill:#1E293B;fill-opacity:1">
        <path
           d="m 8.609375,-10.421875 c 0.207031,0 0.367187,0.07031 0.484375,0.203125 0.125,0.136719 0.1875,0.308594 0.1875,0.515625 V -4 c 0,0.78125 -0.171875,1.484375 -0.515625,2.109375 -0.34375,0.625 -0.824219,1.117187 -1.4375,1.46875 C 6.722656,-0.0664062 6.039062,0.109375 5.28125,0.109375 4.5,0.109375 3.800781,-0.0664062 3.1875,-0.421875 2.582031,-0.773438 2.101562,-1.265625 1.75,-1.890625 1.40625,-2.515625 1.234375,-3.21875 1.234375,-4 v -5.703125 c 0,-0.207031 0.066406,-0.378906 0.203125,-0.515625 0.144531,-0.132812 0.320312,-0.203125 0.53125,-0.203125 0.195312,0 0.363281,0.07422 0.5,0.21875 0.144531,0.136719 0.21875,0.304687 0.21875,0.5 V -4 c 0,0.523438 0.117188,0.992188 0.359375,1.40625 C 3.285156,-2.1875 3.601562,-1.867188 4,-1.640625 4.394531,-1.421875 4.820312,-1.3125 5.28125,-1.3125 5.75,-1.3125 6.1875,-1.421875 6.59375,-1.640625 7,-1.867188 7.320312,-2.1875 7.5625,-2.59375 7.8125,-3.007812 7.9375,-3.476562 7.9375,-4 v -5.703125 c 0,-0.207031 0.054688,-0.378906 0.171875,-0.515625 0.125,-0.132812 0.289063,-0.203125 0.5,-0.203125 z m 0,0"
           id="path128"
           style="fill:#1E293B;fill-opacity:1" />
      </g>
    </g>
  </g>
  <g
     fill="#1E293B"
     fill-opacity="1"
     id="g142"
     transform="translate(-2.183594,-127.47656)"
     style="fill:#1E293B;fill-opacity:1">
    <g
       transform="translate(319.44978,226.047)"
       id="g140"
       style="fill:#1E293B;fill-opacity:1">
      <g
         id="g138"
         style="fill:#1E293B;fill-opacity:1">
        <path
           d="m 5.390625,-10.40625 c 0.53125,0 1.015625,0.148438 1.453125,0.4375 0.445312,0.28125 0.800781,0.667969 1.0625,1.15625 0.269531,0.480469 0.40625,1.011719 0.40625,1.59375 0,0.585938 -0.136719,1.125 -0.40625,1.625 -0.261719,0.492188 -0.617188,0.882812 -1.0625,1.171875 C 6.40625,-4.140625 5.921875,-4 5.390625,-4 H 2.59375 v 3.28125 c 0,0.199219 -0.0625,0.371094 -0.1875,0.515625 C 2.28125,-0.0664062 2.117188,0 1.921875,0 c -0.210937,0 -0.375,-0.0664062 -0.5,-0.203125 -0.125,-0.132813 -0.1875,-0.304687 -0.1875,-0.515625 V -9.6875 c 0,-0.195312 0.066406,-0.363281 0.203125,-0.5 0.144531,-0.144531 0.316406,-0.21875 0.515625,-0.21875 z m 0,5.0625 c 0.269531,0 0.519531,-0.085938 0.75,-0.265625 0.226563,-0.175781 0.40625,-0.40625 0.53125,-0.6875 C 6.804688,-6.585938 6.875,-6.894531 6.875,-7.21875 6.875,-7.726562 6.726562,-8.15625 6.4375,-8.5 6.144531,-8.851562 5.796875,-9.03125 5.390625,-9.03125 H 2.59375 v 3.6875 z m 0,0"
           id="path136"
           style="fill:#1E293B;fill-opacity:1" />
      </g>
    </g>
  </g>
  <g
     clip-path="url(#177b4b9115)"
     id="g146"
     transform="translate(-2.183594,-127.47656)"
     style="fill:#1E293B;fill-opacity:1">
    <path
       fill="#1E293B"
       d="m 26.335938,193.97266 c -9.441407,-5.33594 -15.8125,-15.46094 -15.8125,-27.07813 0,-17.16406 13.914062,-31.08203 31.078124,-31.08203 9.488282,0 17.980469,4.25391 23.683594,10.95312 h 10.21875 c -6.875,-11.55078 -19.484375,-19.28906 -33.902344,-19.28906 -21.769531,0 -39.417968,17.64844 -39.417968,39.41797 0,14.43359 7.757812,27.05078 19.328125,33.92188 l 4.824219,-6.84375"
       fill-opacity="1"
       fill-rule="nonzero"
       id="path144"
       style="fill:#1E293B;fill-opacity:1" />
  </g>
  <g
     clip-path="url(#0f5308963c)"
     id="g150"
     transform="translate(-2.183594,-127.47656)"
     style="fill:#1E293B;fill-opacity:1">
    <path
       fill="#1E293B"
       d="m 50.8125,196.58594 c -0.34375,0.10937 -0.691406,0.21093 -1.039062,0.30468 l -19.300782,7.82813 c 1.316406,0.38672 2.660156,0.70703 4.027344,0.95703 L 72.683594,221.16406 54.59375,195.49219 c -1.230469,0.44922 -2.492188,0.8164 -3.78125,1.09375"
       fill-opacity="1"
       fill-rule="nonzero"
       id="path148"
       style="fill:#1E293B;fill-opacity:1" />
  </g>
  <path
     fill="#1E293B"
     d="m 42.351562,60.683598 c 11.242188,0 20.355469,-9.11329 20.355469,-20.35547 0,-11.2461 -9.113281,-20.35938 -20.355469,-20.35938 -6.214844,0 -11.777344,2.78516 -15.511718,7.17578 h -6.695313 c 4.503906,-7.5664 12.761719,-12.63672 22.207031,-12.63672 14.257813,0 25.820313,11.5586 25.820313,25.82032 0,12.67187 -9.128907,23.21093 -21.167969,25.39843 l -25.011719,10.14454 11.972657,-16.98829 c 2.558593,1.15625 5.394531,1.80079 8.386718,1.80079"
     fill-opacity="1"
     fill-rule="nonzero"
     id="path152"
     style="fill:#1E293B;fill-opacity:1" />
  <path
     fill="#1E293B"
     d="m 34.617187,39.417968 c 0,1.84766 -1.5,3.34766 -3.347656,3.34766 -1.847656,0 -3.34375,-1.5 -3.34375,-3.34766 0,-1.84766 1.496094,-3.34375 3.34375,-3.34375 1.847656,0 3.347656,1.49609 3.347656,3.34375"
     fill-opacity="1"
     fill-rule="nonzero"
     id="path154"
     style="fill:#1E293B;fill-opacity:1" />
  <path
     fill="#1E293B"
     d="m 44.691406,39.417968 c 0,1.84766 -1.496094,3.34766 -3.34375,3.34766 C 39.5,42.765628 38,41.265628 38,39.417968 c 0,-1.84766 1.5,-3.34375 3.347656,-3.34375 1.847656,0 3.34375,1.49609 3.34375,3.34375"
     fill-opacity="1"
     fill-rule="nonzero"
     id="path156"
     style="fill:#1E293B;fill-opacity:1" />
  <path
     fill="#1E293B"
     d="m 54.769531,39.417968 c 0,1.84766 -1.5,3.34766 -3.347656,3.34766 -1.847657,0 -3.34375,-1.5 -3.34375,-3.34766 0,-1.84766 1.496093,-3.34375 3.34375,-3.34375 1.847656,0 3.347656,1.49609 3.347656,3.34375"
     fill-opacity="1"
     fill-rule="nonzero"
     id="path158"
     style="fill:#1E293B;fill-opacity:1" />
</svg>
