<?xml version="1.0" encoding="UTF-8" standalone="no"?>
<!-- Created with Inkscape (http://www.inkscape.org/) -->

<svg
   version="1.1"
   id="svg16520"
   width="454.36301"
   height="82.000038"
   viewBox="0 0 454.363 82.000038"
   sodipodi:docname="chabi-chic.svg"
   xml:space="preserve"
   inkscape:version="1.2.2 (b0a8486541, 2022-12-01)"
   xmlns:inkscape="http://www.inkscape.org/namespaces/inkscape"
   xmlns:sodipodi="http://sodipodi.sourceforge.net/DTD/sodipodi-0.dtd"
   xmlns="http://www.w3.org/2000/svg"
   xmlns:svg="http://www.w3.org/2000/svg"><defs
     id="defs16524" /><sodipodi:namedview
     id="namedview16522"
     pagecolor="#ffffff"
     bordercolor="#000000"
     borderopacity="0.25"
     inkscape:showpageshadow="2"
     inkscape:pageopacity="0.0"
     inkscape:pagecheckerboard="0"
     inkscape:deskcolor="#d1d1d1"
     showgrid="false"
     inkscape:zoom="1.6090909"
     inkscape:cx="147.90961"
     inkscape:cy="-116.21469"
     inkscape:window-width="1916"
     inkscape:window-height="1157"
     inkscape:window-x="0"
     inkscape:window-y="41"
     inkscape:window-maximized="1"
     inkscape:current-layer="g16526" /><g
     inkscape:groupmode="layer"
     inkscape:label="Image"
     id="g16526"
     transform="translate(31.210666,-147.50103)"><path
       style="fill:#1E293B"
       d="m -10.842277,227.83304 c -16.218339,-5.67428 -24.115718,-21.77382 -18.641543,-38.00253 3.862086,-11.44952 13.787593,-18.52391 26.8861549,-19.16308 l 7.75,-0.37817 v 6.967 6.96699 l -6.1531,0.55795 c -12.4335189,1.12743 -19.2337349,11.57174 -14.0953459,21.64874 2.66787,5.23202 6.4759909,7.49693 13.5703739,8.07109 l 6.178072,0.5 0.29381,7.25 0.293809,7.25 -5.79380902,-0.0477 c -3.18659598,-0.0262 -7.81638498,-0.75537 -10.28842188,-1.62025 z m 31.333674,-17.08201 c 0.360408,-10.3125 0.656558,-23.5875 0.658112,-29.5 l 0.0028,-10.75 h 7 7 v 11 11 h 9 9 v -11.04381 -11.04381 l 7.25,0.29381 7.25,0.29381 0.26534,28.75 0.26533,28.75 h -7.515335 -7.515335 v -12 -12 h -9 -9 v 12.5 12.5 h -7.658112 -7.658112 z m 183.660943,-10.75 v -29.5 h 7.5 7.5 v 29.5 29.5 h -7.5 -7.5 z m 64.33245,27.64893 c -20.01221,-6.91571 -26.78439,-31.12938 -13.06543,-46.71494 6.35738,-7.22237 11.59836,-9.73297 21.39087,-10.24694 l 8.34211,-0.43785 v 7.1254 7.1254 l -4.75,0.022 c -11.8807,0.0549 -19.65277,8.74444 -16.97435,18.97804 1.79959,6.87578 7.67649,11 15.67469,11 h 5.04966 v 7.5 7.5 l -5.25,-0.0327 c -2.8875,-0.0179 -7.5754,-0.83624 -10.41755,-1.81842 z m 30.0818,0.48821 c -0.28763,-0.74957 -0.16101,-13.91207 0.28139,-29.24999 l 0.80436,-27.88715 h 7 7 l 0.28422,10.78843 0.28422,10.78844 8.71578,-0.28844 8.71578,-0.28843 0.28383,-10.75 0.28383,-10.75 h 6.96617 6.96617 v 29 29 h -6.96826 -6.96827 l -0.28173,-11.75 -0.28174,-11.75 h -9 -9 l -0.28078,12.25 -0.28078,12.25 h -7.0006 c -4.98717,0 -7.15102,-0.39197 -7.52359,-1.36286 z m 62.58575,-28.13714 v -29.5 h 7.5 7.5 v 29.5 29.5 h -7.5 -7.5 z m 46.33245,27.64893 c -13.69868,-4.73392 -21.38168,-16.64123 -20.07013,-31.10521 0.6313,-6.9621 2.65808,-11.18673 8.09642,-16.87624 6.00779,-6.28525 10.73456,-8.41481 19.89126,-8.96163 l 7.75,-0.46282 v 7.12849 7.12848 h -4.28811 c -5.71251,0 -12.65939,3.61741 -15.09572,7.86071 -1.12647,1.96193 -1.90278,5.13398 -1.86518,7.62117 0.13779,9.11499 5.9499,14.51812 15.61704,14.51812 h 5.63197 v 7.5 7.5 l -5.25,-0.0327 c -2.8875,-0.0179 -7.5754,-0.83624 -10.41755,-1.81842 z M 80.372245,222.75103 c 1.18349,-3.1625 6.24724,-16.1 11.25277,-28.75 l 9.100965,-23 h 6.92202 6.92201 l 11.29116,27.96712 c 6.21015,15.38191 11.29117,28.33834 11.29117,28.79206 0,0.45372 -3.4875,0.69352 -7.75,0.53288 l -7.75,-0.29206 -1.99077,-5.78233 -1.99077,-5.78232 -10.00923,0.28232 -10.009234,0.28233 -1.97976,5.75 -1.979761,5.75 h -7.73619 -7.73619 z m 32.780095,-18.97879 c 0,-2.15868 -5.35372,-14.30618 -5.99505,-13.60266 -0.89112,0.97752 -5.00495,11.96619 -5.00495,13.36896 0,0.52937 2.475,0.96249 5.5,0.96249 3.025,0 5.5,-0.32795 5.5,-0.72879 z m 34.23453,-3.93667 0.26547,-28.83454 15,0.0508 c 16.53844,0.056 19.03456,0.73051 23.84109,6.44276 3.8176,4.53695 4.37221,9.25767 1.80228,15.34053 -2.10773,4.98883 -2.11014,5.0725 -0.20471,7.1071 6.76079,7.21917 4.68247,20.93837 -3.93922,26.00312 -3.07846,1.80842 -5.5163,2.09597 -20.26491,2.39026 l -16.76548,0.33455 0.26548,-28.83455 z m 27.17244,15.70083 c 3.36599,-1.27975 4.42904,-5.45411 2.05656,-8.07567 -1.4323,-1.58267 -3.09041,-1.9597 -8.61852,-1.9597 h -6.84501 v 4.83333 c 0,2.65834 0.3,5.13334 0.66667,5.5 1.00621,1.00622 9.85433,0.79928 12.7403,-0.29796 z m 0.39303,-23.23537 c 0.66,-0.66 1.19311,-2.3475 1.18469,-3.75 -0.0277,-4.60766 -1.38567,-5.52588 -8.19105,-5.53841 l -6.29364,-0.0116 -0.30226,5.25 -0.30226,5.25 h 6.35226 c 3.60731,0 6.87081,-0.51855 7.55226,-1.2 z m -74.8,-37.75619 v -7.04381 h 7.31639 7.3164 l -0.10897,6.75 -0.10896,6.75 -7.20743,0.29381 -7.20743,0.29381 z m 104,-0.0438 v -7 h 7.5 7.5 v 7 7 h -7.5 -7.5 z m 157,0 v -7 h 7.5 7.5 v 7 7 h -7.5 -7.5 z"
       id="path27298" /></g></svg>
