<svg xmlns:inkscape="http://www.inkscape.org/namespaces/inkscape" xmlns:sodipodi="http://sodipodi.sourceforge.net/DTD/sodipodi-0.dtd" xmlns="http://www.w3.org/2000/svg" xmlns:svg="http://www.w3.org/2000/svg" width="403.13638mm" height="69.64492mm" viewBox="0 0 403.13638 69.64492" id="svg2043" inkscape:version="1.2.2 (b0a8486541, 2022-12-01)" sodipodi:docname="essem.svg"><defs id="defs2040"></defs><g inkscape:label="Calque 1" inkscape:groupmode="layer" id="layer1" transform="translate(742.71226,101.52161)"><path id="path1349" style="fill:#1E293B;fill-opacity:1;stroke-width:0.885269;stroke-linecap:round;stroke-linejoin:round" d="m -706.77462,-101.50373 a 34.822693,34.822693 0 0 0 -10.29188,1.21285 34.822693,34.822693 0 0 0 -24.4383,42.682151 34.822693,34.822693 0 0 0 42.6191,24.54785 l 0.34571,-0.094 a 34.822693,34.822693 0 0 0 24.21816,-42.80772 34.822693,34.822693 0 0 0 -32.45279,-25.541081 z m -1.08728,1.34204 c 14.67362,0.004 28.12856,9.737681 32.21974,24.562841 4.90558,17.7763 -5.50215,36.17381 -23.26576,41.12514 a 0.1322915,0.1322915 0 0 1 -0.16227,-0.092 0.1322915,0.1322915 0 0 1 0.092,-0.16226 c 17.6261,-4.91299 27.9494,-23.16192 23.08179,-40.80061 -4.8676,-17.6387 -23.08898,-28.007851 -40.74015,-23.18566 -17.65117,4.82219 -28.06783,23.01616 -23.29108,40.67968 4.77675,17.66353 22.94347,28.12777 40.61923,23.39651 a 0.1322915,0.1322915 0 0 1 0.16226,0.0935 0.1322915,0.1322915 0 0 1 -0.0935,0.16227 c -17.81366,4.76817 -36.12975,-5.78277 -40.94376,-23.58409 -4.814,-17.80133 5.68772,-36.14389 23.4766,-41.0037 2.22361,-0.60748 4.45761,-0.97689 6.67195,-1.121381 v 5.2e-4 c 0.72658,-0.0474 1.45134,-0.071 2.17299,-0.0708 z m -0.8015,3.959961 c 0.68042,-0.003 1.353,0.25129 1.757,0.77515 l -0.43408,0.39222 c -0.31999,-0.40717 -0.87092,-0.62106 -1.40147,-0.60616 -0.53772,0.0151 -0.96163,0.26358 -0.95033,0.66508 0.0133,0.47317 0.56893,0.57269 1.19631,0.68419 0.78593,0.13576 1.67269,0.29709 1.69809,1.20044 0.024,0.85318 -0.75157,1.33445 -1.68362,1.36065 -0.73847,0.0208 -1.52802,-0.25114 -1.90324,-0.83613 l 0.44183,-0.35708 c 0.36421,0.44898 0.96479,0.63286 1.47381,0.61856 0.60224,-0.0169 1.04658,-0.29464 1.03508,-0.70331 -0.0131,-0.46603 -0.58997,-0.57193 -1.22473,-0.6904 -0.78633,-0.15009 -1.6519,-0.30521 -1.6769,-1.19424 -0.0236,-0.83885 0.74626,-1.28373 1.60662,-1.30793 0.022,-6.2e-4 0.0437,-9.5e-4 0.0656,-0.001 z m -4.51342,0.5209 c 0.52122,-1.6e-4 1.02968,0.15971 1.40663,0.50643 l -0.36121,0.45992 c -0.38434,-0.3471 -0.96432,-0.46426 -1.48467,-0.35967 -0.52739,0.106 -0.9023,0.42271 -0.8232,0.81649 0.0933,0.4644 0.65728,0.46729 1.29449,0.47129 0.79756,6.5e-4 1.69934,0.01 1.87741,0.89555 0.16819,0.83679 -0.51472,1.44253 -1.42886,1.62626 -0.72428,0.14557 -1.54906,0.0112 -2.01796,-0.50178 l 0.37517,-0.42633 c 0.43501,0.38083 1.05827,0.46001 1.55753,0.35967 0.59067,-0.11872 0.98132,-0.46787 0.90072,-0.86868 -0.0919,-0.45708 -0.67829,-0.46384 -1.32395,-0.47284 -0.80039,-0.0147 -1.67942,-0.0205 -1.85467,-0.89245 -0.16536,-0.82273 0.51785,-1.39206 1.36167,-1.56166 0.17228,-0.0346 0.34716,-0.0521 0.5209,-0.0522 z m 10.96212,0.0651 c 0.178,-0.003 0.36267,0.0163 0.54674,0.0558 0.6872,0.14769 1.30985,0.56006 1.58647,1.18442 l -0.5147,0.27802 c -0.21411,-0.47153 -0.69859,-0.81037 -1.2175,-0.92191 -0.52593,-0.11305 -0.99667,0.028 -1.08107,0.42065 -0.0995,0.46281 0.41648,0.69142 0.99942,0.94878 0.73118,0.31856 1.5547,0.68586 1.36478,1.56941 -0.17937,0.8345 -1.04746,1.11786 -1.95906,0.92191 -0.72223,-0.15525 -1.42451,-0.60715 -1.65002,-1.26453 l 0.51418,-0.24184 c 0.24714,0.52265 0.78679,0.84434 1.28467,0.95136 0.58903,0.12661 1.08664,-0.038 1.17254,-0.4377 0.098,-0.4558 -0.43734,-0.69583 -1.02578,-0.9617 -0.72817,-0.3326 -1.53203,-0.68852 -1.34513,-1.55804 0.13778,-0.64094 0.68877,-0.93361 1.32446,-0.94465 z m -14.60272,0.84026 0.20567,0.53589 -2.33733,0.89658 0.44184,1.15187 2.20348,-0.84542 0.20516,0.53588 -2.20297,0.84543 0.48317,1.25883 2.40399,-0.92242 0.20567,0.53537 -3.02048,1.1591 -1.54151,-4.01784 z m 19.45307,0.65991 c 0.31153,-0.004 0.63624,0.0571 0.95912,0.18862 0.6908,0.28145 1.11236,0.78639 1.30793,1.44694 l -0.55294,0.17777 c -0.16187,-0.51516 -0.50161,-0.87836 -0.9865,-1.07591 -0.8635,-0.35181 -1.71825,0.0355 -2.0836,0.93225 -0.35992,0.88343 -0.0288,1.76163 0.81597,2.12131 0.50875,0.21507 1.05944,0.17642 1.52859,-0.0816 l 0.2589,0.48472 c -0.65367,0.36877 -1.35034,0.42602 -2.0345,0.14728 -1.17574,-0.47901 -1.70085,-1.70004 -1.20561,-2.91559 0.36766,-0.90267 1.13138,-1.41402 1.99264,-1.42575 z m -24.16338,1.29966 2.23449,3.67782 -0.63097,0.38343 -3.8132,-1.70325 1.78387,2.93625 -0.5209,0.31678 -2.23449,-3.67781 0.62528,-0.37982 3.81269,1.70325 -1.78387,-2.93625 z m 28.11508,0.39688 0.55345,0.35967 -0.98495,1.51567 2.0867,1.3565 0.98495,-1.51567 0.55345,0.35967 -2.34507,3.60805 -0.55346,-0.35967 1.04748,-1.61127 -2.08669,-1.35651 -1.04748,1.61179 -0.55346,-0.35967 z m -32.75149,2.69131 2.71663,3.33778 -0.51728,0.42064 -2.71663,-3.33726 z m 37.43751,1.29553 c 0.56869,0.002 1.14082,0.23932 1.61799,0.71055 0.94925,0.93741 0.96815,2.26595 0.0408,3.20497 -0.92733,0.93926 -2.25635,0.93779 -3.21065,-0.005 v -5.2e-4 c -0.94925,-0.93741 -0.9728,-2.27111 -0.0455,-3.21014 0.46367,-0.4695 1.02863,-0.70236 1.59732,-0.70021 z m -38.90564,0.63665 c 0.0842,-8.8e-4 0.16862,0.004 0.25322,0.0155 l -0.032,0.58395 c -0.51385,-0.0643 -1.05654,0.17121 -1.42317,0.555 -0.37159,0.38898 -0.49765,0.86357 -0.20722,1.14102 0.3423,0.32699 0.80679,0.007 1.33118,-0.35502 0.65413,-0.45631 1.39859,-0.9653 2.05207,-0.34107 0.61717,0.58958 0.40379,1.4771 -0.24029,2.15129 -0.51031,0.53419 -1.26278,0.89656 -1.94097,0.74466 l 0.0631,-0.56482 c 0.57469,0.063 1.13135,-0.22863 1.48311,-0.59686 0.41617,-0.43565 0.53643,-0.94595 0.24081,-1.22835 -0.33711,-0.32204 -0.82197,0.009 -1.3565,0.37103 -0.66451,0.4464 -1.38833,0.94508 -2.0314,0.33073 -0.6068,-0.57967 -0.37284,-1.43746 0.22169,-2.05982 0.42484,-0.44473 0.99672,-0.74106 1.58646,-0.74724 z m 38.99349,0.0114 c -0.42074,-0.003 -0.84703,0.17336 -1.20044,0.53123 -0.68038,0.68896 -0.67946,1.64753 -0.016,2.3027 0.66854,0.66024 1.62193,0.65427 2.30735,-0.0398 0.68538,-0.69406 0.68456,-1.65284 0.016,-2.31303 -0.32136,-0.31734 -0.71167,-0.4783 -1.10691,-0.48111 z m -42.77207,3.35742 2.0407,1.33428 c 0.96048,0.62806 1.19339,1.76598 0.56535,2.72645 -0.61236,0.93647 -1.72678,1.13335 -2.70527,0.49351 l -2.01693,-1.31878 0.36122,-0.55242 2.03502,1.33066 c 0.67833,0.44357 1.44291,0.30949 1.8433,-0.30282 0.40824,-0.62431 0.22875,-1.38474 -0.44959,-1.82831 l -2.03502,-1.33067 z m 46.33981,0.37103 c 0.71579,0.003 1.39886,0.37523 1.86138,1.07436 0.73612,1.11258 0.48054,2.41631 -0.62011,3.14451 -1.10064,0.7282 -2.40031,0.45352 -3.14038,-0.66508 -0.73612,-1.11261 -0.48518,-2.42303 0.61547,-3.15123 0.41274,-0.27307 0.85417,-0.40428 1.28364,-0.40256 z m 0.032,0.66404 c -0.31159,0.005 -0.63441,0.10512 -0.93948,0.30696 -0.80754,0.53427 -1.00386,1.47239 -0.48937,2.24999 0.51845,0.78362 1.453,0.97388 2.26652,0.43564 0.81352,-0.53823 1.00937,-1.4762 0.49093,-2.25981 -0.32156,-0.48602 -0.80929,-0.74125 -1.3286,-0.73278 z m 3.72742,3.88762 0.25942,0.60668 -3.42305,1.46296 0.96997,2.26912 -0.53434,0.22841 -1.22886,-2.8758 z m -43.57874,0.18035 h 33.35869 v 11.04326 l -5.99963,-6.61045 h -12.49485 v 5.57899 h 6.91638 l 4.47053,-3.1719 v 11.42514 l -4.47053,-3.17138 h -6.91638 v 5.34954 h 12.11296 l 6.95461,-7.10706 v 12.11296 h -33.93178 l 6.11384,-5.61723 v -14.21466 z m -8.8625,0.14986 c 0.14383,0.002 0.28478,0.0341 0.41754,0.0884 0.35183,0.14395 0.60138,0.46311 0.66198,0.88315 0.37751,-0.41126 0.85493,-0.51812 1.25987,-0.35243 0.55763,0.22815 0.91911,0.87975 0.54157,1.80247 l -0.8475,2.07119 -3.98322,-1.62987 0.75241,-1.83865 c 0.31167,-0.76171 0.76584,-1.02968 1.19735,-1.02423 z m -0.0248,0.65888 c -0.24284,-0.003 -0.4828,0.15723 -0.66817,0.6103 l -0.49145,1.20148 1.2082,0.49454 0.50746,-1.24179 c 0.20642,-0.50452 0.0642,-0.857 -0.31419,-1.01182 -0.0797,-0.0326 -0.1609,-0.0517 -0.24185,-0.0527 z m 1.82263,0.50539 c -0.28715,0.01 -0.55161,0.25259 -0.74259,0.71934 l -0.5271,1.28778 1.23455,0.50539 0.58963,-1.44074 c 0.20371,-0.49787 0.0693,-0.87044 -0.30903,-1.02526 -0.0828,-0.0339 -0.16506,-0.0493 -0.24546,-0.0465 z m -3.51451,4.98781 0.91622,2.66341 2.73937,-0.007 -2.24948,1.69499 0.85318,2.60294 -2.30684,-1.61644 -2.21175,1.61644 0.82372,-2.69337 -2.22002,-1.60456 2.81585,-0.0486 z m 55.15942,0 0.83974,2.6076 2.81637,0.0486 -2.22054,1.60456 0.82424,2.69337 -2.21227,-1.61644 -2.30683,1.61644 0.85369,-2.60294 -2.24999,-1.69499 2.73937,0.007 z m -2.35593,11.10165 0.55604,0.14263 -0.62322,2.42466 1.19528,0.30696 0.58704,-2.28565 0.55552,0.14262 -0.58704,2.28565 1.30586,0.33538 0.64079,-2.4939 0.55604,0.14262 -0.80512,3.13315 -4.16822,-1.07074 z m -51.19894,0.71779 c 0.66293,-0.0161 1.16015,0.56508 1.36116,1.29088 0.1876,0.67737 0.11034,1.42094 -0.31471,1.95543 l -0.48473,-0.32711 c 0.31855,-0.40826 0.39436,-0.99486 0.2527,-1.50637 -0.14357,-0.51842 -0.48677,-0.87046 -0.87385,-0.76326 -0.45619,0.12635 -0.41934,0.68967 -0.37724,1.3255 0.0566,0.79555 0.11234,1.69512 -0.75861,1.93632 -0.82256,0.2278 -1.47558,-0.40986 -1.72444,-1.30845 -0.19717,-0.71197 -0.12248,-1.54395 0.35553,-2.04845 l 0.45269,0.34364 c -0.34859,0.46122 -0.38345,1.08847 -0.24753,1.57924 0.1608,0.58063 0.5372,0.94524 0.93121,0.83612 0.44924,-0.12442 0.41382,-0.70979 0.37672,-1.35444 -0.0428,-0.79939 -0.10007,-1.67672 0.75706,-1.91409 0.10109,-0.028 0.19933,-0.0427 0.29404,-0.045 z m 50.56952,3.53208 0.26665,0.58188 c -0.46932,0.20683 -0.80131,0.54597 -0.98547,0.9586 -0.41217,0.92351 -0.0744,1.82022 0.82941,2.22363 0.87767,0.39171 1.7987,0.0174 2.20503,-0.89297 0.35371,-0.79249 0.0865,-1.54805 -0.60978,-1.97662 l -0.68109,1.52601 -0.53072,-0.23668 0.92656,-2.07636 c 0.10046,0.0213 0.18568,0.0592 0.27078,0.0971 1.17895,0.52618 1.73566,1.65457 1.15394,2.95796 -0.55249,1.23812 -1.81656,1.76556 -2.98897,1.2423 -1.251,-0.55833 -1.70069,-1.80376 -1.12189,-3.10058 0.26601,-0.59602 0.69273,-1.04158 1.26555,-1.30432 z m -49.69102,0.49765 c 0.83904,-0.004 1.60014,0.4817 2.01073,1.35392 0.5682,1.20703 0.12796,2.46098 -1.06609,3.02307 -1.19405,0.56209 -2.44097,0.10248 -3.01222,-1.11104 -0.56821,-1.20703 -0.13106,-2.46719 1.06299,-3.02928 0.33582,-0.15808 0.67627,-0.23499 1.00459,-0.23667 z m 0.0636,0.67179 c -0.25192,-7.3e-4 -0.51572,0.058 -0.77773,0.18138 -0.87608,0.41241 -1.20535,1.31284 -0.80822,2.15646 0.40019,0.8501 1.29715,1.17252 2.17971,0.75706 0.8826,-0.41546 1.21203,-1.31565 0.81184,-2.16576 -0.27923,-0.59319 -0.80894,-0.92742 -1.4056,-0.92914 z m 47.01987,2.96209 3.66282,2.2593 -0.35036,0.56792 -3.66283,-2.25981 z m -43.70379,0.43925 0.36122,0.56069 -3.61632,2.33216 -0.36174,-0.56017 z m 43.01236,1.56011 c 0.28576,-0.007 0.54924,0.0951 0.75964,0.26407 0.39144,0.31441 0.55296,0.81251 0.3514,1.34979 0.63241,-0.32921 1.32453,-0.20618 2.14096,0.44958 l -0.41341,0.5147 c -0.84999,-0.6827 -1.67285,-0.69985 -2.24328,0.0103 l -0.56637,0.70435 1.35909,1.0914 -0.40876,0.50902 -3.35535,-2.69493 1.23093,-1.53221 c 0.37391,-0.46553 0.77775,-0.6567 1.14515,-0.66611 z m -42.33799,0.31316 c 0.46938,-5.4e-4 0.94753,0.29288 1.3069,0.72864 0.44725,0.54228 0.67954,1.25232 0.50901,1.91358 l -0.57619,-0.10129 c 0.12472,-0.50261 -0.0452,-1.06898 -0.38292,-1.47846 -0.34226,-0.41498 -0.79859,-0.59661 -1.10846,-0.34106 -0.36522,0.30118 -0.10207,0.80069 0.19534,1.36425 0.3757,0.70355 0.79283,1.50241 0.0956,2.0774 -0.65848,0.54304 -1.51464,0.22636 -2.10788,-0.493 -0.47005,-0.56995 -0.74065,-1.35994 -0.50953,-2.01538 l 0.55345,0.12971 c -0.13054,0.5632 0.093,1.15018 0.41703,1.54306 0.38333,0.46477 0.87573,0.64458 1.19114,0.38447 0.35968,-0.29663 0.0887,-0.81695 -0.20774,-1.39061 -0.36459,-0.71267 -0.77401,-1.49086 -0.0879,-2.05672 0.22255,-0.18354 0.46624,-0.2643 0.7121,-0.26459 z m 42.27804,0.32505 c -0.212,0.003 -0.44584,0.11387 -0.66817,0.39067 l -0.80822,1.00614 1.15187,0.92553 0.78134,-0.97307 c 0.36834,-0.45854 0.30676,-0.93115 -0.0176,-1.19166 -0.12233,-0.0983 -0.27435,-0.16032 -0.43925,-0.15761 z m -3.14657,2.34714 2.99775,3.08767 -0.47904,0.46457 -2.99724,-3.08767 z m -34.73225,1.82831 c 0.48003,-2.3e-4 0.97015,0.16522 1.41025,0.50126 0.59286,0.4527 0.86703,1.0502 0.88263,1.73892 l -0.57981,0.0269 c -0.0212,-0.53958 -0.2541,-0.97932 -0.67024,-1.29708 -0.74108,-0.56588 -1.66751,-0.41611 -2.25516,0.35347 -0.57894,0.75817 -0.48946,1.69279 0.23151,2.26136 0.43459,0.34086 0.97615,0.44745 1.49655,0.32143 l 0.12299,0.53588 c -0.72748,0.18451 -1.41479,0.0566 -2.00195,-0.39171 -1.00897,-0.77046 -1.19603,-2.0858 -0.39945,-3.12901 0.46555,-0.60969 1.10486,-0.92107 1.76268,-0.92139 z m 33.38763,0.10594 c 0.6784,0.008 1.2516,0.35475 1.62574,0.85163 0.64715,0.85948 0.69853,2.16767 -0.65371,3.18585 l -1.17461,0.88418 -2.58899,-3.43803 1.17461,-0.88418 c 0.57048,-0.42955 1.12189,-0.60495 1.61696,-0.59945 z m -0.10853,0.65422 c -0.36589,0.003 -0.77825,0.14057 -1.21336,0.46819 l -0.58446,0.44029 1.8681,2.48098 0.57775,-0.42581 c 1.04714,-0.77948 1.00769,-1.73758 0.53743,-2.36213 -0.26938,-0.35776 -0.68402,-0.60585 -1.18546,-0.60152 z m -30.13459,1.09244 2.78226,1.50534 -0.27337,0.50436 -2.20142,-1.19114 -0.58704,1.0852 2.07533,1.12293 -0.27337,0.50436 -2.07533,-1.12292 -0.6413,1.18597 2.26446,1.22525 -0.27337,0.50488 -2.84479,-1.53944 z m 24.90029,1.12087 1.86655,3.87779 -0.601,0.28939 -1.86655,-3.8778 z m -21.45347,0.65887 0.6196,0.22634 -1.27744,3.49643 2.31717,0.84698 -0.19896,0.5457 -2.93728,-1.07332 z m 19.95744,0.10335 0.76791,2.31459 c 0.36151,1.08917 -0.16347,2.12516 -1.25264,2.48667 -1.06194,0.35246 -2.05689,-0.18648 -2.42517,-1.29604 l -0.75913,-2.2872 0.6258,-0.20774 0.76636,2.30735 c 0.25531,0.76923 0.93759,1.13996 1.63194,0.9095 0.7079,-0.23494 1.03976,-0.9423 0.78445,-1.71152 l -0.76584,-2.30787 z m -16.68787,1.07487 0.64802,0.12558 -0.46251,2.38693 c -0.15413,0.7957 0.25948,1.45302 0.97772,1.59215 0.73233,0.14186 1.36825,-0.31224 1.52239,-1.10794 l 0.46199,-2.38694 0.64802,0.12558 -0.46354,2.39417 c -0.21824,1.12665 -1.18379,1.77266 -2.31045,1.55442 -1.09848,-0.21279 -1.70184,-1.16991 -1.4795,-2.31768 z m 10.70735,0.45941 c 1.1491,-0.005 2.04122,0.75652 2.2071,1.94096 0.0985,0.70322 -0.089,1.33057 -0.48886,1.78491 l 1.05214,0.73639 -0.37673,0.51624 -1.17357,-0.82785 c -0.27332,0.16865 -0.60409,0.28726 -0.96635,0.33796 -1.32115,0.18503 -2.3956,-0.60608 -2.57865,-1.91306 -0.18304,-1.30698 0.63234,-2.36266 1.9606,-2.54868 0.12386,-0.0173 0.24545,-0.0263 0.36432,-0.0269 z m -5.89886,0.3023 0.66559,0.0424 -0.27285,4.29483 -0.66559,-0.0424 z m 5.86734,0.29714 c -0.0839,-2e-5 -0.17011,0.006 -0.25735,0.0181 -0.92341,0.12933 -1.49645,0.89743 -1.36116,1.86345 0.1343,0.95893 0.89664,1.5406 1.82005,1.41128 0.93051,-0.13029 1.50471,-0.89173 1.36942,-1.85776 -0.1226,-0.87546 -0.75994,-1.43484 -1.57096,-1.43506 z"></path><g aria-label="ESSEM " id="g1391" style="font-size:11.9082px;line-height:1;font-family:'Indubitably NF';-inkscape-font-specification:'Indubitably NF';letter-spacing:7.9375px;word-spacing:1.32292px;fill:#1E293B;fill-opacity:1;stroke-width:1.15849;stroke-linecap:round;stroke-linejoin:round" transform="matrix(3.8430008,0,0,3.8430008,-609.30066,-774.8006)"><path d="m -4.4040835,185.43333 v -3.7749 l -2.1672925,2.21493 h -3.774899 v -1.66715 h 2.1553838 l 1.3932594,0.98838 v -3.56055 l -1.3932594,0.98838 h -2.1553838 v -1.7386 h 3.893981 l 1.8695875,2.06012 v -3.44147 H -14.978565 l 1.905312,1.75051 v 4.42985 l -1.905312,1.7505 z" id="path1381" style="fill:#1E293B;fill-opacity:1"></path><path d="m 12.595565,183.02788 c 0,-1.83386 -1.417076,-2.66744 -3.0484993,-2.9056 l -0.5835018,-0.0834 C 8.0466324,179.90789 7.1058846,179.81262 6.2008614,179.634 5.998422,179.5983 5.7126252,179.44347 5.7126252,179.09813 c 0,-0.46442 0.6906756,-0.61922 1.0479216,-0.61922 1.8934038,0 3.5486432,0.57159 4.8228212,2.01248 v -3.3462 l -1.39326,0.66686 c -0.9169309,-0.5716 -2.1196592,-0.7264 -3.179489,-0.7264 -1.6909644,0 -3.1913977,1.01219 -3.1913977,2.82224 0,3.03659 3.3700207,2.95323 5.5611296,3.26285 0.3334296,0.0476 1.0717381,0.0833 1.0717381,0.59541 0,0.4406 -0.8335741,0.63113 -1.1908201,0.63113 -2.0005777,0 -4.2750439,-0.7264 -5.168159,-2.67934 v 4.0726 l 1.4051677,-0.85739 c 0.9883806,0.54778 2.4054564,0.88121 3.5248273,0.88121 1.7028721,0 3.5724601,-0.83358 3.5724601,-2.78652 z" id="path1383" style="fill:#1E293B;fill-opacity:1"></path><path d="m 29.595203,183.02788 c 0,-1.83386 -1.417076,-2.66744 -3.0485,-2.9056 l -0.583502,-0.0834 c -0.916931,-0.13099 -1.857679,-0.22626 -2.762702,-0.40488 -0.202439,-0.0357 -0.488236,-0.19053 -0.488236,-0.53587 0,-0.46442 0.690675,-0.61922 1.047921,-0.61922 1.893404,0 3.548644,0.57159 4.822822,2.01248 v -3.3462 l -1.39326,0.66686 c -0.916931,-0.5716 -2.11966,-0.7264 -3.179489,-0.7264 -1.690965,0 -3.191398,1.01219 -3.191398,2.82224 0,3.03659 3.370021,2.95323 5.561129,3.26285 0.33343,0.0476 1.071738,0.0833 1.071738,0.59541 0,0.4406 -0.833574,0.63113 -1.19082,0.63113 -2.000577,0 -4.275043,-0.7264 -5.168158,-2.67934 v 4.0726 l 1.405167,-0.85739 c 0.988381,0.54778 2.405457,0.88121 3.524827,0.88121 1.702873,0 3.572461,-0.83358 3.572461,-2.78652 z" id="path1385" style="fill:#1E293B;fill-opacity:1"></path><path d="m 48.047645,185.43333 v -3.7749 l -2.167292,2.21493 h -3.7749 v -1.66715 h 2.155385 l 1.393259,0.98838 v -3.56055 l -1.393259,0.98838 h -2.155385 v -1.7386 h 3.893982 l 1.869587,2.06012 v -3.44147 H 37.473163 l 1.905312,1.75051 v 4.42985 l -1.905312,1.7505 z" id="path1387" style="fill:#1E293B;fill-opacity:1"></path><path d="m 69.715312,185.43333 -1.893404,-1.82195 v -4.27504 l 1.893404,-1.83387 h -5.906467 l -1.036014,3.59628 -1.047921,-3.59628 h -5.453956 l 1.941037,1.83387 v 4.27504 l -1.917221,1.82195 h 5.239608 l -1.821954,-1.82195 v -4.85855 l 1.988669,6.6805 h 1.39326 l 2.04821,-7.06156 v 5.23961 l -1.774322,1.82195 z" id="path1389" style="fill:#1E293B;fill-opacity:1"></path></g><g aria-label="BUSINESS SCHOOL " id="g1423" style="font-size:4.52547px;line-height:1;font-family:'Indubitably NF';-inkscape-font-specification:'Indubitably NF';letter-spacing:1.00549px;word-spacing:0px;fill:#1E293B;fill-opacity:1;stroke-width:0.44026;stroke-linecap:round;stroke-linejoin:round" transform="matrix(4.8196299,0,0,4.8196299,-639.541,-974.73196)"><path d="m -1.6504921,193.86267 c 0,-0.55211 -0.7240752,-0.79648 -1.1811476,-0.79648 0.4253941,0 1.0227561,-0.1946 1.0227561,-0.70598 0,-0.48422 -0.5294799,-0.75575 -0.9548741,-0.75575 h -3.063743 l 0.7240751,0.66524 v 1.68348 l -0.7240751,0.66524 h 3.2221344 c 0.4389706,0 0.9548742,-0.25795 0.9548742,-0.75575 z m -1.1675712,-0.14934 c 0,0.15839 -0.095035,0.31226 -0.2670027,0.31226 h -0.9865525 v -0.66525 h 0.9865525 c 0.1764933,0 0.2670027,0.19912 0.2670027,0.35299 z m -0.045255,-1.25356 c 0,0.15387 -0.095035,0.33036 -0.2670027,0.33036 h -0.9412978 v -0.66071 h 0.9412978 c 0.1764933,0 0.2670027,0.17196 0.2670027,0.33035 z" id="path1395" style="fill:#1E293B;fill-opacity:1"></path><path d="m 3.6360937,191.59994 c -0.1040858,-0.005 -0.2036461,-0.005 -0.3077319,-0.005 H 2.4006404 c -0.2443753,0 -0.4932762,0.005 -0.742177,0.005 l 0.6652441,0.68334 v 1.37122 c 0,0.37561 -0.4208687,0.52043 -0.7331261,0.52043 -0.307732,0 -0.71954974,-0.15839 -0.71954974,-0.52043 v -1.37574 l 0.66071854,-0.67882 c -0.3077319,0 -0.61093837,-0.005 -0.91867032,-0.005 h -1.14494385 c -0.12671316,0 -0.25342631,0 -0.38013946,0.005 l 0.7331261,0.69692 v 1.37574 c 0,0.33489 0.18554426,0.58379 0.45254698,0.77386 0.31678288,0.22627 0.69692235,0.31678 1.08611275,0.31678 0.375614,0 0.8010081,-0.0498 1.126842,-0.25343 0.2579517,-0.15839 0.4027668,-0.38919 0.4027668,-0.70145 v -1.49793 z" id="path1397" style="fill:#1E293B;fill-opacity:1"></path><path d="m 8.0854625,193.70428 c 0,-0.69692 -0.5385309,-1.01371 -1.1585202,-1.10422 l -0.2217481,-0.0317 c -0.3484611,-0.0498 -0.7059732,-0.086 -1.0499089,-0.15387 -0.076933,-0.0136 -0.1855443,-0.0724 -0.1855443,-0.20365 0,-0.17649 0.2624772,-0.23532 0.3982413,-0.23532 0.7195497,0 1.34859,0.21722 1.8328153,0.7648 v -1.27165 l -0.52948,0.25342 c -0.3484611,-0.21722 -0.8055336,-0.27605 -1.2083004,-0.27605 -0.6426167,0 -1.2128259,0.38466 -1.2128259,1.07254 0,1.15399 1.2807079,1.12231 2.1133944,1.23997 0.1267131,0.0181 0.4072923,0.0317 0.4072923,0.22628 0,0.16744 -0.3167829,0.23985 -0.452547,0.23985 -0.7602789,0 -1.6246437,-0.27606 -1.9640539,-1.01823 v 1.54771 l 0.5340054,-0.32584 c 0.375614,0.20818 0.9141449,0.33489 1.3395391,0.33489 0.6471422,0 1.3576409,-0.31678 1.3576409,-1.05896 z" id="path1399" style="fill:#1E293B;fill-opacity:1"></path><path d="m 11.430618,194.61842 -0.724076,-0.66524 v -1.68348 l 0.724076,-0.66524 H 8.9823385 l 0.7240752,0.66524 v 1.68348 l -0.7240752,0.66524 z" id="path1401" style="fill:#1E293B;fill-opacity:1"></path><path d="m 16.929902,191.60446 h -2.072665 l 0.755754,0.69692 v 0.93225 l -1.267132,-1.62917 h -1.783035 l 0.71955,0.69692 v 1.62465 l -0.737652,0.69239 h 2.063614 l -0.755753,-0.69239 v -1.03634 l 1.285233,1.72873 h 1.054435 v -2.31704 z" id="path1403" style="fill:#1E293B;fill-opacity:1"></path><path d="m 22.06262,194.61842 v -1.43457 l -0.823635,0.84174 h -1.434574 v -0.63357 h 0.81911 l 0.52948,0.37562 v -1.35312 l -0.52948,0.37561 h -0.81911 v -0.66071 h 1.479828 l 0.710499,0.7829 v -1.30786 h -3.950735 l 0.724075,0.66524 v 1.68348 l -0.724075,0.66524 z" id="path1405" style="fill:#1E293B;fill-opacity:1"></path><path d="m 26.511995,193.70428 c 0,-0.69692 -0.538531,-1.01371 -1.15852,-1.10422 l -0.221748,-0.0317 c -0.348461,-0.0498 -0.705973,-0.086 -1.049909,-0.15387 -0.07693,-0.0136 -0.185544,-0.0724 -0.185544,-0.20365 0,-0.17649 0.262477,-0.23532 0.398241,-0.23532 0.71955,0 1.34859,0.21722 1.832815,0.7648 v -1.27165 l -0.52948,0.25342 c -0.348461,-0.21722 -0.805533,-0.27605 -1.2083,-0.27605 -0.642617,0 -1.212826,0.38466 -1.212826,1.07254 0,1.15399 1.280708,1.12231 2.113394,1.23997 0.126714,0.0181 0.407293,0.0317 0.407293,0.22628 0,0.16744 -0.316783,0.23985 -0.452547,0.23985 -0.760279,0 -1.624644,-0.27606 -1.964054,-1.01823 v 1.54771 l 0.534005,-0.32584 c 0.375614,0.20818 0.914145,0.33489 1.339539,0.33489 0.647143,0 1.357641,-0.31678 1.357641,-1.05896 z" id="path1407" style="fill:#1E293B;fill-opacity:1"></path><path d="m 30.961369,193.70428 c 0,-0.69692 -0.538531,-1.01371 -1.158521,-1.10422 l -0.221748,-0.0317 c -0.348461,-0.0498 -0.705973,-0.086 -1.049909,-0.15387 -0.07693,-0.0136 -0.185544,-0.0724 -0.185544,-0.20365 0,-0.17649 0.262477,-0.23532 0.398241,-0.23532 0.71955,0 1.34859,0.21722 1.832816,0.7648 v -1.27165 l -0.52948,0.25342 c -0.348462,-0.21722 -0.805534,-0.27605 -1.208301,-0.27605 -0.642617,0 -1.212826,0.38466 -1.212826,1.07254 0,1.15399 1.280708,1.12231 2.113395,1.23997 0.126713,0.0181 0.407292,0.0317 0.407292,0.22628 0,0.16744 -0.316783,0.23985 -0.452547,0.23985 -0.760279,0 -1.624644,-0.27606 -1.964054,-1.01823 v 1.54771 l 0.534006,-0.32584 c 0.375614,0.20818 0.914144,0.33489 1.339539,0.33489 0.647142,0 1.357641,-0.31678 1.357641,-1.05896 z" id="path1409" style="fill:#1E293B;fill-opacity:1"></path><path d="m 37.547596,193.70428 c 0,-0.69692 -0.538531,-1.01371 -1.15852,-1.10422 l -0.221748,-0.0317 c -0.348462,-0.0498 -0.705974,-0.086 -1.049909,-0.15387 -0.07693,-0.0136 -0.185545,-0.0724 -0.185545,-0.20365 0,-0.17649 0.262478,-0.23532 0.398242,-0.23532 0.719549,0 1.34859,0.21722 1.832815,0.7648 v -1.27165 l -0.52948,0.25342 c -0.348461,-0.21722 -0.805534,-0.27605 -1.2083,-0.27605 -0.642617,0 -1.212826,0.38466 -1.212826,1.07254 0,1.15399 1.280708,1.12231 2.113394,1.23997 0.126713,0.0181 0.407292,0.0317 0.407292,0.22628 0,0.16744 -0.316783,0.23985 -0.452547,0.23985 -0.760279,0 -1.624643,-0.27606 -1.964053,-1.01823 v 1.54771 l 0.534005,-0.32584 c 0.375614,0.20818 0.914145,0.33489 1.339539,0.33489 0.647142,0 1.357641,-0.31678 1.357641,-1.05896 z" id="path1411" style="fill:#1E293B;fill-opacity:1"></path><path d="m 42.250394,192.99831 v -1.4391 l -0.389191,0.32583 c -0.357512,-0.25795 -0.796483,-0.38919 -1.235453,-0.38919 -0.972976,0 -1.964054,0.70145 -1.964054,1.63822 0,1.02276 1.05896,1.63369 1.982156,1.63369 0.837212,0 1.724204,-0.34846 1.724204,-1.16757 0,-0.15839 -0.04526,-0.30773 -0.171968,-0.41181 -0.06336,0.66976 -0.597362,0.98655 -1.135893,0.98655 -0.588311,0 -1.181148,-0.37562 -1.181148,-1.07706 0,-0.71955 0.4797,-1.02276 1.013706,-1.02276 0.574734,0 1.203775,0.35299 1.357641,0.9232 z" id="path1413" style="fill:#1E293B;fill-opacity:1"></path><path d="m 48.120768,194.61842 -0.724075,-0.66524 v -1.68348 l 0.724075,-0.66524 h -2.36682 l 0.57926,0.66524 v 0.4073 h -1.163046 v -0.4073 l 0.583786,-0.66524 h -2.371347 l 0.724076,0.66524 v 1.68348 l -0.724076,0.66524 h 2.371347 l -0.583786,-0.66524 v -0.52948 h 1.163046 v 0.52948 l -0.57926,0.66524 z" id="path1415" style="fill:#1E293B;fill-opacity:1"></path><path d="m 52.669693,193.17932 c 0,-1.0137 -0.977501,-1.68347 -1.918799,-1.68347 -0.941298,0 -1.918799,0.67429 -1.918799,1.68347 0,1.01823 0.995603,1.58844 1.918799,1.58844 0.923196,0 1.918799,-0.56568 1.918799,-1.58844 z m -1.199249,-0.0498 c 0,0.42992 -0.185545,1.05444 -0.715025,1.05444 -0.52948,0 -0.719549,-0.62452 -0.719549,-1.05444 0,-0.42086 0.194595,-1.09969 0.719549,-1.09969 0.520429,0 0.715025,0.67883 0.715025,1.09969 z" id="path1417" style="fill:#1E293B;fill-opacity:1"></path><path d="m 57.621391,193.17932 c 0,-1.0137 -0.977501,-1.68347 -1.918799,-1.68347 -0.941297,0 -1.918799,0.67429 -1.918799,1.68347 0,1.01823 0.995603,1.58844 1.918799,1.58844 0.923196,0 1.918799,-0.56568 1.918799,-1.58844 z m -1.199249,-0.0498 c 0,0.42992 -0.185544,1.05444 -0.715024,1.05444 -0.52948,0 -0.71955,-0.62452 -0.71955,-1.05444 0,-0.42086 0.194595,-1.09969 0.71955,-1.09969 0.520429,0 0.715024,0.67883 0.715024,1.09969 z" id="path1419" style="fill:#1E293B;fill-opacity:1"></path><path d="m 62.238205,194.61842 v -1.62011 l -0.905094,1.02728 h -1.276183 v -1.75589 l 0.724075,-0.66524 h -2.448279 l 0.724075,0.66524 v 1.68348 l -0.724075,0.66524 z" id="path1421" style="fill:#1E293B;fill-opacity:1"></path></g></g></svg>