<?xml version="1.0" encoding="UTF-8" standalone="no"?>
<svg viewBox="0 0 1009.022 291.99293" version="1.1" id="svg14781" sodipodi:docname="fitnespark-vectorized-white.svg"
  width="1009.022" height="291.99292" inkscape:version="1.2.2 (b0a8486541, 2022-12-01)" xml:space="preserve"
  xmlns:inkscape="http://www.inkscape.org/namespaces/inkscape"
  xmlns:sodipodi="http://sodipodi.sourceforge.net/DTD/sodipodi-0.dtd" xmlns="http://www.w3.org/2000/svg"
  xmlns:svg="http://www.w3.org/2000/svg" xmlns:rdf="http://www.w3.org/1999/02/22-rdf-syntax-ns#"
  xmlns:cc="http://creativecommons.org/ns#" xmlns:dc="http://purl.org/dc/elements/1.1/">
  <sodipodi:namedview id="namedview14783" pagecolor="#1E293B" bordercolor="#000000" borderopacity="0.25"
    inkscape:showpageshadow="2" inkscape:pageopacity="0.0" inkscape:pagecheckerboard="0" inkscape:deskcolor="#d1d1d1"
    showgrid="false" inkscape:zoom="0.57951087" inkscape:cx="545.28744" inkscape:cy="398.61202"
    inkscape:window-width="1916" inkscape:window-height="1157" inkscape:window-x="0" inkscape:window-y="41"
    inkscape:window-maximized="1" inkscape:current-layer="Calque_1-2" />
  <defs id="defs14707">
    <style id="style14705">
      .cls-1 {
        fill:#1E293Bcls-2 {
          fill: #1E293B;
        }
    </style>
    <style id="style7363">
      .cls-1 {
        fill: #1E293B;
      }

      .cls-2 {
        fill: #1E293B;
      }
    </style>
  </defs>
  <title id="title14709">Fichier 1</title>
  <g id="Calque_2" data-name="Calque 2" style="fill:#1E293B;fill-opacity:1" transform="translate(66.335018,746.89447)">
    <g id="Calque_1-2" data-name="Calque 1" style="fill:#1E293B;fill-opacity:1">
      <g id="Calque_1-2-6" data-name="Calque 1" transform="translate(-59.663031,-662.02801)">
        <path class="cls-1"
          d="M 32.29,2.31 H 102 L 96.68,27.36 H 57.62 l -4.28,20.1 h 36.6 L 84.82,71.53 H 48.24 L 37.94,120 H 7.28 Z"
          id="path7369" />
        <path class="cls-1" d="m 112.06,2.31 h 30.65 L 117.7,120 H 87 Z" id="path7371" />
        <path class="cls-1" d="m 167.66,28.35 h -23.07 l 5.54,-26 h 76.8 l -5.53,26 H 198.32 L 178.85,120 h -30.66 z"
          id="path7373" />
        <path class="cls-1"
          d="m 235.49,2.31 h 34.29 l 4.37,72.52 h 0.33 L 289.87,2.31 h 28.68 L 293.54,120 h -33.62 l -5,-72.68 h -0.33 L 239.16,120 h -28.67 z"
          id="path7375" />
        <path class="cls-1"
          d="m 334.71,2.31 h 69.71 l -5.33,25.05 H 360 l -4.28,20.1 h 36.59 l -5.11,24.06 h -36.55 l -5,23.41 h 40.54 l -5.32,25 H 309.7 Z"
          id="path7377" />
        <path class="cls-1"
          d="m 457.36,36.26 0.59,-2.8 c 1.47,-6.92 -0.11,-12.69 -6,-12.69 -6.59,0 -10.65,5.11 -11.76,10.39 -4.98,23.23 47.54,11.84 38.4,54.84 -5.33,25 -22.37,36.26 -49.4,36.26 -25.39,0 -37.7,-8.73 -32.51,-33.12 l 0.87,-4.12 h 29.66 l -0.59,2.8 c -2.13,10.06 1.21,13.68 7.14,13.68 6.26,0 10.95,-4.94 12.31,-11.37 C 451.01,66.9 400.44,78.43 409.3,36.73 414.33,13 429.8,0 455.67,0 c 26.7,0 35.72,11 30.37,36.26 z"
          id="path7379" />
        <path class="cls-1"
          d="m 547.5,36.26 0.6,-2.8 c 1.47,-6.92 -0.11,-12.69 -6,-12.69 -6.59,0 -10.64,5.11 -11.76,10.39 -4.98,23.23 47.53,11.84 38.39,54.84 -5.32,25 -22.37,36.26 -49.4,36.26 -25.38,0 -37.7,-8.73 -32.51,-33.12 l 0.88,-4.12 h 29.66 l -0.6,2.8 c -2.13,10.06 1.22,13.68 7.15,13.68 6.26,0 10.94,-4.94 12.3,-11.37 C 541.15,66.9 490.57,78.43 499.43,36.73 504.48,13 520,0 545.82,0 c 26.7,0 35.72,11 30.36,36.26 z"
          id="path7381" />
        <path class="cls-1"
          d="m 642.4,2.31 h 46 c 23.38,0 30.6,15.69 26.22,36.26 -5.12,24.06 -21.46,36.58 -46.35,36.58 h -10.7 L 648,120 h -30.61 z m 19.86,50.75 H 668 c 7.74,0 12.81,-4.45 14.92,-14.33 C 685,29 681.87,24.4 674.12,24.4 h -5.76 z"
          id="path7383" />
        <path class="cls-1"
          d="m 746.9,2.31 h 38.57 L 789.14,120 H 756.5 l 1.25,-20.6 h -24.39 l -7.51,20.6 h -32.63 z m 14.33,24.06 h -0.33 l -19,49.94 H 759 Z"
          id="path7385" />
        <path class="cls-1"
          d="m 820.9,2.31 h 48 c 23.4,0 29.5,13.19 25.64,31.32 -3.32,15.65 -11.59,25.87 -26.06,28 l -0.07,0.33 c 14.55,1.31 17,10.71 13.68,26.36 l -2.14,10.06 c -1.29,6.09 -3,14 -2,16.31 0.54,1.32 0.92,2.63 2.69,3.62 l -0.36,1.65 h -32.64 c -1.64,-6.26 0.75,-17.48 1.8,-22.42 l 1.68,-7.91 c 2.84,-13.35 0.94,-16.81 -6.47,-16.81 h -8.08 l -10,47.13 H 795.89 Z M 841,52.08 h 6.1 c 8.73,0 14,-5.6 15.83,-14 2,-9.56 -0.88,-13.68 -10.11,-13.68 h -5.94 z"
          id="path7387" />
        <path class="cls-1"
          d="m 916,2.31 h 30.64 L 937,47.46 h 0.34 L 969.71,2.31 h 32.64 L 961.75,53.73 981,120 h -35 l -9.24,-41 -8.53,9.89 -6.59,31.11 H 891 Z"
          id="path7389" />
        <polygon class="cls-2" points="0,155.94 2.39,144.68 976.1,144.68 973.7,155.94 " id="polygon7391"
          style="fill:#1E293B;fill-opacity:1" />
        <g id="g9503" transform="matrix(1.2485513,0,0,1.2485513,-137.69496,-47.091072)">
          <path class="cls-1"
            d="m 104.94,200.26 2.7,-3.23 a 9.52,9.52 0 0 0 6.2,2.52 c 1.87,0 3,-0.74 3,-2 v -0.06 c 0,-1.16 -0.71,-1.75 -4.18,-2.64 -4.18,-1.07 -6.88,-2.22 -6.88,-6.35 v -0.06 c 0,-3.77 3,-6.26 7.27,-6.26 a 12,12 0 0 1 7.71,2.64 l -2.37,3.44 a 9.75,9.75 0 0 0 -5.4,-2 c -1.75,0 -2.67,0.8 -2.67,1.81 v 0.06 c 0,1.36 0.89,1.81 4.48,2.73 4.21,1.1 6.58,2.61 6.58,6.23 v 0.06 c 0,4.12 -3.14,6.44 -7.62,6.44 a 13.22,13.22 0 0 1 -8.82,-3.33 z"
            id="path7393" />
          <path class="cls-1"
            d="m 137.79,182.53 h 15.66 v 4.06 h -11.12 v 4.21 h 9.79 v 4.06 h -9.79 v 4.36 h 11.27 v 4.06 h -15.81 z"
            id="path7395" />
          <path class="cls-1"
            d="m 191.46,182.53 h 8.1 c 6.52,0 11,4.48 11,10.32 v 0.06 c 0,5.84 -4.51,10.38 -11,10.38 h -8.1 z m 4.57,4.12 v 12.51 h 3.53 a 5.92,5.92 0 0 0 6.26,-6.2 v -0.06 a 6,6 0 0 0 -6.26,-6.26 z"
            id="path7397" />
          <path class="cls-1"
            d="m 227.09,182.53 h 15.66 v 4.06 h -11.12 v 4.21 h 9.79 v 4.06 h -9.79 v 4.36 h 11.27 v 4.06 h -15.81 z m 9.64,-6.29 3.88,1.69 -4,3 h -3.44 z"
            id="path7399" />
          <path class="cls-1"
            d="m 259.41,182.53 h 8.48 c 5,0 7.95,2.94 7.95,7.18 v 0.06 c 0,4.8 -3.74,7.3 -8.39,7.3 H 264 v 6.23 h -4.57 z M 267.6,193 c 2.28,0 3.62,-1.36 3.62,-3.14 v -0.06 c 0,-2 -1.42,-3.14 -3.71,-3.14 H 264 V 193 Z"
            id="path7401" />
          <path class="cls-1"
            d="m 296.71,182.38 h 4.21 l 8.9,20.91 H 305 l -1.9,-4.66 h -8.78 l -1.9,4.66 h -4.66 z m 4.8,12.22 -2.76,-6.73 -2.75,6.73 z"
            id="path7403" />
          <path class="cls-1"
            d="m 323.75,200.26 2.7,-3.23 a 9.52,9.52 0 0 0 6.2,2.52 c 1.87,0 3,-0.74 3,-2 v -0.06 c 0,-1.16 -0.71,-1.75 -4.18,-2.64 -4.18,-1.07 -6.88,-2.22 -6.88,-6.35 v -0.06 c 0,-3.77 3,-6.26 7.27,-6.26 a 12,12 0 0 1 7.71,2.64 l -2.37,3.44 a 9.75,9.75 0 0 0 -5.4,-2 c -1.75,0 -2.67,0.8 -2.67,1.81 v 0.06 c 0,1.36 0.89,1.81 4.48,2.73 4.21,1.1 6.58,2.61 6.58,6.23 v 0.06 c 0,4.12 -3.14,6.44 -7.62,6.44 a 13.21,13.21 0 0 1 -8.82,-3.33 z"
            id="path7405" />
          <path class="cls-1"
            d="m 354.88,200.26 2.7,-3.23 a 9.52,9.52 0 0 0 6.2,2.52 c 1.87,0 3,-0.74 3,-2 v -0.06 c 0,-1.16 -0.71,-1.75 -4.18,-2.64 -4.18,-1.07 -6.88,-2.22 -6.88,-6.35 v -0.06 c 0,-3.77 3,-6.26 7.27,-6.26 a 12,12 0 0 1 7.71,2.64 l -2.37,3.44 a 9.75,9.75 0 0 0 -5.4,-2 c -1.75,0 -2.67,0.8 -2.67,1.81 v 0.06 c 0,1.36 0.89,1.81 4.48,2.73 4.21,1.1 6.58,2.61 6.58,6.23 v 0.06 c 0,4.12 -3.14,6.44 -7.62,6.44 a 13.21,13.21 0 0 1 -8.82,-3.33 z"
            id="path7407" />
          <path class="cls-1"
            d="m 387.73,182.53 h 15.66 v 4.06 h -11.12 v 4.21 h 9.79 v 4.06 h -9.79 v 4.36 h 11.27 v 4.06 h -15.81 z"
            id="path7409" />
          <path class="cls-1"
            d="m 420,182.53 h 9.49 a 8.27,8.27 0 0 1 6.05,2.11 6.52,6.52 0 0 1 1.78,4.75 v 0.06 a 6.45,6.45 0 0 1 -4.45,6.43 l 5.07,7.41 h -5.34 l -4.45,-6.64 h -3.59 v 6.64 H 420 Z m 9.19,10.08 c 2.22,0 3.5,-1.19 3.5,-2.94 v -0.06 c 0,-2 -1.36,-3 -3.59,-3 h -4.54 v 6 z"
            id="path7411" />
          <path class="cls-1" d="m 474.27,191.93 h 9.13 v 4.33 h -9.13 z" id="path7413" />
          <path class="cls-1"
            d="m 519.75,200.26 2.7,-3.23 a 9.52,9.52 0 0 0 6.2,2.52 c 1.87,0 3,-0.74 3,-2 v -0.06 c 0,-1.16 -0.71,-1.75 -4.18,-2.64 -4.18,-1.07 -6.88,-2.22 -6.88,-6.35 v -0.06 c 0,-3.77 3,-6.26 7.27,-6.26 a 12,12 0 0 1 7.71,2.64 l -2.37,3.44 a 9.75,9.75 0 0 0 -5.4,-2 c -1.75,0 -2.67,0.8 -2.67,1.81 v 0.06 c 0,1.36 0.89,1.81 4.48,2.73 4.21,1.1 6.58,2.61 6.58,6.23 v 0.06 c 0,4.12 -3.14,6.44 -7.62,6.44 a 13.22,13.22 0 0 1 -8.82,-3.33 z"
            id="path7415" />
          <path class="cls-1"
            d="m 552.6,182.53 h 15.66 v 4.06 h -11.12 v 4.21 h 9.79 v 4.06 h -9.79 v 4.36 h 11.27 v 4.06 H 552.6 Z"
            id="path7417" />
          <path class="cls-1"
            d="m 604.84,200.26 2.7,-3.23 a 9.52,9.52 0 0 0 6.2,2.52 c 1.87,0 3,-0.74 3,-2 v -0.06 c 0,-1.16 -0.71,-1.75 -4.18,-2.64 -4.18,-1.07 -6.88,-2.22 -6.88,-6.35 v -0.06 c 0,-3.77 3,-6.26 7.27,-6.26 a 12,12 0 0 1 7.71,2.64 l -2.37,3.44 a 9.75,9.75 0 0 0 -5.4,-2 c -1.75,0 -2.67,0.8 -2.67,1.81 v 0.06 c 0,1.36 0.89,1.81 4.48,2.73 4.21,1.1 6.58,2.61 6.58,6.23 v 0.06 c 0,4.12 -3.14,6.44 -7.62,6.44 a 13.22,13.22 0 0 1 -8.82,-3.33 z"
            id="path7419" />
          <path class="cls-1"
            d="m 637.37,194.39 v -11.86 h 4.57 v 11.74 c 0,3.38 1.69,5.13 4.48,5.13 2.79,0 4.48,-1.69 4.48,-5 v -11.87 h 4.57 v 11.71 c 0,6.29 -3.53,9.37 -9.1,9.37 -5.57,0 -9,-3.11 -9,-9.22 z"
            id="path7421" />
          <path class="cls-1"
            d="M 672.56,182.53 H 682 a 8.27,8.27 0 0 1 6.05,2.11 6.52,6.52 0 0 1 1.78,4.75 v 0.06 a 6.45,6.45 0 0 1 -4.45,6.43 l 5.07,7.41 h -5.34 l -4.45,-6.64 h -3.59 v 6.64 h -4.57 z m 9.19,10.08 c 2.22,0 3.5,-1.19 3.5,-2.94 v -0.06 c 0,-2 -1.36,-3 -3.59,-3 h -4.54 v 6 z"
            id="path7423" />
          <path class="cls-1"
            d="m 706.45,182.53 h 8.48 c 5,0 7.95,2.94 7.95,7.18 v 0.06 c 0,4.8 -3.74,7.3 -8.39,7.3 H 711 v 6.23 h -4.57 z m 8.18,10.47 c 2.28,0 3.62,-1.36 3.62,-3.14 v -0.06 c 0,-2 -1.42,-3.14 -3.71,-3.14 H 711 V 193 Z"
            id="path7425" />
          <path class="cls-1"
            d="M 743.75,182.38 H 748 l 8.9,20.91 h -4.77 l -1.9,-4.66 h -8.83 l -1.9,4.66 h -4.66 z m 4.8,12.22 -2.76,-6.73 -2.79,6.73 z"
            id="path7427" />
          <path class="cls-1"
            d="m 770.78,200.26 2.7,-3.23 a 9.52,9.52 0 0 0 6.2,2.52 c 1.87,0 3,-0.74 3,-2 v -0.06 c 0,-1.16 -0.71,-1.75 -4.18,-2.64 -4.18,-1.07 -6.88,-2.22 -6.88,-6.35 v -0.06 c 0,-3.77 3,-6.26 7.27,-6.26 a 12,12 0 0 1 7.71,2.64 l -2.37,3.44 a 9.75,9.75 0 0 0 -5.4,-2 c -1.75,0 -2.67,0.8 -2.67,1.81 v 0.06 c 0,1.36 0.89,1.81 4.48,2.73 4.21,1.1 6.58,2.61 6.58,6.23 v 0.06 c 0,4.12 -3.14,6.44 -7.62,6.44 a 13.21,13.21 0 0 1 -8.82,-3.33 z"
            id="path7429" />
          <path class="cls-1"
            d="m 801.91,200.26 2.7,-3.23 a 9.52,9.52 0 0 0 6.2,2.52 c 1.87,0 3,-0.74 3,-2 v -0.06 c 0,-1.16 -0.71,-1.75 -4.18,-2.64 -4.18,-1.07 -6.88,-2.22 -6.88,-6.35 v -0.06 c 0,-3.77 3,-6.26 7.27,-6.26 a 12,12 0 0 1 7.71,2.64 l -2.37,3.44 a 9.75,9.75 0 0 0 -5.4,-2 c -1.75,0 -2.67,0.8 -2.67,1.81 v 0.06 c 0,1.36 0.89,1.81 4.48,2.73 4.21,1.1 6.58,2.61 6.58,6.23 v 0.06 c 0,4.12 -3.14,6.44 -7.62,6.44 a 13.21,13.21 0 0 1 -8.82,-3.33 z"
            id="path7431" />
          <path class="cls-1"
            d="m 834.76,182.53 h 15.66 v 4.06 H 839.3 v 4.21 h 9.79 v 4.06 h -9.79 v 4.36 h 11.27 v 4.06 h -15.81 z"
            id="path7433" />
          <path class="cls-1"
            d="m 867.08,182.53 h 9.49 a 8.27,8.27 0 0 1 6.05,2.11 6.52,6.52 0 0 1 1.78,4.75 v 0.06 a 6.45,6.45 0 0 1 -4.45,6.43 l 5.07,7.41 h -5.34 l -4.45,-6.64 h -3.59 v 6.64 h -4.57 z m 9.19,10.08 c 2.22,0 3.5,-1.19 3.5,-2.94 v -0.06 c 0,-2 -1.36,-3 -3.59,-3 h -4.54 v 6 z"
            id="path7435" />
        </g>
      </g>
    </g>
  </g>
  <metadata id="metadata15644">
    <rdf:RDF>
      <cc:Work rdf:about="">
        <dc:title>Fichier 1</dc:title>
      </cc:Work>
    </rdf:RDF>
  </metadata>
</svg>