<?xml version="1.0" encoding="UTF-8" standalone="no"?>
<!-- Created with Inkscape (http://www.inkscape.org/) -->

<svg
   width="146.28107mm"
   height="66.54538mm"
   viewBox="0 0 146.28107 66.54538"
   version="1.1"
   id="svg5"
   xml:space="preserve"
   inkscape:version="1.2.2 (b0a8486541, 2022-12-01)"
   sodipodi:docname="icat.svg"
   xmlns:inkscape="http://www.inkscape.org/namespaces/inkscape"
   xmlns:sodipodi="http://sodipodi.sourceforge.net/DTD/sodipodi-0.dtd"
   xmlns="http://www.w3.org/2000/svg"
   xmlns:svg="http://www.w3.org/2000/svg"><sodipodi:namedview
     id="namedview7"
     pagecolor="#ffffff"
     bordercolor="#000000"
     borderopacity="0.25"
     inkscape:showpageshadow="2"
     inkscape:pageopacity="0.0"
     inkscape:pagecheckerboard="0"
     inkscape:deskcolor="#d1d1d1"
     inkscape:document-units="mm"
     showgrid="false"
     showguides="true"
     inkscape:zoom="0.4204826"
     inkscape:cx="380.51515"
     inkscape:cy="52.320833"
     inkscape:window-width="1916"
     inkscape:window-height="1157"
     inkscape:window-x="0"
     inkscape:window-y="41"
     inkscape:window-maximized="1"
     inkscape:current-layer="layer1"><sodipodi:guide
       position="3.9561707e-07,65.789008"
       orientation="1,0"
       id="guide2203"
       inkscape:locked="false" /><sodipodi:guide
       position="146.28084,54.343578"
       orientation="1,0"
       id="guide2205"
       inkscape:locked="false" /></sodipodi:namedview><defs
     id="defs2" /><g
     inkscape:label="Calque 1"
     inkscape:groupmode="layer"
     id="layer1"
     transform="translate(150.7764,-113.49531)"><path
       id="rect2207"
       style="opacity:1;fill:#1E293B;fill-opacity:1;stroke:none;stroke-width:1.32292;stroke-linejoin:round"
       d="m -150.77633,165.97333 v 14.06736 H -4.4953328 v -14.06736 z m 54.626643,2.24948 h 2.50114 v 9.787 h -2.50114 z m 54.840581,0 h 2.2965 v 1.77663 h -2.2965 z m 29.894816,0 h 2.2959835 v 9.787 H -11.41429 Z m -69.043331,0.0956 v 2.61069 h 1.39423 v 1.6676 h -1.39423 v 2.74764 0.45113 c 0.0091,0.12758 0.02744,0.24134 0.05478,0.34158 0.03645,0.0911 0.09091,0.16392 0.163814,0.21859 0.0729,0.0547 0.173178,0.0822 0.300757,0.0822 0.127579,0 0.259666,-0.0183 0.396358,-0.0548 0.145805,-0.0456 0.287055,-0.0909 0.423747,-0.13642 l 0.177767,1.66759 c -0.191369,0.0456 -0.355268,0.0865 -0.49196,0.12299 -0.136692,0.0365 -0.268779,0.0634 -0.396358,0.0816 -0.118466,0.0182 -0.237068,0.0322 -0.355534,0.0413 -0.118466,0.009 -0.250554,0.0134 -0.396358,0.0134 -0.537655,0 -0.952243,-0.0728 -1.243852,-0.21859 -0.291609,-0.14581 -0.505646,-0.34152 -0.642338,-0.58756 -0.136692,-0.25516 -0.219158,-0.54682 -0.246497,-0.87488 -0.02734,-0.32806 -0.04082,-0.67471 -0.04082,-1.03922 v -2.85667 h -0.929659 v -1.6676 h 0.929659 v -1.36684 z m 36.455656,0 v 2.61069 h 1.39423 v 1.6676 h -1.39423 v 2.74764 0.45113 c 0.0091,0.12758 0.02744,0.24134 0.05478,0.34158 0.03645,0.0911 0.09091,0.16392 0.163814,0.21859 0.0729,0.0547 0.173178,0.0822 0.300757,0.0822 0.127579,0 0.259666,-0.0183 0.396358,-0.0548 0.145805,-0.0456 0.287055,-0.0909 0.423747,-0.13642 l 0.177767,1.66759 c -0.191369,0.0456 -0.355268,0.0865 -0.49196,0.12299 -0.136692,0.0365 -0.268779,0.0634 -0.396358,0.0816 -0.118466,0.0182 -0.237068,0.0322 -0.355534,0.0413 -0.118466,0.009 -0.250554,0.0134 -0.396358,0.0134 -0.537655,0 -0.952243,-0.0728 -1.243852,-0.21859 -0.291609,-0.14581 -0.505646,-0.34152 -0.642338,-0.58756 -0.136692,-0.25516 -0.218641,-0.54682 -0.24598,-0.87488 -0.02734,-0.32806 -0.04134,-0.67471 -0.04134,-1.03922 v -2.85667 h -0.929142 v -1.6676 h 0.929142 v -1.36684 z m -43.208216,2.44636 c 0.400963,0 0.737924,0.055 1.011308,0.16433 0.282497,0.10936 0.510536,0.25061 0.683679,0.42375 0.182256,0.17314 0.323506,0.36885 0.423747,0.58756 0.100241,0.21871 0.168704,0.44191 0.205155,0.66973 0.04556,0.22782 0.07254,0.44669 0.08165,0.65629 0.0091,0.20959 0.01395,0.39182 0.01395,0.54673 v 4.19665 h -2.296501 v -3.75895 c 0,-0.17314 -0.0048,-0.36021 -0.01395,-0.56069 -0.0091,-0.20048 -0.05009,-0.3827 -0.12299,-0.54673 -0.06379,-0.17315 -0.168388,-0.3144 -0.314193,-0.42375 -0.145805,-0.11847 -0.350679,-0.17777 -0.61495,-0.17777 -0.109353,0 -0.223631,0.0183 -0.342098,0.0548 -0.118466,0.0273 -0.232227,0.0775 -0.341581,0.15038 -0.109353,0.0729 -0.213952,0.16834 -0.314192,0.2868 -0.09113,0.11847 -0.163915,0.26456 -0.218592,0.4377 -0.01823,0.0638 -0.03655,0.15006 -0.05478,0.25942 -0.0091,0.10935 -0.01828,0.22363 -0.02739,0.3421 0,0.11846 -0.0048,0.23706 -0.01395,0.35553 v 0.27337 3.30781 h -2.295984 v -7.08071 h 2.13217 v 1.09347 c 0.318947,-0.41007 0.669911,-0.72006 1.052649,-0.92965 0.39185,-0.21871 0.847412,-0.32815 1.366841,-0.32815 z m 12.657626,0 c 0.701685,0 1.294174,0.10944 1.777152,0.32815 0.492091,0.20959 0.888353,0.50609 1.189075,0.88883 0.300722,0.38274 0.514759,0.8383 0.642338,1.36684 0.127579,0.51943 0.18688,1.0936 0.177767,1.72238 h -5.098397 c 0.01823,0.30072 0.06836,0.55141 0.150378,0.75189 0.09113,0.20048 0.20489,0.36438 0.341582,0.49196 0.136692,0.11847 0.287105,0.20474 0.451135,0.25942 0.173143,0.0547 0.355368,0.0822 0.546737,0.0822 0.182255,0 0.336992,-0.0226 0.464571,-0.0682 0.136692,-0.0456 0.250453,-0.10487 0.341581,-0.17777 0.09113,-0.082 0.168754,-0.1688 0.232544,-0.25993 0.06379,-0.10024 0.118767,-0.20484 0.164331,-0.31419 l 2.282548,0.27336 c -0.08201,0.20049 -0.195777,0.42369 -0.341581,0.66973 -0.136692,0.23693 -0.337243,0.46013 -0.601514,0.66973 -0.255158,0.20959 -0.587796,0.38265 -0.997872,0.51935 -0.400963,0.13669 -0.911503,0.20515 -1.531173,0.20515 -0.309834,0 -0.665122,-0.0318 -1.066084,-0.0956 -0.39185,-0.0638 -0.760623,-0.19588 -1.10691,-0.39636 -0.364511,-0.21871 -0.656175,-0.47372 -0.874882,-0.76533 -0.218706,-0.29161 -0.387446,-0.58811 -0.505912,-0.88883 -0.109353,-0.30072 -0.18214,-0.58755 -0.218591,-0.86093 -0.02734,-0.27338 -0.04134,-0.49658 -0.04134,-0.66973 0,-0.45564 0.06846,-0.90688 0.205155,-1.3534 0.136692,-0.44653 0.350729,-0.84279 0.642338,-1.18908 0.29161,-0.3554 0.665223,-0.64274 1.120862,-0.86144 0.464752,-0.21871 1.016267,-0.32815 1.654163,-0.32815 z m 8.966894,0 c 0.209594,0 0.410145,0.0275 0.601514,0.0822 0.191368,0.0547 0.414568,0.14579 0.669726,0.27336 l -0.710551,1.79059 c -0.09113,-0.0456 -0.214569,-0.10002 -0.369486,-0.16381 -0.145805,-0.0638 -0.314027,-0.0956 -0.505396,-0.0956 -0.291609,0 -0.519648,0.10027 -0.683679,0.30075 -0.154917,0.20049 -0.273518,0.4555 -0.355534,0.76533 -0.0729,0.30072 -0.1182,0.63336 -0.136425,0.99787 -0.0091,0.3554 -0.01395,0.69236 -0.01395,1.01131 v 2.28307 h -2.309937 v -7.08071 h 2.146123 v 1.08004 c 0.246045,-0.47387 0.496734,-0.79734 0.751892,-0.97048 0.264271,-0.18226 0.56942,-0.27389 0.915706,-0.27389 z m 6.424414,0 c 0.400963,0 0.738441,0.055 1.011825,0.16433 0.282496,0.10936 0.510019,0.25061 0.683162,0.42375 0.182256,0.17314 0.323506,0.36885 0.423747,0.58756 0.100241,0.21871 0.168704,0.44191 0.205155,0.66973 0.04556,0.22782 0.07305,0.44669 0.08217,0.65629 0.0091,0.20959 0.01344,0.39182 0.01344,0.54673 v 4.19665 h -2.296501 v -3.75895 c 0,-0.17314 -0.0043,-0.36021 -0.01344,-0.56069 -0.0091,-0.20048 -0.05009,-0.3827 -0.12299,-0.54673 -0.06379,-0.17315 -0.168388,-0.3144 -0.314192,-0.42375 -0.145805,-0.11847 -0.351196,-0.17777 -0.615467,-0.17777 -0.109353,0 -0.223115,0.0183 -0.341581,0.0548 -0.118466,0.0273 -0.232228,0.0775 -0.341581,0.15038 -0.109354,0.0729 -0.214469,0.16834 -0.31471,0.2868 -0.09113,0.11847 -0.163914,0.26456 -0.218591,0.4377 -0.01823,0.0638 -0.03655,0.15006 -0.05478,0.25942 -0.0091,0.10935 -0.01828,0.22363 -0.02739,0.3421 0,0.11846 -0.0043,0.23706 -0.01344,0.35553 v 0.27337 3.30781 h -2.296501 v -7.08071 h 2.13217 v 1.09347 c 0.318947,-0.41007 0.669911,-0.72006 1.052649,-0.92965 0.39185,-0.21871 0.847412,-0.32815 1.366841,-0.32815 z m 7.504452,0 c 0.71991,0 1.298914,0.0685 1.736328,0.20516 0.437414,0.12758 0.774375,0.31896 1.011308,0.57412 0.246045,0.24605 0.405621,0.5512 0.478523,0.91571 0.08202,0.3554 0.12299,0.76566 0.12299,1.23041 v 2.40606 c 0,0.27338 0.0043,0.5009 0.01344,0.68316 0.01823,0.18226 0.04139,0.34183 0.06873,0.47852 0.03645,0.1367 0.07743,0.26446 0.12299,0.38293 0.04556,0.10935 0.100025,0.23227 0.163814,0.36897 H -50.1804 c -0.06379,-0.12758 -0.12309,-0.25967 -0.177767,-0.39636 -0.04556,-0.13669 -0.07305,-0.27794 -0.08216,-0.42375 -0.109354,0.10935 -0.241441,0.22312 -0.396358,0.34158 -0.145805,0.10936 -0.318867,0.21395 -0.519348,0.3142 -0.191369,0.0911 -0.418892,0.16875 -0.683163,0.23254 -0.255158,0.0638 -0.551661,0.0956 -0.888834,0.0956 -0.437414,0 -0.81535,-0.0593 -1.134298,-0.17777 -0.309835,-0.11846 -0.564847,-0.2732 -0.765328,-0.46457 -0.191369,-0.20048 -0.337459,-0.42368 -0.4377,-0.66972 -0.09113,-0.25516 -0.136425,-0.51017 -0.136425,-0.76533 0,-0.41008 0.08195,-0.74272 0.24598,-0.99787 0.173143,-0.26427 0.38234,-0.47399 0.628385,-0.62891 0.246045,-0.15491 0.510737,-0.26867 0.793233,-0.34158 0.282497,-0.082 0.537508,-0.14615 0.765328,-0.19172 0.200482,-0.0456 0.414518,-0.0909 0.642338,-0.13642 0.22782,-0.0456 0.45102,-0.0957 0.669727,-0.15038 0.218707,-0.0547 0.419258,-0.10966 0.601513,-0.16433 0.182256,-0.0547 0.332669,-0.10482 0.451136,-0.15038 0,-0.12758 -0.0043,-0.25483 -0.01344,-0.38241 -0.0091,-0.12758 -0.05009,-0.24185 -0.12299,-0.34209 -0.06379,-0.10024 -0.168905,-0.18219 -0.31471,-0.24598 -0.145804,-0.0638 -0.350678,-0.0956 -0.614949,-0.0956 -0.255158,0 -0.464872,0.0275 -0.628902,0.0822 -0.154918,0.0547 -0.282682,0.12746 -0.382923,0.21859 -0.09113,0.082 -0.163914,0.17797 -0.218591,0.28732 -0.04556,0.10024 -0.08654,0.20052 -0.12299,0.30076 l -2.159558,-0.30076 c 0.100241,-0.41007 0.241491,-0.74755 0.423747,-1.01182 0.191368,-0.27339 0.428054,-0.48742 0.710551,-0.64234 0.291609,-0.16403 0.63341,-0.27779 1.02526,-0.34158 0.400963,-0.0638 0.856525,-0.0961 1.366842,-0.0961 z m 17.879529,0 c 0.683459,0 1.271109,0.10944 1.763199,0.32815 0.492091,0.2187 0.893193,0.50604 1.203028,0.86144 0.318947,0.34629 0.55131,0.74255 0.697115,1.18908 0.145804,0.43741 0.218591,0.87465 0.218591,1.31206 0,0.43742 -0.07279,0.87949 -0.218591,1.32602 -0.145805,0.43741 -0.378168,0.83367 -0.697115,1.18907 -0.309835,0.3554 -0.710937,0.64707 -1.203028,0.87489 -0.482977,0.2187 -1.066304,0.32814 -1.749764,0.32814 -0.628782,0 -1.18462,-0.10027 -1.667598,-0.30076 -0.482978,-0.20048 -0.888403,-0.46465 -1.216463,-0.79271 -0.318948,-0.33718 -0.560474,-0.72911 -0.724504,-1.17564 -0.16403,-0.44653 -0.24598,-0.91558 -0.24598,-1.40767 0,-0.49209 0.07763,-0.96165 0.232544,-1.40818 0.164031,-0.45564 0.405556,-0.8519 0.724504,-1.18908 0.32806,-0.34628 0.728645,-0.61962 1.20251,-0.8201 0.482978,-0.20959 1.043656,-0.31471 1.681552,-0.31471 z m 9.773563,0 c 0.400963,0 0.737924,0.055 1.011308,0.16433 0.282496,0.10936 0.510536,0.25061 0.683679,0.42375 0.182256,0.17314 0.323506,0.36885 0.423747,0.58756 0.100241,0.21871 0.168187,0.44191 0.204639,0.66973 0.04556,0.22782 0.07305,0.44669 0.08216,0.65629 0.0091,0.20959 0.01395,0.39182 0.01395,0.54673 v 4.19665 h -2.296501 v -3.75895 c 0,-0.17314 -0.0048,-0.36021 -0.01395,-0.56069 -0.0091,-0.20048 -0.05009,-0.3827 -0.122989,-0.54673 -0.06379,-0.17315 -0.168388,-0.3144 -0.314193,-0.42375 -0.145805,-0.11847 -0.350679,-0.17777 -0.61495,-0.17777 -0.109353,0 -0.223631,0.0183 -0.342098,0.0548 -0.118466,0.0273 -0.232227,0.0775 -0.341581,0.15038 -0.109353,0.0729 -0.213952,0.16834 -0.314193,0.2868 -0.09113,0.11847 -0.164431,0.26456 -0.219108,0.4377 -0.01823,0.0638 -0.03603,0.15006 -0.05426,0.25942 -0.0091,0.10935 -0.01828,0.22363 -0.02739,0.3421 0,0.11846 -0.0048,0.23706 -0.01395,0.35553 v 0.27337 3.30781 h -2.296501 v -7.08071 h 2.132687 v 1.09347 c 0.318947,-0.41007 0.669911,-0.72006 1.052649,-0.92965 0.39185,-0.21871 0.847412,-0.32815 1.366841,-0.32815 z m 7.504452,0 c 0.71991,0 1.298397,0.0685 1.735811,0.20516 0.437414,0.12758 0.774375,0.31896 1.011308,0.57412 0.246045,0.24605 0.405621,0.5512 0.478524,0.91571 0.08202,0.3554 0.12299,0.76566 0.12299,1.23041 v 2.40606 c 0,0.27338 0.0048,0.5009 0.01395,0.68316 0.01823,0.18226 0.04087,0.34183 0.06821,0.47852 0.03645,0.1367 0.07743,0.26446 0.12299,0.38293 0.04556,0.10935 0.100025,0.23227 0.163814,0.36897 h -2.241723 c -0.06379,-0.12758 -0.123091,-0.25967 -0.177767,-0.39636 -0.04556,-0.13669 -0.07254,-0.27794 -0.08165,-0.42375 -0.109354,0.10935 -0.241441,0.22312 -0.396358,0.34158 -0.145805,0.10936 -0.318867,0.21395 -0.519348,0.3142 -0.191369,0.0911 -0.419409,0.16875 -0.68368,0.23254 -0.255158,0.0638 -0.551144,0.0956 -0.888318,0.0956 -0.437413,0 -0.815866,-0.0593 -1.134814,-0.17777 -0.309835,-0.11846 -0.564847,-0.2732 -0.765328,-0.46457 -0.191369,-0.20048 -0.337459,-0.42368 -0.437699,-0.66972 -0.09113,-0.25516 -0.136426,-0.51017 -0.136426,-0.76533 0,-0.41008 0.08195,-0.74272 0.24598,-0.99787 0.173143,-0.26427 0.382857,-0.47399 0.628902,-0.62891 0.246045,-0.15491 0.51022,-0.26867 0.792716,-0.34158 0.282497,-0.082 0.537509,-0.14615 0.765328,-0.19172 0.200482,-0.0456 0.414519,-0.0909 0.642338,-0.13642 0.22782,-0.0456 0.451537,-0.0957 0.670244,-0.15038 0.218707,-0.0547 0.418741,-0.10966 0.600997,-0.16433 0.182255,-0.0547 0.332669,-0.10482 0.451135,-0.15038 0,-0.12758 -0.0043,-0.25483 -0.01344,-0.38241 -0.0091,-0.12758 -0.05009,-0.24185 -0.12299,-0.34209 -0.06379,-0.10024 -0.168905,-0.18219 -0.314709,-0.24598 -0.145805,-0.0638 -0.350679,-0.0956 -0.61495,-0.0956 -0.255158,0 -0.464872,0.0275 -0.628902,0.0822 -0.154918,0.0547 -0.282165,0.12746 -0.382406,0.21859 -0.09113,0.082 -0.164431,0.17797 -0.219108,0.28732 -0.04556,0.10024 -0.08654,0.20052 -0.12299,0.30076 l -2.159558,-0.30076 c 0.100241,-0.41007 0.241491,-0.74755 0.423747,-1.01182 0.191369,-0.27339 0.428571,-0.48742 0.711068,-0.64234 0.291609,-0.16403 0.632893,-0.27779 1.024743,-0.34158 0.400963,-0.0638 0.857042,-0.0961 1.367359,-0.0961 z m -24.809855,0.16433 h 2.2965 v 7.08071 h -2.2965 z m -33.120459,1.33945 c -0.218707,0 -0.414418,0.041 -0.587561,0.12299 -0.173143,0.082 -0.323557,0.1963 -0.451136,0.3421 -0.127579,0.14581 -0.223531,0.31403 -0.287321,0.5054 -0.06379,0.19137 -0.0956,0.39192 -0.0956,0.60151 h 2.775024 c -0.0091,-0.0911 -0.03228,-0.22321 -0.06873,-0.39636 -0.02734,-0.18225 -0.08612,-0.36015 -0.17725,-0.5333 -0.09113,-0.17314 -0.223216,-0.32355 -0.396359,-0.45113 -0.173143,-0.12758 -0.410345,-0.19121 -0.711067,-0.19121 z m 40.679687,0.20516 c -0.209594,0 -0.410145,0.041 -0.601514,0.12299 -0.182255,0.0729 -0.346155,0.1915 -0.491959,0.35553 -0.136692,0.16403 -0.24613,0.37375 -0.328146,0.62891 -0.08201,0.25515 -0.122989,0.5603 -0.122989,0.9157 0,0.57411 0.127247,1.048 0.382405,1.42162 0.264271,0.36451 0.651887,0.54674 1.162203,0.54674 0.200481,0 0.391869,-0.0367 0.574125,-0.10956 0.191369,-0.082 0.355268,-0.20061 0.49196,-0.35553 0.145805,-0.16403 0.259566,-0.3689 0.341581,-0.61495 0.08202,-0.25516 0.12299,-0.55598 0.12299,-0.90227 0,-0.26427 -0.02697,-0.51496 -0.08165,-0.75189 -0.05468,-0.24605 -0.145789,-0.46008 -0.273368,-0.64234 -0.118466,-0.18226 -0.278042,-0.32783 -0.478524,-0.43718 -0.191368,-0.11847 -0.423731,-0.17777 -0.697114,-0.17777 z m -16.854268,2.14612 -0.286805,0.0956 c -0.0729,0.0273 -0.159691,0.0548 -0.259932,0.0822 -0.09113,0.0273 -0.204889,0.0592 -0.341581,0.0956 -0.136692,0.0273 -0.318917,0.0683 -0.546737,0.12299 -0.118466,0.0273 -0.241907,0.064 -0.369486,0.10955 -0.118467,0.0456 -0.227388,0.10435 -0.327629,0.17725 -0.100241,0.0638 -0.182707,0.15058 -0.246496,0.25994 -0.06379,0.10024 -0.0956,0.21884 -0.0956,0.35553 0,0.0729 0.014,0.15918 0.04134,0.25942 0.02734,0.0911 0.07748,0.18224 0.150379,0.27337 0.0729,0.082 0.173177,0.15531 0.300757,0.2191 0.127579,0.0547 0.286638,0.0816 0.478006,0.0816 0.264271,0 0.510637,-0.0593 0.738457,-0.17776 0.236932,-0.12758 0.42348,-0.30065 0.560172,-0.51935 0.04556,-0.082 0.09138,-0.20062 0.136943,-0.35554 0.04556,-0.16403 0.06821,-0.45085 0.06821,-0.86093 z m 35.157027,0 -0.286804,0.0956 c -0.0729,0.0273 -0.159692,0.0548 -0.259933,0.0822 -0.09113,0.0273 -0.204889,0.0592 -0.341581,0.0956 -0.136692,0.0273 -0.318917,0.0683 -0.546737,0.12299 -0.118466,0.0273 -0.24139,0.064 -0.368969,0.10955 -0.118467,0.0456 -0.227905,0.10435 -0.328146,0.17725 -0.10024,0.0638 -0.18219,0.15058 -0.24598,0.25994 -0.06379,0.10024 -0.0956,0.21884 -0.0956,0.35553 0,0.0729 0.01349,0.15918 0.04082,0.25942 0.02734,0.0911 0.07748,0.18224 0.150379,0.27337 0.0729,0.082 0.173178,0.15531 0.300757,0.2191 0.127579,0.0547 0.287155,0.0816 0.478523,0.0816 0.264271,0 0.51012,-0.0593 0.73794,-0.17776 0.236932,-0.12758 0.423997,-0.30065 0.560689,-0.51935 0.04556,-0.082 0.09086,-0.20062 0.136426,-0.35554 0.04556,-0.16403 0.06821,-0.45085 0.06821,-0.86093 z" /><path
       d="m -150.7764,159.38268 v -45.13099 h 13.65155 v 45.13099 z"
       id="path1986"
       style="font-weight:bold;font-size:63.0321px;line-height:1;font-family:'MHei PRC';-inkscape-font-specification:'MHei PRC Bold';text-align:center;text-anchor:middle;opacity:1;fill:#1E293B;fill-opacity:1;stroke-width:19.6976;stroke-linejoin:round"
       sodipodi:nodetypes="ccccc" /><path
       d="m -89.715592,145.13742 q -0.756385,2.89948 -2.143091,5.60986 -1.323674,2.71038 -3.59283,4.79044 -2.269156,2.08006 -5.672887,3.3407 -3.3407,1.26064 -8.13114,1.26064 -6.11411,0 -10.33727,-2.01703 -4.22315,-2.01702 -6.80746,-5.23166 -2.58432,-3.27767 -3.78193,-7.43779 -1.13458,-4.16012 -1.13458,-8.50933 0,-6.05108 1.7649,-10.46333 1.7649,-4.47528 4.79044,-7.31173 3.02554,-2.89947 6.99657,-4.28618 3.97102,-1.3867 8.38326,-1.3867 7.94205,0 12.669455,3.46676 4.727408,3.40373 6.744435,10.14817 l -10.65243,2.45825 q -0.18909,-0.63032 -0.69335,-1.7649 -0.50425,-1.19761 -1.51277,-2.33218 -0.94548,-1.13458 -2.52128,-1.954 -1.5758,-0.88245 -4.03406,-0.88245 -3.65586,0 -5.73592,1.7649 -2.08006,1.70187 -3.08857,4.09709 -0.94548,2.33218 -1.19761,4.66437 -0.1891,2.33219 -0.1891,3.59283 0,1.44974 0.12607,3.84496 0.18909,2.39522 1.13458,4.72741 0.94548,2.33218 2.96251,4.03405 2.01702,1.63884 5.67288,1.63884 2.77342,0 4.47528,-1.07155 1.7649,-1.07155 2.77342,-2.52128 1.07154,-1.51277 1.51276,-3.02554 0.50426,-1.57581 0.69336,-2.52129 z"
       id="path1988"
       style="font-weight:bold;font-size:63.0321px;line-height:1;font-family:'MHei PRC';-inkscape-font-specification:'MHei PRC Bold';text-align:center;text-anchor:middle;opacity:1;fill:#1E293B;fill-opacity:1;stroke-width:19.6976;stroke-linejoin:round" /><path
       d="m -78.254377,159.38268 h -14.079845 l 24.844476,-45.13099 h 14.893155 l 8.087184,45.13099 h -14.725688 l -3.598194,-31.86905 z"
       id="path1990"
       style="font-weight:bold;font-size:63.0321px;line-height:1;font-family:'MHei PRC';-inkscape-font-specification:'MHei PRC Bold';text-align:center;text-anchor:middle;opacity:1;fill:#1E293B;fill-opacity:1;stroke-width:19.6976;stroke-linejoin:round"
       sodipodi:nodetypes="cccccccc" /><path
       d="m -18.299586,125.69711 v 33.68557 h -13.651541 v -33.68557 h -13.80403 v -11.44542 h 41.2596009 v 11.44542 z"
       id="path1992"
       style="font-weight:bold;font-size:63.0321px;line-height:1;font-family:'MHei PRC';-inkscape-font-specification:'MHei PRC Bold';text-align:center;text-anchor:middle;opacity:1;fill:#1E293B;fill-opacity:1;stroke-width:19.6976;stroke-linejoin:round"
       sodipodi:nodetypes="ccccccccc" /><path
       style="opacity:1;fill:#1E293B;fill-opacity:1;stroke:none;stroke-width:1.32292;stroke-linejoin:round"
       d="m -75.661707,159.23919 h 13.822889 l -2.369069,-23.58483 z"
       id="path2149" /></g></svg>
