<?xml version="1.0" encoding="UTF-8" standalone="no"?>
<!-- Created with Inkscape (http://www.inkscape.org/) -->

<svg
   width="165.24745mm"
   height="49.102131mm"
   viewBox="0 0 165.24745 49.102131"
   version="1.1"
   id="svg30499"
   sodipodi:docname="idc_pharma-horizontal-white.svg"
   inkscape:version="1.2.2 (b0a8486541, 2022-12-01)"
   xmlns:inkscape="http://www.inkscape.org/namespaces/inkscape"
   xmlns:sodipodi="http://sodipodi.sourceforge.net/DTD/sodipodi-0.dtd"
   xmlns="http://www.w3.org/2000/svg"
   xmlns:svg="http://www.w3.org/2000/svg">
  <sodipodi:namedview
     id="namedview30501"
     pagecolor="#ffffff"
     bordercolor="#000000"
     borderopacity="0.25"
     inkscape:showpageshadow="2"
     inkscape:pageopacity="0.0"
     inkscape:pagecheckerboard="0"
     inkscape:deskcolor="#d1d1d1"
     inkscape:document-units="mm"
     showgrid="false"
     inkscape:zoom="0.2102413"
     inkscape:cx="585.04204"
     inkscape:cy="156.9625"
     inkscape:window-width="1916"
     inkscape:window-height="1157"
     inkscape:window-x="0"
     inkscape:window-y="41"
     inkscape:window-maximized="1"
     inkscape:current-layer="layer1" />
  <defs
     id="defs30496" />
  <g
     inkscape:label="Calque 1"
     inkscape:groupmode="layer"
     id="layer1"
     transform="translate(-55.808472,-18.237074)">
    <g
       inkscape:label="Image"
       id="g1023"
       transform="matrix(0.42157289,0,0,0.42157289,52.30398,82.491305)"
       style="fill:#1E293B;fill-opacity:1">
      <g
         id="g1005"
         transform="matrix(0.88364236,0,0,0.88364236,8.3128958,-16.440974)"
         style="fill:#1E293B;fill-opacity:1">
        <path
           style="fill:#1E293B;fill-opacity:1"
           d="m 86,-25.05158 c 0,-0.20765 0.7875,-0.99515 1.75,-1.75 1.586056,-1.24387 1.621426,-1.2085 0.377555,0.37756 C 86.821186,-24.75827 86,-24.22854 86,-25.05158 Z M 7.7974816,-64.418775 c 4.5636144,-0.185715 11.7636144,-0.18468 16.0000004,0.0023 4.236385,0.186981 0.502518,0.33893 -8.297482,0.337664 -8.8,-0.0013 -12.2661333,-0.15425 -7.7025184,-0.339964 z M 142.39456,-96.17402 c 0.002,-7.7 0.15853,-10.71781 0.34883,-6.70625 0.1903,4.011563 0.18902,10.311563 -0.003,14 -0.19169,3.688438 -0.34739,0.40625 -0.34583,-7.29375 z m -42.39456,-9 c 1.29175,-1.375 2.57363,-2.5 2.84863,-2.5 0.275,0 -0.55688,1.125 -1.84863,2.5 -1.291745,1.375 -2.573628,2.5 -2.848628,2.5 -0.275,0 0.556883,-1.125 1.848628,-2.5 z m -67.779679,-4.24769 14.720322,-0.30544 0.312346,-12.72343 0.312347,-12.72344 0.217332,13.25 0.217332,13.25 -15.25,-0.22112 -15.25,-0.22113 z m 86.529679,-1.9963 c 4.5375,-0.18529 11.9625,-0.18529 16.5,0 4.5375,0.1853 0.825,0.3369 -8.25,0.3369 -9.075,0 -12.7875,-0.1516 -8.25,-0.3369 z m -23.350059,-27.75601 c 0.0014,-8.25 0.156287,-11.49193 0.34419,-7.20429 0.187904,4.28763 0.186758,11.03763 -0.0025,15 -0.189351,3.96236 -0.343091,0.45429 -0.34169,-7.79571 z"
           id="path993"
           sodipodi:nodetypes="sssssssscsccssssscccccccccsssssscs" />
        <path
           style="fill:#1E293B;fill-opacity:1"
           d="M 47.456046,-95.422679 47.5,-109.17402 l 15.251129,-0.0404 15.251129,-0.0404 -14.973078,0.31631 -14.973078,0.31631 -0.322005,13.475446 -0.322006,13.475447 z"
           id="path995"
           sodipodi:nodetypes="ccccccccc" />
        <path
           style="fill:#1E293B;fill-opacity:1"
           d="m 46,-83.592233 c 0,-7.450533 1.166725,-7.081787 -22.406989,-7.081787 -15.3312565,0 -21.5301039,0.337093 -22.411761,1.21875 -2.03552148,2.035521 -0.27579768,-5.127192 2.4253556,-9.872076 1.6959902,-2.979204 3.8374746,-4.887394 7.5752384,-6.750004 4.927444,-2.45545 6.043159,-2.59667 20.5145,-2.59667 H 47 v 14.5 c 0,7.975 -0.225,14.5 -0.5,14.5 -0.275,0 -0.5,-1.763196 -0.5,-3.918213 z m 95,-1.5 c 0,-5.741933 0.6773,-5.581787 -23.60699,-5.581787 -12.31615,0 -22.3905,-0.3375 -22.387433,-0.75 0.02005,-2.696779 2.588435,-9.27668 4.726537,-12.10885 4.518426,-5.98518 8.649626,-7.09427 26.517886,-7.11919 l 15.75,-0.022 v 14 c 0,7.7 -0.225,14 -0.5,14 -0.275,0 -0.5,-1.088196 -0.5,-2.418213 z"
           id="path997"
           sodipodi:nodetypes="sssssscsssssssscsss" />
        <path
           style="fill:#1E293B;fill-opacity:1"
           d="m 48.369976,-111.15226 c -0.311989,-0.81303 -0.410366,-7.45053 -0.218615,-14.75 0.321186,-12.2267 0.557462,-13.62695 3.000582,-17.78251 1.638915,-2.78766 4.312877,-5.45779 7,-6.98995 4.042138,-2.30478 5.49137,-2.50474 20.598057,-2.84203 L 95,-153.87956 v 14.78704 c 0,12.94605 -0.259687,15.32349 -2.085828,19.0958 -2.319432,4.7913 -6.753877,8.46799 -10.471472,8.6821 -1.342708,0.0773 -2.441605,0.4781 -2.441994,0.8906 -3.88e-4,0.4125 -6.989829,0.75 -15.532091,0.75 -12.781575,0 -15.631816,-0.26172 -16.098639,-1.47824 z"
           id="path999" />
        <path
           style="fill:#1E293B;fill-opacity:1"
           d="m 55.20625,-22.41457 c 3.688437,-0.19186 9.988437,-0.19314 14,-0.003 4.011562,0.1903 0.99375,0.34727 -6.70625,0.34883 -7.7,0.002 -10.982188,-0.15414 -7.29375,-0.34599 z m -7.81771,-13.75945 c 0.0017,-7.15 0.161031,-9.94379 0.353958,-6.20841 0.192928,3.73537 0.191497,9.58537 -0.0032,13 -0.194657,3.41462 -0.352507,0.35841 -0.350758,-6.79159 z m 46.564641,-24.5 c -0.453181,-4.5 -0.453181,-4.5 -16.174806,-4.5 -8.646893,0 -14.946893,-0.305872 -14,-0.679715 0.946894,-0.373843 8.148248,-0.711343 16.00301,-0.75 15.825312,-0.07788 15.623931,-0.166217 14.988431,6.574554 -0.363454,3.855161 -0.363454,3.855161 -0.816635,-0.644839 z M 57,-63.67402 c 0.825,-0.533156 1.95,-0.969374 2.5,-0.969374 0.55,0 0.325,0.436218 -0.5,0.969374 -0.825,0.533156 -1.95,0.969374 -2.5,0.969374 -0.55,0 -0.325,-0.436218 0.5,-0.969374 z m -57,-12.8 c 0,-7.844444 0.40225989,-12.20226 1.2,-13 0.8579776,-0.857978 7.2516916,-1.2 22.432612,-1.2 19.359716,0 21.2778,0.154365 21.744889,1.75 0.505656,1.727388 0.979345,9.27982 0.64288,10.25 -0.09537,0.275 -0.321774,1.271269 -0.503115,2.213931 -0.637609,3.314471 -4.575931,7.636056 -8.83997,9.700241 -3.823718,1.85103 -6.130578,2.085828 -20.49302,2.085828 H 0 Z m 95,-2.2 v -12 h 22.48095 c 22.48095,0 22.48095,0 22.96899,2.25 0.60872,2.806379 0.8562,6.013177 0.54021,7 -0.13208,0.4125 -0.33526,1.0875 -0.45152,1.5 -1.48243,5.260186 -6.95885,10.717521 -12.22145,12.17887 -2.09945,0.582987 -10.45468,1.062486 -18.56718,1.065553 L 95,-66.67402 Z"
           id="path1001" />
        <path
           style="fill:#1E293B;fill-opacity:1"
           d="M 47.66304,-22.33693 C 47.57337,-22.42653 47.725,-29.66322 48,-38.41845 c 0.483612,-15.396867 0.588618,-16.034682 3.203717,-19.459693 4.820783,-6.313806 8.481225,-7.389231 26.175198,-7.690177 14.349846,-0.244069 15.681122,-0.116641 16.342694,1.564293 0.396133,1.006504 0.733325,7.455007 0.749316,14.330007 0.0333,14.31422 -1.223603,18.05376 -7.880677,23.44671 -3.76898,3.05329 -3.76898,3.05329 -21.266574,3.55329 -9.623677,0.275 -17.570962,0.42669 -17.660634,0.33709 z"
           id="path1003"
           sodipodi:nodetypes="sssssssss" />
      </g>
      <path
         style="fill:#1E293B;fill-opacity:1"
         d="m 165,-88.516291 c 0,-0.188249 0.9,-1.486435 2,-2.884858 1.81341,-2.305379 2,-4.056784 2,-18.772871 0,-14.9761 -0.16235,-16.43668 -2.10097,-18.90124 -2.10098,-2.67096 -2.10098,-2.67096 8.25,-2.38486 l 10.35097,0.2861 0.27279,18.94644 c 0.2009,13.9535 0.62199,19.355847 1.59789,20.499999 2.90895,3.410456 2.5076,3.553561 -9.96617,3.553561 -6.82248,0 -12.40451,-0.154022 -12.40451,-0.342271 z m 39.20853,-0.825485 c -4.46624,-2.201211 -6.94072,-5.603208 -8.84825,-12.164854 -3.12771,-10.75896 0.31898,-22.94145 7.91234,-27.9665 5.50345,-3.64201 15.30965,-3.87523 18.95866,-0.45089 1.31869,1.2375 2.70612,2.25 3.08317,2.25 0.37705,0 0.68555,-3.64303 0.68555,-8.09563 0,-6.51692 -0.39354,-8.64831 -2.0181,-10.92979 -1.10996,-1.55879 -1.67246,-3.03538 -1.25,-3.2813 0.42245,-0.24592 3.9181,-0.74644 7.7681,-1.11228 3.85,-0.36584 8.2375,-0.90698 9.75,-1.20253 2.75,-0.53738 2.75,-0.53738 2.75,29.1377 0,27.518393 0.13762,29.868001 1.89365,32.32946 1.89364,2.65437 1.89364,2.65437 -7.24051,2.327211 C 228.15353,-88.841428 226,-89.635209 226,-92.796465 c 0,-2.241422 -1.54979,-2.493177 -2.35943,-0.383278 -1.86115,4.850086 -12.93908,7.038056 -19.43204,3.837967 z m 19.25319,-6.317689 c 2.59191,-0.985444 2.59191,-0.985444 2.3151,-15.750005 -0.27682,-14.76455 -0.27682,-14.76455 -4.1689,-14.76455 -3.07255,0 -4.32034,0.57361 -5.92597,2.72417 -4.45668,5.96925 -3.93305,22.36034 0.84741,26.52583 2.92822,2.55154 3.3466,2.627858 6.93236,1.264555 z m 38.93878,5.591411 c -8.36929,-3.897025 -12.0269,-11.213596 -11.1385,-22.281136 1.18742,-14.79275 13.07755,-22.2589 31.27347,-19.63752 4.16719,0.60035 7.82997,1.3448 8.1395,1.65433 0.56858,0.56857 -4.59169,15.65836 -5.3547,15.65836 -0.22651,0 -2.17063,-3.825 -4.32027,-8.5 -2.14964,-4.675 -4.18362,-8.5 -4.51996,-8.5 -1.9302,0 -4.41294,2.36876 -5.37486,5.12811 -0.60785,1.74369 -1.10518,6.74768 -1.10518,11.11998 0,8.59202 1.68444,13.71705 5.35287,16.286516 3.16604,2.217582 9.87721,1.858853 13.13278,-0.701979 2.75537,-2.167377 2.75537,-2.167377 2.00366,0.25 -3.27539,10.533163 -16.37894,14.975844 -28.08881,9.523339 z m -91.38444,-49.312686 c -5.5251,-7.02402 5.17682,-15.42045 11.79538,-9.25432 2.99283,2.78824 2.97486,8.29689 -0.034,10.40434 -3.66185,2.56486 -9.2707,2.01643 -11.76143,-1.15002 z"
         id="path1007" />
      <g
         id="g1021"
         transform="translate(0,-152.94535)"
         style="fill:#1E293B;fill-opacity:1">
        <path
           d="m 176.37318,76.624923 q 14.42168,0 14.42168,11.335331 0,5.779897 -3.75973,9.090711 -3.70363,3.254695 -11.50368,3.254695 h -5.89213 v 16.38573 h -3.2547 V 76.624923 Z m -0.33669,2.861891 h -6.39717 v 17.95696 h 5.55544 q 5.77989,0 8.97848,-2.020158 3.25469,-2.020158 3.25469,-7.295015 0,-4.48924 -2.80577,-6.565514 -2.74966,-2.076273 -8.58567,-2.076273 z"
           id="path1009"
           style="font-weight:300;font-size:56.1155px;line-height:1.3;font-family:'Noto Sans';-inkscape-font-specification:'Noto Sans Light';letter-spacing:3px;fill:#1E293B;fill-opacity:1;stroke-width:0.175361;stroke-linejoin:bevel;paint-order:markers stroke fill" />
        <path
           d="m 230.62645,116.69139 h -3.2547 V 97.163197 h -22.83901 v 19.528193 h -3.2547 V 76.624923 h 3.2547 V 94.24519 h 22.83901 V 76.624923 h 3.2547 z"
           id="path1011"
           style="font-weight:300;font-size:56.1155px;line-height:1.3;font-family:'Noto Sans';-inkscape-font-specification:'Noto Sans Light';letter-spacing:3px;fill:#1E293B;fill-opacity:1;stroke-width:0.175361;stroke-linejoin:bevel;paint-order:markers stroke fill" />
        <path
           d="m 271.148,116.69139 -5.33097,-13.80441 h -16.61019 l -5.38709,13.80441 h -3.36693 l 15.76846,-40.234814 h 2.97412 l 15.37564,40.234814 z M 259.47597,85.491172 q -0.33669,-0.785617 -0.89784,-2.469082 -0.56116,-1.683465 -0.95397,-2.974121 -0.44892,1.515118 -0.95396,2.974121 -0.50504,1.459003 -0.84173,2.525198 l -5.55544,14.365568 h 14.53392 z"
           id="path1013"
           style="font-weight:300;font-size:56.1155px;line-height:1.3;font-family:'Noto Sans';-inkscape-font-specification:'Noto Sans Light';letter-spacing:3px;fill:#1E293B;fill-opacity:1;stroke-width:0.175361;stroke-linejoin:bevel;paint-order:markers stroke fill" />
        <path
           d="m 293.36811,76.624923 q 7.18278,0 10.77418,2.525198 3.6475,2.469082 3.6475,8.47344 0,4.601471 -2.46908,7.2389 -2.41297,2.581313 -6.06047,3.647508 l 10.99863,18.181421 h -3.87196 L 296.17388,99.407817 h -9.53963 v 17.283573 h -3.2547 V 76.624923 Z m -0.28058,2.861891 h -6.45328 v 17.115227 h 7.57559 q 4.88205,0 7.51948,-2.24462 2.69354,-2.300735 2.69354,-6.621629 0,-4.601471 -2.80577,-6.397167 -2.80578,-1.851811 -8.52956,-1.851811 z"
           id="path1015"
           style="font-weight:300;font-size:56.1155px;line-height:1.3;font-family:'Noto Sans';-inkscape-font-specification:'Noto Sans Light';letter-spacing:3px;fill:#1E293B;fill-opacity:1;stroke-width:0.175361;stroke-linejoin:bevel;paint-order:markers stroke fill" />
        <path
           d="m 352.73559,76.624923 -13.97276,35.072187 h -0.16835 L 324.79007,76.624923 h -4.93816 l -2.90647,40.066467 h 3.08635 l 2.68201,-36.643421 h 0.16834 l 14.36557,36.643421 h 2.63741 l 14.4778,-36.587306 h 0.16835 l 0.16836,-0.05612 2.68201,36.643416 h 3.08635 l -2.90647,-40.066462 z"
           id="path1017"
           style="font-weight:300;font-size:56.1155px;line-height:1.3;font-family:'Noto Sans';-inkscape-font-specification:'Noto Sans Light';letter-spacing:3px;fill:#1E293B;fill-opacity:1;stroke-width:0.175361;stroke-linejoin:bevel;paint-order:markers stroke fill"
           sodipodi:nodetypes="cccccccccccccccccc" />
        <path
           d="m 396.86823,116.69139 -5.33097,-13.80441 h -16.61019 l -5.38709,13.80441 h -3.36693 l 15.76846,-40.234814 h 2.97412 l 15.37564,40.234814 z M 385.1962,85.491172 q -0.33669,-0.785617 -0.89784,-2.469082 -0.56116,-1.683465 -0.95397,-2.974121 -0.44892,1.515118 -0.95396,2.974121 -0.50504,1.459003 -0.84173,2.525198 l -5.55544,14.365568 h 14.53392 z"
           id="path1019"
           style="font-weight:300;font-size:56.1155px;line-height:1.3;font-family:'Noto Sans';-inkscape-font-specification:'Noto Sans Light';letter-spacing:3px;fill:#1E293B;fill-opacity:1;stroke-width:0.175361;stroke-linejoin:bevel;paint-order:markers stroke fill" />
      </g>
    </g>
  </g>
</svg>
