<?xml version="1.0" encoding="UTF-8" standalone="no"?>
<!-- Created with Inkscape (http://www.inkscape.org/) -->

<svg
   width="165.24745mm"
   height="47.076797mm"
   viewBox="0 0 165.24745 47.076797"
   version="1.1"
   id="svg30499"
   sodipodi:docname="malt-horizontal-white.svg"
   inkscape:version="1.2.2 (b0a8486541, 2022-12-01)"
   xmlns:inkscape="http://www.inkscape.org/namespaces/inkscape"
   xmlns:sodipodi="http://sodipodi.sourceforge.net/DTD/sodipodi-0.dtd"
   xmlns="http://www.w3.org/2000/svg"
   xmlns:svg="http://www.w3.org/2000/svg">
  <sodipodi:namedview
     id="namedview30501"
     pagecolor="#ffffff"
     bordercolor="#000000"
     borderopacity="0.25"
     inkscape:showpageshadow="2"
     inkscape:pageopacity="0.0"
     inkscape:pagecheckerboard="0"
     inkscape:deskcolor="#d1d1d1"
     inkscape:document-units="mm"
     showgrid="false"
     inkscape:zoom="0.2102413"
     inkscape:cx="-1179.597"
     inkscape:cy="180.7447"
     inkscape:window-width="1916"
     inkscape:window-height="1157"
     inkscape:window-x="0"
     inkscape:window-y="41"
     inkscape:window-maximized="1"
     inkscape:current-layer="layer1" />
  <defs
     id="defs30496" />
  <g
     inkscape:label="Calque 1"
     inkscape:groupmode="layer"
     id="layer1"
     transform="translate(-299.95254,0.88585388)">
    <g
       id="g939"
       transform="matrix(0.22190755,0,0,0.22190755,293.81325,-8.08165)"
       style="fill:#1E293B;fill-opacity:1">
      <path
         class="st0"
         d="m 187.518,84.731 c -14.1,-14.1 -29.162,-4.974 -38.588,4.452 l -44.52,44.523 -44.525,44.524 c -9.426,9.425 -19.292,23.746 -4.452,38.584 14.84,14.843 29.161,4.975 38.585,-4.451 l 44.523,-44.523 44.523,-44.522 c 9.427,-9.427 18.552,-24.489 4.454,-38.587"
         id="path913"
         style="fill:#1E293B;fill-opacity:1" />
      <path
         class="st0"
         d="M 102.445,81.084 121.3,99.938 140.492,80.746 c 1.303,-1.306 2.626,-2.518 3.957,-3.661 -2.01,-10.14 -7.796,-19.307 -23.158,-19.307 -15.391,0 -21.17,9.203 -23.168,19.365 1.436,1.243 2.871,2.489 4.322,3.941"
         id="path915"
         style="fill:#1E293B;fill-opacity:1" />
      <path
         class="st0"
         d="m 140.482,221.137 -19.18,-19.181 -18.845,18.843 c -1.431,1.432 -2.855,2.74 -4.273,3.969 2.161,10.337 8.277,19.805 23.11,19.805 14.872,0 20.98,-9.519 23.127,-19.889 -1.319,-1.135 -2.64,-2.248 -3.939,-3.547"
         id="path917"
         style="fill:#1E293B;fill-opacity:1" />
      <path
         class="st0"
         d="m 94.449,126.791 h -36.35 c -13.329,0 -30.433,4.198 -30.433,24.136 0,14.877 9.522,20.986 19.894,23.132 1.228,-1.417 46.889,-47.268 46.889,-47.268"
         id="path919"
         style="fill:#1E293B;fill-opacity:1" />
      <path
         class="st0"
         d="m 195.101,127.759 c -1.151,1.338 -46.907,47.305 -46.907,47.305 h 35.834 c 13.329,0 30.433,-3.149 30.433,-24.136 0,-15.389 -9.2,-21.171 -19.36,-23.169"
         id="path921"
         style="fill:#1E293B;fill-opacity:1" />
      <path
         class="st0"
         d="m 106.359,114.859 6.494,-6.494 L 94.01,89.52 C 84.583,80.095 70.264,70.228 55.424,85.068 c -10.882,10.882 -8.465,21.473 -2.693,30.071 1.758,-0.131 53.628,-0.28 53.628,-0.28"
         id="path923"
         style="fill:#1E293B;fill-opacity:1" />
      <path
         class="st0"
         d="m 136.237,186.996 -6.511,6.511 19.194,19.192 c 9.426,9.427 24.488,18.551 38.586,4.453 10.52,-10.521 8.106,-21.571 2.29,-30.423 -1.872,0.135 -53.559,0.267 -53.559,0.267"
         id="path925"
         style="fill:#1E293B;fill-opacity:1" />
      <path
         class="st0"
         d="m 588.278,89.039 c -3.219,0 -8.853,0.805 -15.026,3.488 -8.048,3.488 -12.341,6.171 -14.487,9.658 -8.049,-9.389 -18.514,-12.341 -30.319,-12.341 -34.612,0 -59.295,29.245 -59.295,70.831 0,34.88 18.781,60.637 45.343,60.637 8.048,0 15.293,-3.221 23.88,-11.268 6.706,-6.172 9.927,-10.195 9.927,-13.952 0,-2.684 -1.878,-4.562 -4.562,-4.562 -3.757,0 -7.781,3.219 -12.879,3.219 -11.001,0 -18.514,-16.904 -18.514,-41.856 0,-24.951 9.927,-41.854 24.952,-41.854 9.927,0 17.44,7.511 17.44,20.391 v 78.345 c 0,8.584 8.048,10.999 22.805,10.999 14.49,0 20.123,-2.683 20.123,-10.999 V 97.626 c 0.002,-5.368 -3.486,-8.587 -9.388,-8.587"
         id="path927"
         style="fill:#1E293B;fill-opacity:1" />
      <path
         class="st0"
         d="m 422.736,89.039 c -10.464,0 -21.464,3.757 -31.125,11.269 -5.365,4.293 -9.927,9.122 -9.927,13.147 0,3.487 2.414,5.365 5.903,5.365 5.904,0 7.782,-2.414 13.416,-2.414 5.634,0 8.317,5.366 8.317,14.757 v 78.614 c 0,8.584 8.05,10.999 22.805,10.999 14.489,0 20.123,-2.683 20.123,-10.999 V 123.65 c 0.001,-20.392 -12.073,-34.611 -29.512,-34.611"
         id="path929"
         style="fill:#1E293B;fill-opacity:1" />
      <path
         class="st0"
         d="m 347.342,89.039 c -11,0 -20.928,3.757 -30.586,11.269 -5.366,4.293 -9.927,9.122 -9.927,13.147 0,3.487 2.413,5.365 5.903,5.365 5.901,0 7.781,-2.414 12.879,-2.414 5.098,0 7.781,5.366 7.781,14.757 v 78.614 c 0,8.584 8.048,10.999 22.804,10.999 14.49,0 20.123,-2.683 20.123,-10.999 V 123.65 c 0,-20.392 -12.074,-34.611 -28.977,-34.611"
         id="path931"
         style="fill:#1E293B;fill-opacity:1" />
      <path
         class="st0"
         d="m 290.999,89.039 c -4.024,0 -8.853,0.805 -15.026,3.488 -13.415,5.903 -18.512,9.658 -18.512,17.976 v 99.273 c 0,8.584 8.048,10.999 22.805,10.999 14.49,0 20.123,-2.683 20.123,-10.999 V 97.626 c 10e-4,-5.368 -3.487,-8.587 -9.39,-8.587"
         id="path933"
         style="fill:#1E293B;fill-opacity:1" />
      <path
         class="st0"
         d="m 762.944,184.554 c -10.733,2.683 -13.951,3.488 -17.709,3.488 -4.56,0 -6.171,-1.342 -6.171,-6.171 v -67.076 h 24.417 c 6.439,0 8.853,-2.414 8.853,-8.853 0,-5.366 -2.414,-8.051 -8.853,-8.051 H 739.064 V 71.866 c 0,-8.05 -2.681,-11.269 -8.317,-11.269 -5.365,0 -12.879,4.83 -28.977,18.514 -16.365,13.952 -25.758,23.074 -25.758,29.513 0,3.757 2.685,6.171 6.977,6.171 h 13.147 v 72.442 c 0,21.197 10.463,33.538 28.708,33.538 12.074,0 20.928,-4.562 31.392,-12.61 9.659,-7.513 15.829,-13.416 15.829,-18.512 10e-4,-4.293 -3.219,-6.709 -9.121,-5.099"
         id="path935"
         style="fill:#1E293B;fill-opacity:1" />
      <path
         class="st0"
         d="m 654.282,32.427 c -2.146,0 -8.853,0.805 -15.026,3.488 -13.416,5.634 -18.512,9.658 -18.512,17.976 v 155.884 c 0,8.587 8.048,11.001 22.805,11.001 14.49,0 20.122,-2.683 20.122,-11.001 V 41.013 c 0,-5.367 -3.487,-8.586 -9.389,-8.586"
         id="path937"
         style="fill:#1E293B;fill-opacity:1" />
    </g>
  </g>
</svg>
