<?xml version="1.0" encoding="UTF-8" standalone="no"?>
<!-- Created with Inkscape (http://www.inkscape.org/) -->

<svg
   width="165.24745mm"
   height="46.176281mm"
   viewBox="0 0 165.24745 46.176281"
   version="1.1"
   id="svg30499"
   sodipodi:docname="optisam-horizontal-white.svg"
   inkscape:version="1.2.2 (b0a8486541, 2022-12-01)"
   xmlns:inkscape="http://www.inkscape.org/namespaces/inkscape"
   xmlns:sodipodi="http://sodipodi.sourceforge.net/DTD/sodipodi-0.dtd"
   xmlns="http://www.w3.org/2000/svg"
   xmlns:svg="http://www.w3.org/2000/svg">
  <sodipodi:namedview
     id="namedview30501"
     pagecolor="#ffffff"
     bordercolor="#000000"
     borderopacity="0.25"
     inkscape:showpageshadow="2"
     inkscape:pageopacity="0.0"
     inkscape:pagecheckerboard="0"
     inkscape:deskcolor="#d1d1d1"
     inkscape:document-units="mm"
     showgrid="false"
     inkscape:zoom="0.2102413"
     inkscape:cx="2782.517"
     inkscape:cy="190.25757"
     inkscape:window-width="1916"
     inkscape:window-height="1157"
     inkscape:window-x="0"
     inkscape:window-y="41"
     inkscape:window-maximized="1"
     inkscape:current-layer="layer1" />
  <defs
     id="defs30496" />
  <g
     inkscape:label="Calque 1"
     inkscape:groupmode="layer"
     id="layer1"
     transform="translate(296.56441,5.4694971)">
    <path
       style="fill:#1E293B;fill-opacity:1;stroke-width:0.352778"
       d="m -289.24968,39.694518 c -0.7753,-0.56164 -2.3303,-2.419151 -3.47008,-4.145151 -1.73439,-2.62645 -2.07188,-3.39204 -2.10657,-4.77872 -0.0324,-1.29612 -0.2269,-1.80173 -0.90437,-2.35115 -0.82445,-0.66861 -0.86135,-0.87098 -0.82451,-4.52241 0.0383,-3.79779 0.64126,-7.19364 1.17212,-6.60138 0.36503,0.40726 1.08237,4.16352 1.08237,5.66771 0,1.56823 1.90565,5.75428 2.61955,5.75428 0.36715,0 0.6227,-0.47265 0.77688,-1.43683 0.19235,-1.20285 0.52789,-1.66193 2.06037,-2.81896 2.01105,-1.51836 3.78018,-2.0669 4.56512,-1.41547 0.34077,0.28281 0.57101,0.29671 0.72725,0.0439 0.41802,-0.67638 2.14583,-0.38252 3.73389,0.63505 2.04478,1.31021 2.83278,2.23219 3.12375,3.65492 0.13781,0.67379 0.45343,1.16097 0.75215,1.16097 0.76146,0 2.33692,-3.51435 2.59297,-5.78411 0.29832,-2.64449 0.97645,-5.6812 1.26868,-5.6812 0.49832,0 1.06279,3.72901 1.06279,7.021 0,3.21254 -0.0582,3.49402 -0.88195,4.26792 -0.68161,0.64034 -0.88194,1.18118 -0.88194,2.38097 0,1.26472 -0.31057,2.01743 -1.67571,4.06133 -0.92163,1.3799 -1.9258,2.91583 -2.23149,3.41318 -0.30569,0.49734 -1.17882,1.258851 -1.94029,1.692221 -1.20118,0.68363 -1.90289,0.78872 -5.3003,0.79375 -3.76062,0.006 -3.97152,-0.0345 -5.32068,-1.01185 z m 2.55762,-10.800441 c 0.88731,-1.16331 1.06124,-1.23472 3.00752,-1.23472 1.91913,0 2.10301,0.0721 2.59092,1.01558 0.28885,0.55857 0.78068,1.11363 1.09295,1.23346 0.85787,0.32919 1.92777,-0.40608 1.92777,-1.32483 0,-1.10816 -0.89922,-1.80152 -2.99861,-2.31211 -0.97015,-0.23594 -2.0221,-0.66204 -2.33767,-0.94689 -0.5022,-0.4533 -0.59841,-0.45369 -0.77129,-0.003 -0.10864,0.2831 -1.04107,0.69104 -2.07207,0.90653 -2.21409,0.46277 -2.50665,0.62875 -3.10343,1.76058 -0.40158,0.76165 -0.3634,0.93049 0.33905,1.49931 1.0744,0.86999 1.24086,0.82748 2.32486,-0.59373 z m 30.30193,-1.79612 c -4.75119,-1.68696 -7.26416,-7.45605 -5.65658,-12.98596 0.73053,-2.51291 2.83621,-4.92153 5.31693,-6.08186 2.50753,-1.17288 6.68371,-1.16822 9.17224,0.0103 3.58061,1.69561 5.57301,4.97704 5.59327,9.21199 0.0241,5.03437 -2.24021,8.54847 -6.43966,9.99416 -1.62356,0.55891 -6.23524,0.47312 -7.9862,-0.14858 z m 7.33479,-3.54711 c 1.40135,-0.71722 2.71981,-2.91087 2.95698,-4.91986 0.72714,-6.15919 -5.37563,-10.36286 -9.88965,-6.81214 -2.95429,2.32385 -3.11461,8.508 -0.28578,11.02334 1.79389,1.5951 4.89215,1.89926 7.21845,0.70866 z m 59.88039,3.7789 c -2.44687,-0.74432 -5.09778,-3.01361 -4.86523,-4.16487 0.0577,-0.2859 0.69683,-0.86005 1.42016,-1.27588 l 1.31518,-0.75605 0.94509,1.01448 c 1.46026,1.56748 3.79769,2.46026 5.81559,2.22127 2.84394,-0.33682 4.19598,-1.71958 3.49196,-3.57129 -0.37742,-0.99271 -1.4319,-1.41039 -5.73106,-2.27006 -2.02464,-0.40485 -3.87087,-0.99904 -4.50325,-1.44934 -3.11121,-2.21538 -2.77902,-6.72668 0.643,-8.7321 1.35573,-0.79452 2.12934,-0.96752 4.86066,-1.08698 2.89773,-0.12674 3.45798,-0.0461 5.19105,0.74734 1.0685,0.48919 2.21647,1.30721 2.55105,1.81784 0.58069,0.88623 0.57804,0.95097 -0.0583,1.42459 -1.41406,1.05249 -2.29605,1.38794 -2.75678,1.0485 -2.13648,-1.57406 -2.52125,-1.72528 -4.41753,-1.73618 -2.52867,-0.0145 -3.8993,0.78746 -3.8993,2.28163 0,1.42333 0.93051,1.93854 4.76252,2.63694 5.96496,1.08714 7.79499,2.68441 7.51473,6.55897 -0.13014,1.79917 -0.32128,2.27555 -1.33104,3.31735 -0.64849,0.66907 -1.89682,1.46106 -2.77408,1.75997 -1.67276,0.56997 -6.58154,0.69839 -8.17441,0.21387 z m -49.03396,-9.90097 v -9.87781 h 5.6558 c 5.86007,0 7.36901,0.28571 8.92095,1.68916 1.89103,1.71006 2.56647,5.45367 1.46123,8.09887 -1.28875,3.08441 -3.11997,3.95188 -8.36504,3.96259 l -3.79237,0.008 v 2.99862 2.99862 h -1.94028 -1.94029 z m 10.81158,0.026 c 1.62257,-0.98939 2.14239,-2.80035 1.29915,-4.52601 -0.92095,-1.88471 -1.96859,-2.27075 -5.38839,-1.98555 l -2.84177,0.23699 v 3.47707 3.47707 l 2.91043,-0.001 c 2.24684,-0.001 3.16354,-0.15566 4.02058,-0.67826 z m 13.17738,1.56151 v -8.2903 h -3.17501 -3.17501 v -1.5875 -1.58751 h 8.2903 8.2903 v 1.58751 1.5875 h -2.99862 -2.99862 v 8.2903 8.2903 h -2.11667 -2.11667 z m 13.05281,-1.5875 v -9.87781 h 1.94029 1.94027 v 9.87781 9.8778 h -1.94027 -1.94029 z m 25.06036,9.08404 c 0.1929,-0.43656 2.14838,-4.84188 4.3455,-9.7896 l 3.99478,-8.99586 h 2.24569 2.24568 l 4.08946,9.17225 c 2.2492,5.04473 4.19605,9.45005 4.32632,9.7896 0.21031,0.54817 -0.0152,0.61737 -2.01141,0.61737 h -2.24825 l -0.80421,-1.94028 -0.8042,-1.94028 h -4.80907 -4.80907 l -0.80421,1.94028 -0.80419,1.94028 h -2.25178 c -2.20389,0 -2.24431,-0.0169 -1.90104,-0.79376 z m 13.74589,-6.5264 c 0.001,-0.49311 -2.93392,-7.14377 -3.15262,-7.14377 -0.22124,0 -3.20572,6.66111 -3.20073,7.14377 10e-4,0.14553 1.43149,0.26459 3.17775,0.26459 1.74625,0 3.17528,-0.11906 3.1756,-0.26459 z m 10.22999,-2.38126 v -9.70141 h 2.2457 2.24571 l 2.72312,3.87824 c 1.49773,2.13304 2.83041,3.94455 2.96152,4.02558 0.13111,0.081 1.5067,-1.66249 3.05688,-3.87449 l 2.81851,-4.02182 2.38125,-0.004 2.38126,-0.004 v 9.70142 9.70142 h -2.10889 -2.10889 l -0.096,-6.51394 -0.096,-6.51393 -2.63852,3.6917 c -3.49988,4.89688 -3.55562,4.89638 -7.0629,-0.0637 l -2.64585,-3.74184 -0.096,6.57088 -0.096,6.57087 h -1.9325 -1.9325 z m -139.34489,0.79277 c -1.02296,-0.36533 -1.36321,-0.76923 -2.00508,-2.38027 -0.42518,-1.06716 -0.97192,-1.94028 -1.21499,-1.94028 -0.74952,0 -1.07703,-2.24878 -0.95574,-6.56242 0.0639,-2.27223 -0.0102,-4.05292 -0.16467,-3.95709 -0.58848,0.36515 0.22354,-3.65892 1.01982,-5.05377 1.90375,-3.334861 4.25342,-4.195031 10.73053,-3.928271 3.37524,0.13901 4.45535,0.32168 5.82628,0.98533 2.229,1.079051 3.86217,2.552721 4.39133,3.962471 0.23703,0.63148 0.73229,1.72439 1.10055,2.42867 0.38498,0.73623 0.84244,2.76052 1.07627,4.76251 0.35328,3.02479 0.32911,3.74796 -0.18411,5.50749 -0.32494,1.11401 -0.7557,1.98714 -0.95726,1.94028 -0.20155,-0.0469 -0.72246,0.78792 -1.15757,1.85508 -0.68782,1.68697 -0.97272,2.00154 -2.1822,2.40948 -2.97163,1.00228 -5.64612,-0.074 -6.57635,-2.64651 -0.57381,-1.58686 -1.47712,-1.52424 -2.14702,0.14884 -0.29135,0.7276 -0.86261,1.62388 -1.26947,1.99172 -0.92057,0.83229 -3.65093,1.07649 -5.33032,0.47674 z m 4.32898,-0.5867 c 1.02051,-0.388 1.8285,-2.15467 1.52978,-3.34486 -0.17419,-0.69404 -0.55857,-0.93295 -1.9976,-1.24157 -2.25754,-0.48415 -3.71801,-0.48502 -4.61911,-0.003 -0.605,0.32378 -0.67331,0.59523 -0.46609,1.85209 0.27196,1.64966 0.68548,2.2978 1.73827,2.72453 0.9801,0.39728 2.78725,0.40324 3.81475,0.0126 z m 11.56758,-0.67753 c 0.32903,-0.40633 0.70953,-1.33206 0.84556,-2.05719 0.36051,-1.92169 -0.36349,-2.35754 -3.46106,-2.08352 -2.94652,0.26065 -3.75873,0.6539 -3.75873,1.81987 0,1.19591 0.90554,2.87356 1.67091,3.09563 1.42024,0.41208 4.09966,-0.0293 4.70332,-0.77479 z m -4.16952,-4.85737 c 1.81506,-0.31498 4.08533,-0.48287 5.11545,-0.37826 1.37975,0.14009 1.85209,0.0712 1.85209,-0.26994 0,-0.56001 -1.37566,-8.63142 -1.59678,-9.36884 -0.18325,-0.61109 -0.13979,-0.60714 -9.30175,-0.84586 -8.03947,-0.20948 -8.35316,-0.12356 -9.52927,2.61035 -0.5894,1.37013 -1.42993,5.89961 -1.44009,7.76053 -5.3e-4,0.097 1.4667,0.20232 3.26053,0.23399 1.79381,0.0317 3.89649,0.21417 4.6726,0.40554 2.06815,0.50995 3.33302,0.48317 6.96722,-0.14751 z"
       id="path1081" />
  </g>
</svg>
