<?xml version="1.0" encoding="UTF-8" standalone="no"?>
<!-- Created with Inkscape (http://www.inkscape.org/) -->

<svg
   version="1.1"
   id="svg2"
   width="1024"
   height="273"
   viewBox="0 0 1024 273"
   sodipodi:docname="titre-francais.svg"
   inkscape:version="1.2.2 (b0a8486541, 2022-12-01)"
   xmlns:inkscape="http://www.inkscape.org/namespaces/inkscape"
   xmlns:sodipodi="http://sodipodi.sourceforge.net/DTD/sodipodi-0.dtd"
   xmlns="http://www.w3.org/2000/svg"
   xmlns:svg="http://www.w3.org/2000/svg">
  <defs
     id="defs6" />
  <sodipodi:namedview
     id="namedview4"
     pagecolor="#ffffff"
     bordercolor="#000000"
     borderopacity="0.25"
     inkscape:showpageshadow="2"
     inkscape:pageopacity="0.0"
     inkscape:pagecheckerboard="0"
     inkscape:deskcolor="#d1d1d1"
     showgrid="false"
     inkscape:zoom="0.43223443"
     inkscape:cx="201.27966"
     inkscape:cy="-145.75424"
     inkscape:window-width="1916"
     inkscape:window-height="1157"
     inkscape:window-x="0"
     inkscape:window-y="41"
     inkscape:window-maximized="1"
     inkscape:current-layer="g8" />
  <g
     inkscape:groupmode="layer"
     inkscape:label="Image"
     id="g8">
    <path
       style="fill:#1E293B;fill-opacity:1;stroke:none;stroke-width:24;stroke-linejoin:round"
       d="M 0,0 V 273 L 125.03243,234.29512 V 38.337178 Z"
       id="path293"
       sodipodi:nodetypes="ccccc" />
    <path
       style="fill:#1E293B;fill-opacity:1;stroke:none;stroke-width:24;stroke-linejoin:round"
       d="M 279.53952,0 V 273 L 154.50709,234.29512 V 38.337178 Z"
       id="path1053"
       sodipodi:nodetypes="ccccc" />
    <path
       d="m 322.46211,20.832458 h 74.14372 V 39.533006 H 369.21348 V 111.96471 H 349.85446 V 39.533006 h -27.39235 z"
       id="path10445"
       style="font-size:131.694px;line-height:1;font-family:'FONTSPRING DEMO - Organetto Bold';-inkscape-font-specification:'FONTSPRING DEMO - Organetto Bold, ';opacity:1;fill:#1E293B;fill-opacity:1;stroke-width:197.539;stroke-linejoin:round" />
    <path
       d="M 428.34403,111.96471 H 408.85331 V 20.832458 h 19.49072 z"
       id="path10447"
       style="font-size:131.694px;line-height:1;font-family:'FONTSPRING DEMO - Organetto Bold';-inkscape-font-specification:'FONTSPRING DEMO - Organetto Bold, ';opacity:1;fill:#1E293B;fill-opacity:1;stroke-width:197.539;stroke-linejoin:round" />
    <path
       d="m 445.21867,20.832458 h 74.14372 V 39.533006 H 491.97004 V 111.96471 H 472.61102 V 39.533006 h -27.39235 z"
       id="path10449"
       style="font-size:131.694px;line-height:1;font-family:'FONTSPRING DEMO - Organetto Bold';-inkscape-font-specification:'FONTSPRING DEMO - Organetto Bold, ';opacity:1;fill:#1E293B;fill-opacity:1;stroke-width:197.539;stroke-linejoin:round" />
    <path
       d="M 614.64967,111.96471 H 592.92016 L 574.483,82.46525 h -16.33005 v 29.49946 H 538.66224 V 20.832458 h 37.40109 q 17.38361,0 26.86558,8.296722 9.48197,8.165028 9.48197,22.783062 v 0.131694 q 0,21.202734 -19.22733,27.919128 z M 576.06333,38.34776 h -17.91038 v 27.392352 h 17.91038 q 16.85683,0 16.85683,-13.696176 v -0.131694 q 0,-13.564482 -16.85683,-13.564482 z"
       id="path10451"
       style="font-size:131.694px;line-height:1;font-family:'FONTSPRING DEMO - Organetto Bold';-inkscape-font-specification:'FONTSPRING DEMO - Organetto Bold, ';opacity:1;fill:#1E293B;fill-opacity:1;stroke-width:197.539;stroke-linejoin:round" />
    <path
       d="m 631.59518,20.832458 h 68.15957 V 39.00623 h -48.66886 v 18.43716 h 43.66449 v 18.173772 h -43.66449 v 18.173772 h 48.66886 v 18.173776 h -68.15957 z"
       id="path10453"
       style="font-size:131.694px;line-height:1;font-family:'FONTSPRING DEMO - Organetto Bold';-inkscape-font-specification:'FONTSPRING DEMO - Organetto Bold, ';opacity:1;fill:#1E293B;fill-opacity:1;stroke-width:197.539;stroke-linejoin:round"
       sodipodi:nodetypes="ccccccccccccc" />
    <path
       d="m 784.6731,31.76306 -11.32569,14.354646 q -8.8235,-9.613662 -22.91475,-9.613662 h -0.1317 q -7.90164,0 -12.51093,2.370492 -4.47759,2.370492 -4.47759,6.5847 0,3.29235 2.63388,5.531148 2.63388,2.107104 9.74535,3.555738 l 17.647,3.95082 q 22.65137,4.872678 22.65137,28.182516 0,12.51093 -10.00875,19.754102 -9.87705,7.11147 -25.94372,7.11147 h -0.13169 q -29.49946,0 -40.03498,-19.754096 l 15.93498,-11.589072 q 7.76994,14.091258 24.49508,14.091258 h 0.1317 q 7.63825,0 11.72076,-2.63388 4.08252,-2.765574 4.08252,-7.506558 0,-7.769946 -11.19399,-10.53552 L 734.76107,70.61279 q -21.07104,-5.136066 -21.07104,-24.36339 0,-13.037706 10.14044,-20.017488 10.14044,-6.979782 27.26066,-6.979782 h 0.13169 q 21.9929,0 33.45028,12.51093 z"
       id="path10455"
       style="font-size:131.694px;line-height:1;font-family:'FONTSPRING DEMO - Organetto Bold';-inkscape-font-specification:'FONTSPRING DEMO - Organetto Bold, ';opacity:1;fill:#1E293B;fill-opacity:1;stroke-width:197.539;stroke-linejoin:round" />
    <path
       d="m 329.1785,146.95756 h 68.83368 v 18.30546 h -49.34297 v 20.67596 h 44.3386 v 18.43716 h -44.3386 v 33.71367 H 329.1785 Z"
       id="path10457"
       style="font-size:131.694px;line-height:1;font-family:'FONTSPRING DEMO - Organetto Bold';-inkscape-font-specification:'FONTSPRING DEMO - Organetto Bold, ';opacity:1;fill:#1E293B;fill-opacity:1;stroke-width:197.539;stroke-linejoin:round"
       sodipodi:nodetypes="ccccccccccc" />
    <path
       d="m 491.13194,238.08981 h -21.72951 l -18.43716,-29.49946 h -16.33005 v 29.49946 H 415.1445 v -91.13225 h 37.4011 q 17.38361,0 26.86558,8.29672 9.48196,8.16503 9.48196,22.78306 v 0.1317 q 0,21.20273 -19.22732,27.91912 z M 452.5456,164.47286 h -17.91038 v 27.39235 h 17.91038 q 16.85683,0 16.85683,-13.69617 v -0.1317 q 0,-13.56448 -16.85683,-13.56448 z"
       id="path10459"
       style="font-size:131.694px;line-height:1;font-family:'FONTSPRING DEMO - Organetto Bold';-inkscape-font-specification:'FONTSPRING DEMO - Organetto Bold, ';opacity:1;fill:#1E293B;fill-opacity:1;stroke-width:197.539;stroke-linejoin:round" />
    <path
       d="m 557.51633,146.95756 37.2694,91.13225 h -20.54427 l -7.37486,-19.09563 h -39.63989 l -7.24317,19.09563 h -20.54427 l 37.13771,-91.13225 z m 3.16065,54.9164 -13.56448,-34.89891 -13.69618,34.89891 z"
       id="path10461"
       style="font-size:131.694px;line-height:1;font-family:'FONTSPRING DEMO - Organetto Bold';-inkscape-font-specification:'FONTSPRING DEMO - Organetto Bold, ';opacity:1;fill:#1E293B;fill-opacity:1;stroke-width:197.539;stroke-linejoin:round" />
    <path
       d="m 670.49064,204.90292 v -57.94536 h 18.96393 v 91.13225 h -17.25191 l -44.11749,-57.81367 v 57.81367 h -18.96394 v -91.13225 h 17.25192 z"
       id="path10463"
       style="font-size:131.694px;line-height:1;font-family:'FONTSPRING DEMO - Organetto Bold';-inkscape-font-specification:'FONTSPRING DEMO - Organetto Bold, ';opacity:1;fill:#1E293B;fill-opacity:1;stroke-width:197.539;stroke-linejoin:round" />
    <path
       d="m 788.8767,156.43953 -10.66721,14.61803 q -8.8235,-7.50656 -21.20274,-7.50656 h -0.13169 q -12.51093,0 -20.01749,8.16503 -7.37486,8.16503 -7.37486,20.67596 v 0.13169 q 0.13169,12.64263 7.50656,20.80765 7.50655,8.16503 19.88579,8.16503 h 0.13169 q 12.24755,0 21.20274,-7.50656 l 10.66721,14.61804 q -11.98415,11.06229 -31.86995,11.06229 h -0.13169 q -21.59782,0 -34.24044,-13.0377 Q 709.992,213.59472 709.992,192.52368 v -0.13169 q 0,-20.93935 12.64262,-33.97705 12.64262,-13.03771 34.24044,-13.03771 h 0.13169 q 19.62241,0 31.86995,11.0623 z"
       id="path10465"
       style="font-size:131.694px;line-height:1;font-family:'FONTSPRING DEMO - Organetto Bold';-inkscape-font-specification:'FONTSPRING DEMO - Organetto Bold, ';opacity:1;fill:#1E293B;fill-opacity:1;stroke-width:197.539;stroke-linejoin:round" />
    <path
       d="m 857.03589,146.95756 37.2694,91.13225 h -20.54426 l -7.37487,-19.09563 h -39.63989 l -7.24317,19.09563 h -20.54427 l 37.13771,-91.13225 z m 3.16065,54.9164 -13.56448,-34.89891 -13.69617,34.89891 z"
       id="path10467"
       style="font-size:131.694px;line-height:1;font-family:'FONTSPRING DEMO - Organetto Bold';-inkscape-font-specification:'FONTSPRING DEMO - Organetto Bold, ';opacity:1;fill:#1E293B;fill-opacity:1;stroke-width:197.539;stroke-linejoin:round" />
    <path
       d="m 930.60807,238.08981 h -19.49071 v -91.13225 h 19.49071 z"
       id="path10469"
       style="font-size:131.694px;line-height:1;font-family:'FONTSPRING DEMO - Organetto Bold';-inkscape-font-specification:'FONTSPRING DEMO - Organetto Bold, ';opacity:1;fill:#1E293B;fill-opacity:1;stroke-width:197.539;stroke-linejoin:round" />
    <path
       d="m 1015.8802,157.88816 -11.3257,14.35465 q -8.82346,-9.61367 -22.91472,-9.61367 h -0.13169 q -7.90164,0 -12.51093,2.3705 -4.4776,2.37049 -4.4776,6.5847 0,3.29235 2.63388,5.53114 2.63388,2.10711 9.74536,3.55574 l 17.647,3.95082 q 22.6514,4.87268 22.6514,28.18252 0,12.51093 -10.0088,19.7541 -9.87703,7.11147 -25.9437,7.11147 h -0.13169 q -29.49946,0 -40.03498,-19.7541 l 15.93498,-11.58907 q 7.76994,14.09126 24.49508,14.09126 h 0.13169 q 7.63826,0 11.72077,-2.63388 4.08251,-2.76557 4.08251,-7.50656 0,-7.76994 -11.19399,-10.53552 l -20.28087,-5.00437 q -21.07104,-5.13607 -21.07104,-24.36339 0,-13.03771 10.14044,-20.01749 10.14043,-6.97978 27.26065,-6.97978 h 0.1317 q 21.99285,0 33.45025,12.51093 z"
       id="path10471"
       style="font-size:131.694px;line-height:1;font-family:'FONTSPRING DEMO - Organetto Bold';-inkscape-font-specification:'FONTSPRING DEMO - Organetto Bold, ';opacity:1;fill:#1E293B;fill-opacity:1;stroke-width:197.539;stroke-linejoin:round" />
    <path
       style="opacity:1;fill:#1E293B;fill-opacity:1"
       d="m 742.25,265.96884 c -2.61564,-1.05136 -2.61177,-1.02933 -1.07928,-6.1443 0.88501,-2.95391 1.55612,-3.74839 2.75,-3.25554 3.23925,1.33721 9.85809,1.61975 11.93285,0.50936 2.67123,-1.42959 2.78487,-4.66631 0.21217,-6.04318 -1.06384,-0.56935 -3.53884,-1.03518 -5.5,-1.03518 -1.96116,0 -3.5604,-0.1125 -3.55387,-0.25 0.007,-0.1375 0.66495,-2.70407 1.46317,-5.7035 0.79821,-2.99942 1.35537,-5.52053 1.23813,-5.60247 -0.11724,-0.0819 -2.46317,-0.6996 -5.21317,-1.37261 l 20.25,1.39849 c -4.05719,0.55745 -4.75,0.97904 -4.75,2.89047 0,1.6316 0.90935,2.56667 3.35669,3.45164 5.02688,1.81774 7.14331,4.69534 7.14331,9.7124 0,4.94213 -2.87597,8.8283 -8.21788,11.10446 -3.59118,1.53018 -16.52493,1.74968 -20.03212,0.33996 z"
       id="path11940"
       sodipodi:nodetypes="sssssscssccsssss" />
  </g>
</svg>
