<?xml version="1.0" encoding="UTF-8" standalone="no"?>
<!-- Created with Inkscape (http://www.inkscape.org/) -->

<svg
   width="165.24763mm"
   height="35.883598mm"
   viewBox="0 0 165.24763 35.883598"
   version="1.1"
   id="svg30499"
   inkscape:version="1.2.2 (b0a8486541, 2022-12-01)"
   sodipodi:docname="yamaha_motors-horizontal-white.svg"
   xmlns:inkscape="http://www.inkscape.org/namespaces/inkscape"
   xmlns:sodipodi="http://sodipodi.sourceforge.net/DTD/sodipodi-0.dtd"
   xmlns="http://www.w3.org/2000/svg"
   xmlns:svg="http://www.w3.org/2000/svg">
  <sodipodi:namedview
     id="namedview30501"
     pagecolor="#ffffff"
     bordercolor="#000000"
     borderopacity="0.25"
     inkscape:showpageshadow="2"
     inkscape:pageopacity="0.0"
     inkscape:pagecheckerboard="0"
     inkscape:deskcolor="#d1d1d1"
     inkscape:document-units="mm"
     showgrid="false"
     inkscape:zoom="0.2102413"
     inkscape:cx="351.97651"
     inkscape:cy="390.02803"
     inkscape:window-width="1916"
     inkscape:window-height="1157"
     inkscape:window-x="0"
     inkscape:window-y="41"
     inkscape:window-maximized="1"
     inkscape:current-layer="layer1" />
  <defs
     id="defs30496" />
  <g
     inkscape:label="Calque 1"
     inkscape:groupmode="layer"
     id="layer1"
     transform="translate(168.20009,-44.981932)">
    <g
       id="g2832"
       transform="matrix(0.67660375,0,0,0.67660375,-7.7666609,232.81534)">
      <path
         id="path2529"
         style="fill:#1E293B;fill-opacity:1;stroke-width:0.820883"
         d="m -210.59872,-277.61213 c -14.63797,0 -26.51706,11.87908 -26.51706,26.51706 0,14.63797 11.87991,26.51782 26.51706,26.51782 14.63879,0 26.51706,-11.87985 26.51706,-26.51782 0,-14.63798 -11.87827,-26.51706 -26.51706,-26.51706 z m -0.002,1.12655 c 14.01493,0 25.39509,11.37172 25.39509,25.38745 0,14.01575 -11.37934,25.39586 -25.39509,25.39586 -14.01492,0 -25.38745,-11.38011 -25.38745,-25.39586 0,-14.01573 11.37253,-25.38745 25.38745,-25.38745 z m 0.005,0.58963 c -0.14776,0 -0.30001,0.0362 -0.43382,0.13136 a 0.77163007,0.77163007 0 0 0 -0.27877,0.37272 v 0.007 l -0.007,0.016 -0.83021,3.06574 c -11.01624,0.79051 -19.71575,9.98775 -19.71575,21.20509 0,3.31309 0.75664,6.45165 2.11027,9.2484 l -2.17214,2.19582 -0.008,0.008 -0.008,0.007 c -0.10833,0.12642 -0.16485,0.27155 -0.17795,0.41931 a 0.73148889,0.73148889 0 0 0 0.0924,0.43381 c 0.0747,0.13134 0.19093,0.23675 0.33377,0.30245 0.12888,0.0594 0.28239,0.093 0.44985,0.0626 h 0.0237 l 2.98631,-0.79126 c 3.82285,5.65753 10.29375,9.38053 17.62916,9.38053 7.33458,0 13.81154,-3.723 17.63603,-9.38053 l 2.99471,0.78286 h 0.0237 a 0.73641418,0.73641418 0 0 0 0.44985,-0.0542 0.73033965,0.73033965 0 0 0 0.333,-0.30245 c 0.078,-0.13463 0.10798,-0.29199 0.0932,-0.44221 -0.014,-0.14776 -0.0704,-0.29295 -0.17796,-0.41855 l -0.008,-0.008 -0.007,-0.007 -2.18054,-2.19658 c 1.35117,-2.79509 2.11027,-5.93178 2.11027,-9.24076 0,-11.2116 -8.69845,-20.40637 -19.70811,-21.20509 l -0.84625,-3.07261 -0.007,-0.008 v -0.007 c -0.0525,-0.1494 -0.14819,-0.27911 -0.27953,-0.37271 -0.11903,-0.0854 -0.27161,-0.13213 -0.41855,-0.13213 z m 0.002,0.31008 a 0.39673278,0.39673278 0 0 1 0.23906,0.0764 0.46658993,0.46658993 0 0 1 0.16268,0.21767 l 1.87733,6.82804 c 0.0468,0.13215 0.0443,0.28708 0,0.42006 -0.0435,0.13217 -0.1333,0.245 -0.24822,0.3246 -0.33246,0.22821 -0.44124,0.66061 -0.59803,1.07844 -0.156,0.41864 -0.18796,0.77871 -0.0771,1.21132 0.11164,0.4326 0.35823,0.82526 0.69808,1.11586 0.60827,0.52208 1.15625,1.15294 1.49774,1.89336 0.34149,0.74126 0.46513,1.53434 0.46513,2.33635 v 1.97051 l 9.54397,-5.50902 1.05476,1.82387 -10.59949,6.11391 v 2.21873 l 1.9094,1.10211 10.59873,-6.12232 1.05552,1.81623 -9.55085,5.51589 1.70625,0.98602 c 0.69447,0.40059 1.32899,0.89304 1.80018,1.5596 0.47119,0.6641 0.74432,1.45348 0.89208,2.24317 0.0829,0.43753 0.29398,0.84964 0.6133,1.16321 0.3185,0.31194 0.64525,0.46757 1.08607,0.54227 0.43999,0.0739 0.86983,0.18847 1.23347,0.0153 0.12642,-0.0608 0.26618,-0.0745 0.40327,-0.0458 0.13626,0.0279 0.26634,0.11783 0.35744,0.22454 l 4.98966,5.01945 c 0.0583,0.0681 0.0918,0.15869 0.10082,0.24899 a 0.43359043,0.43359043 0 0 1 -0.0542,0.25586 0.43268746,0.43268746 0 0 1 -0.194,0.17948 c -0.0821,0.0374 -0.17566,0.047 -0.26426,0.0306 l -6.85094,-1.79331 c -0.13709,-0.0263 -0.27152,-0.11183 -0.36432,-0.21691 -0.0935,-0.10507 -0.15194,-0.23317 -0.16344,-0.37272 -0.0312,-0.40141 -0.35225,-0.7108 -0.63545,-1.05475 -0.28485,-0.34559 -0.57198,-0.55532 -1.0013,-0.67517 -0.43014,-0.12063 -0.89714,-0.0943 -1.31825,0.0535 -0.75685,0.26597 -1.57791,0.42533 -2.39058,0.34903 -0.81184,-0.0747 -1.56321,-0.36704 -2.25768,-0.76681 l -1.69937,-0.98678 v 11.01803 h -2.11027 v -12.23547 l -1.90864,-1.10135 -1.91705,1.10899 v 12.22783 h -2.10187 v -11.01803 l -1.70777,0.98678 c -0.69365,0.40059 -1.4382,0.69211 -2.25004,0.76681 -0.81268,0.0772 -1.63297,-0.0747 -2.38982,-0.33987 -0.42112,-0.1478 -0.88042,-0.17484 -1.31138,-0.055 -0.43015,0.11903 -0.73095,0.32194 -1.0158,0.66753 -0.28402,0.34395 -0.59658,0.66093 -0.62858,1.06315 -0.0115,0.13873 -0.0706,0.26689 -0.16344,0.37196 -0.0936,0.10503 -0.23481,0.16783 -0.37272,0.19323 l -6.84254,1.81622 c -0.0887,0.0156 -0.18136,-0.001 -0.26426,-0.0382 -0.0813,-0.0386 -0.1488,-0.10149 -0.194,-0.17949 -0.0442,-0.078 -0.0632,-0.15952 -0.0542,-0.24822 0.009,-0.0903 0.0433,-0.17999 0.10235,-0.24899 l 4.98049,-5.03548 c 0.0911,-0.10672 0.22799,-0.18141 0.36508,-0.20851 a 0.62280397,0.62280397 0 0 1 0.40327,0.0458 c 0.36365,0.17319 0.79425,0.0502 1.23424,-0.0229 0.4408,-0.0739 0.76757,-0.2227 1.08606,-0.53464 0.31932,-0.31357 0.53121,-0.72562 0.61331,-1.16397 0.14694,-0.78887 0.42006,-1.57668 0.89207,-2.24241 0.47201,-0.66574 1.09808,-1.16665 1.79255,-1.56724 l 1.70701,-0.98601 -9.54397,-5.51589 1.05552,-1.8231 10.59949,6.12155 1.9094,-1.10135 v -2.21872 l -10.59949,-6.11392 1.05628,-1.81546 9.54321,5.50901 v -1.9705 c 0,-0.80201 0.11601,-1.59509 0.4575,-2.33635 0.34067,-0.74043 0.88024,-1.37052 1.48933,-1.8926 0.33903,-0.2906 0.59566,-0.68402 0.70648,-1.11662 0.11161,-0.43261 0.0857,-0.7935 -0.0703,-1.21133 -0.15679,-0.41865 -0.28091,-0.8494 -0.61254,-1.07843 -0.11493,-0.0788 -0.19629,-0.19161 -0.24059,-0.3246 -0.0435,-0.13298 -0.0231,-0.28791 0.0229,-0.42007 l 1.84677,-6.82803 a 0.45082897,0.45082897 0 0 1 0.16268,-0.21768 c 0.0731,-0.0518 0.16556,-0.0771 0.25586,-0.0771 z m 0,13.19858 c -0.50073,0 -1.00334,0.20369 -1.35796,0.55831 -0.35462,0.35544 -0.55831,0.84959 -0.55831,1.35033 v 3.57746 l 1.91627,1.10975 1.90865,-1.10211 v -3.58434 c 0,-0.50074 -0.20369,-0.99571 -0.55831,-1.35033 -0.35544,-0.35462 -0.8496,-0.55907 -1.35034,-0.55907 z m 0,9.02385 -1.91551,1.10898 v 2.20422 l 1.92392,1.10898 1.90024,-1.10058 v -2.22026 z m -5.93595,3.42241 -3.0963,1.79255 c -0.43424,0.25036 -0.75473,0.67884 -0.88443,1.16398 -0.1297,0.4835 -0.064,1.01777 0.18635,1.45038 0.25037,0.43342 0.67966,0.76314 1.16398,0.89284 0.48515,0.12888 1.01772,0.064 1.45115,-0.18636 l 3.09629,-1.78491 v -2.21873 z m 11.86428,0 -1.91017,1.10059 v 2.21872 l 3.09629,1.78492 c 0.43343,0.25036 0.96765,0.316 1.45115,0.18712 0.48433,-0.1297 0.90596,-0.45178 1.15633,-0.8852 0.25034,-0.43261 0.33216,-0.9737 0.20164,-1.45802 -0.1297,-0.48514 -0.45784,-0.90522 -0.89208,-1.15558 z" />
      <path
         id="path2531"
         style="stroke-width:0.820883"
         d="m -210.58192,-275.89519 c -0.0122,3e-5 -0.0244,7.1e-4 -0.0367,7.6e-4 -0.14051,0.004 -0.28397,0.0395 -0.4109,0.12984 a 0.77163007,0.77163007 0 0 0 -0.27877,0.37272 v 0.007 l -0.007,0.016 -0.83021,3.06574 c -11.01624,0.79051 -19.71575,9.98775 -19.71575,21.20509 0,1.23205 0.10517,2.43963 0.30627,3.61489 -0.14064,-0.9885 -0.21386,-1.9981 -0.21386,-3.02526 0,-11.21654 8.69876,-20.41452 19.715,-21.20586 l 0.83097,-3.06497 0.007,-0.0153 v -0.008 c 0.0302,-0.0856 0.0769,-0.16312 0.13442,-0.23295 l 0.0687,-0.25509 a 0.45082897,0.45082897 0 0 1 0.16268,-0.21768 c 0.0731,-0.0518 0.16556,-0.0771 0.25586,-0.0771 a 0.39673278,0.39673278 0 0 1 0.23906,0.0764 0.46658993,0.46658993 0 0 1 0.16268,0.21767 l 0.0168,0.0619 c 0.0327,0.0161 0.0639,0.0347 0.0932,0.0557 0.13133,0.0928 0.22617,0.22337 0.27953,0.37195 v 0.008 l 0.007,0.007 0.84701,3.07262 c 9.82107,0.71249 17.79674,8.10812 19.40567,17.65513 -1.37327,-9.83033 -9.47716,-17.51613 -19.49961,-18.24323 l -0.84625,-3.07261 -0.007,-0.008 v -0.007 c -0.0525,-0.1494 -0.14819,-0.27911 -0.27953,-0.37271 -0.11575,-0.083 -0.26316,-0.12887 -0.40633,-0.13137 z m 2.28824,7.76288 c -0.006,0.0301 -0.0119,0.06 -0.0214,0.0886 -0.0435,0.13217 -0.1333,0.245 -0.24822,0.3246 -0.33246,0.22821 -0.44124,0.66061 -0.59803,1.07844 -0.156,0.41864 -0.18796,0.77871 -0.0771,1.21132 0.009,0.0342 0.0239,0.0663 0.0344,0.10005 2.2e-4,-0.23751 0.043,-0.46876 0.13672,-0.72022 0.15678,-0.41783 0.26556,-0.85029 0.59802,-1.07767 0.11492,-0.0805 0.20478,-0.18551 0.24746,-0.31849 0.0435,-0.13299 0.0468,-0.29478 0,-0.42694 z m -4.481,0.28794 c -0.04,0.12658 -0.0558,0.27395 -0.016,0.39868 0.0443,0.13298 0.1256,0.23886 0.24135,0.31849 0.33163,0.2282 0.45657,0.65902 0.61254,1.07767 0.0168,0.0452 0.0259,0.0881 0.0397,0.13213 0.002,-0.23842 -0.0382,-0.47075 -0.13213,-0.72252 -0.15679,-0.41865 -0.28091,-0.8494 -0.61254,-1.07843 -0.0514,-0.0352 -0.0953,-0.0783 -0.1329,-0.12602 z m 2.18054,5.45708 c -0.50073,0 -1.00334,0.20369 -1.35796,0.55831 -0.35462,0.35544 -0.55831,0.84959 -0.55831,1.35033 v 3.57746 l 0.0932,0.0542 v -3.04207 c 0,-0.50074 0.20451,-0.99488 0.55831,-1.35033 0.35462,-0.35462 0.85723,-0.55831 1.35797,-0.55831 0.50074,0 0.99572,0.20451 1.35033,0.55831 0.21469,0.21469 0.37259,0.48139 0.46514,0.76911 v -0.008 c 0,-0.50074 -0.20369,-0.99571 -0.55831,-1.35033 -0.35544,-0.35462 -0.8496,-0.55907 -1.35034,-0.55907 z m 14.42976,0.69578 -10.41389,6.00699 v 2.21873 l 0.0947,0.055 v -1.68333 l 10.59873,-6.11391 z m -28.72127,0.0733 -0.23371,0.4025 10.50707,6.06045 v -0.53692 z m 18.26919,0.80576 c 0.0256,0.24119 0.0389,0.48457 0.0389,0.72863 v 1.97051 l 0.0939,-0.0542 v -1.32512 c 0,-0.44537 -0.0406,-0.88752 -0.13289,-1.31979 z m 13.41242,4.25187 -9.36143,5.40667 0.56213,0.3246 9.0819,-5.24246 z m -34.64425,0.0802 -0.23523,0.40862 8.98413,5.1867 0.46666,-0.2696 z m 42.372,1.68028 c 0.17693,1.20875 0.27037,2.44432 0.27037,3.70195 0,14.01575 -11.37934,25.39586 -25.39509,25.39586 -12.55501,0 -22.9878,-9.13309 -25.02543,-21.11191 1.79032,12.2669 12.35767,21.70153 25.11785,21.70153 14.01492,0 25.39585,-11.38012 25.39585,-25.39585 0,-1.4629 -0.12553,-2.89622 -0.36355,-4.29158 z m -25.11785,1.43664 -1.91551,1.10898 v 2.20422 l 0.0924,0.0535 v -1.66806 l 1.92392,-1.10898 1.80783,1.04712 v -0.5354 z m -5.93595,3.42241 -3.0963,1.79255 c -0.43424,0.25036 -0.75473,0.67884 -0.88443,1.16398 -0.0967,0.36059 -0.0849,0.74976 0.0313,1.10363 -0.002,-0.17345 0.0185,-0.34693 0.0634,-0.51477 0.1297,-0.48514 0.45095,-0.90679 0.8852,-1.15634 l 3.10241,-1.79255 1.81546,1.04865 v -0.5354 z m 11.86428,0 -1.91017,1.10059 v 2.21872 l 0.0939,0.0542 v -1.67722 l 1.91628,-1.09982 3.09553,1.78491 c 0.40243,0.23247 0.71221,0.61244 0.85923,1.05323 0.001,-0.16416 -0.017,-0.32867 -0.0596,-0.48651 -0.1297,-0.48514 -0.45784,-0.90522 -0.89208,-1.15558 z m -5.92985,3.427 -1.91705,1.10899 v 12.22783 h -2.00716 v 0.59191 h 2.10263 v -12.22783 l 1.91628,-1.10974 1.81394,1.04635 v -0.53616 z m -4.01892,2.31879 -1.70777,0.98678 c -0.69365,0.40059 -1.4382,0.69211 -2.25004,0.76681 -0.81268,0.0772 -1.63297,-0.0747 -2.38982,-0.33987 -0.42112,-0.1478 -0.88042,-0.17484 -1.31138,-0.055 -0.43015,0.11903 -0.73095,0.32194 -1.0158,0.66753 -0.28402,0.34395 -0.59658,0.66093 -0.62858,1.06315 -0.0115,0.13873 -0.0706,0.26689 -0.16344,0.37196 -0.0936,0.10503 -0.23481,0.16783 -0.37272,0.19323 l -6.84254,1.81622 c -0.0887,0.0156 -0.18136,-0.001 -0.26426,-0.0382 -0.0252,-0.012 -0.0464,-0.0302 -0.0687,-0.0466 -0.0445,0.0623 -0.0786,0.13505 -0.0848,0.21003 -0.004,0.0371 -1e-4,0.072 0.005,0.10616 0.006,0.003 0.0119,0.007 0.0183,0.01 0.12888,0.0594 0.28239,0.093 0.44985,0.0626 h 0.0237 l 2.98631,-0.79126 c 0.0558,0.0826 0.11412,0.16337 0.17108,0.24517 l 3.70043,-0.9822 c 0.13709,-0.0246 0.27837,-0.089 0.37195,-0.19323 0.0936,-0.10425 0.15196,-0.23316 0.16345,-0.37271 0.032,-0.40224 0.34373,-0.71839 0.62857,-1.06316 0.28485,-0.34313 0.58643,-0.54769 1.01657,-0.66753 0.43014,-0.11903 0.88945,-0.0928 1.31138,0.055 0.75603,0.26597 1.57796,0.41692 2.38981,0.3414 0.81267,-0.0755 1.5564,-0.36775 2.25005,-0.76834 l 1.61306,-0.93179 z m 8.03783,0 v 11.01803 h -2.0148 v 0.59191 h 2.10951 v -11.01879 l 1.70701,0.98678 c 0.69447,0.39977 1.43819,0.69282 2.25004,0.76834 0.81268,0.0747 1.63378,-0.0845 2.38981,-0.35056 0.42194,-0.14775 0.88888,-0.16478 1.31902,-0.0466 0.42932,0.11985 0.7165,0.32522 1.00053,0.66753 0.2832,0.34477 0.60426,0.65416 0.63545,1.05475 0.0123,0.13955 0.0699,0.26764 0.16344,0.37272 0.0936,0.10507 0.22641,0.1914 0.36432,0.21767 l 3.54309,0.92721 c 0.0476,-0.0687 0.0968,-0.13622 0.14359,-0.20546 l 2.99471,0.78286 h 0.0237 a 0.73641418,0.73641418 0 0 0 0.44985,-0.0542 0.73033965,0.73033965 0 0 0 0.20393,-0.14129 c -0.0115,-0.0842 -0.0426,-0.16702 -0.0978,-0.23142 l -0.0665,-0.0665 a 0.43268746,0.43268746 0 0 1 -0.17338,0.16039 c -0.0821,0.0374 -0.17566,0.047 -0.26426,0.0306 l -6.85094,-1.79331 c -0.13709,-0.0263 -0.27152,-0.11183 -0.36432,-0.21691 -0.0935,-0.10507 -0.15194,-0.23317 -0.16344,-0.37272 -0.0312,-0.40141 -0.35225,-0.7108 -0.63545,-1.05475 -0.28485,-0.34559 -0.57198,-0.55532 -1.0013,-0.67517 -0.43014,-0.12063 -0.89714,-0.0943 -1.31825,0.0535 -0.75685,0.26597 -1.57791,0.42533 -2.39058,0.34903 -0.81184,-0.0747 -1.56321,-0.36704 -2.25768,-0.76681 z m -23.29932,2.47153 -2.04689,2.0698 -0.008,0.008 -0.008,0.007 c -0.10833,0.12642 -0.16485,0.27155 -0.17795,0.41931 a 0.73148889,0.73148889 0 0 0 0.0924,0.43381 c 0.008,0.0148 0.0196,0.0279 0.029,0.042 a 0.74659313,0.74659313 0 0 1 0.14969,-0.3055 l 0.007,-0.007 0.008,-0.008 0.0283,-0.0283 c -0.005,-0.0321 -0.01,-0.0645 -0.006,-0.0985 0.009,-0.0903 0.0433,-0.17999 0.10235,-0.24899 l 1.96821,-1.99036 c -0.0462,-0.0978 -0.0927,-0.19546 -0.13747,-0.29405 z m 38.68149,0.11838 c -0.0461,0.0998 -0.0914,0.19972 -0.139,0.29864 l 1.84983,1.86052 c 0.033,0.0386 0.0561,0.0849 0.0733,0.13366 l 0.23829,0.24058 0.008,0.008 0.008,0.007 a 0.7363321,0.7363321 0 0 1 0.0619,0.0985 c 0.0236,-0.0882 0.0325,-0.18001 0.0237,-0.2696 -0.014,-0.14776 -0.0704,-0.29295 -0.17796,-0.41855 l -0.008,-0.008 -0.007,-0.007 z" />
      <path
         d="m -179.69803,-273.37494 9.78,29.86372 v 14.5871 h 9.64948 v -14.5871 l 9.22836,-29.86372 h -8.7227 l -5.48021,19.40649 -5.32261,-19.40649 z m 60.23393,0 v 44.44999 h 8.02577 v -28.82612 l 4.60023,28.82612 h 6.05976 l 4.59038,-28.82612 v 28.82612 h 8.17682 v -44.44999 h -12.25579 l -3.49532,21.14512 -3.3689,-21.14512 z m 68.68329,0 v 44.44999 h 8.94598 v -18.73337 h 7.62026 v 18.73337 h 8.73337 v -44.44999 h -8.73337 v 17.68346 h -7.62026 v -17.68346 z m 38.00934,-0.008 -7.73025,44.45656 h 8.72516 l 1.72058,-10.85946 h 6.6852696 l 1.68527,10.85946 h 8.80069 l -7.73271997,-44.45656 z m 6.1311796,9.74881 2.27467,16.08356 h -4.64538 z m -68.7867196,-9.74881 -7.73025,44.45656 h 8.72516 l 1.72057,-10.85946 h 6.6861 l 1.68445,10.85946 h 8.80151 l -7.73272,-44.45656 z m 6.13118,9.74881 2.27467,16.08356 h -4.64538 z m -74.77834,-9.74881 -7.73108,44.45656 h 8.72517 l 1.71975,-10.85946 h 6.68609 l 1.68445,10.85946 h 8.80151 l -7.7319,-44.45656 z m 6.13035,9.74881 2.27549,16.08356 h -4.6462 z"
         fill="#1E293B"
         id="path2550"
         style="fill:#1E293B;fill-opacity:1;stroke-width:0.820883" />
    </g>
  </g>
</svg>
